SplineFontDB: 3.2
FontName: IRBadr-Italic
FullName: IRBadr-Italic
FamilyName: IRBadr
Weight: Book
Copyright: Copyright (c) 2022, Information Technology Organization of Iran (ito.gov.ir)
Version: 1.000
ItalicAngle: 0
UnderlinePosition: -100
UnderlineWidth: 60
Ascent: 1638
Descent: 410
InvalidEm: 0
sfntRevision: 0x00010000
LayerCount: 2
Layer: 0 1 "Back" 1
Layer: 1 1 "Fore" 0
XUID: [1021 420 722297922 5596561]
StyleMap: 0x0001
FSType: 0
OS2Version: 3
OS2_WeightWidthSlopeOnly: 0
OS2_UseTypoMetrics: 0
CreationTime: 1356318401
ModificationTime: 1662560828
PfmFamily: 17
TTFWeight: 400
TTFWidth: 5
LineGap: 100
VLineGap: 0
Panose: 2 0 5 3 0 0 0 2 0 2
OS2TypoAscent: 1651
OS2TypoAOffset: 0
OS2TypoDescent: -1109
OS2TypoDOffset: 0
OS2TypoLinegap: 300
OS2WinAscent: 1651
OS2WinAOffset: 0
OS2WinDescent: 1109
OS2WinDOffset: 0
HheadAscent: 1651
HheadAOffset: 0
HheadDescent: -1109
HheadDOffset: 0
OS2SubXSize: 1434
OS2SubYSize: 1331
OS2SubXOff: 0
OS2SubYOff: 293
OS2SupXSize: 1434
OS2SupYSize: 1331
OS2SupXOff: 0
OS2SupYOff: 928
OS2StrikeYSize: 50
OS2StrikeYPos: 250
OS2CapHeight: 1651
OS2XHeight: 748
OS2FamilyClass: 2048
OS2Vendor: 'PARS'
OS2CodePages: 20000041.00000000
OS2UnicodeRanges: 00002003.00000000.00000000.00000000
Lookup: 1 1 0 "'init' Initial Forms in Arabic lookup 0" { "'init' Initial Forms in Arabic lookup 0 subtable"  } ['init' ('arab' <'dflt' > ) ]
Lookup: 1 1 0 "'isol' Isolated Forms in Arabic lookup 1" { "'isol' Isolated Forms in Arabic lookup 1 subtable"  } ['isol' ('arab' <'dflt' > ) ]
Lookup: 1 1 0 "'medi' Medial Forms in Arabic lookup 2" { "'medi' Medial Forms in Arabic lookup 2 subtable"  } ['medi' ('arab' <'dflt' > ) ]
Lookup: 1 1 0 "'fina' Terminal Forms in Arabic lookup 3" { "'fina' Terminal Forms in Arabic lookup 3 subtable"  } ['fina' ('arab' <'dflt' > ) ]
Lookup: 4 1 0 "'ccmp' Glyph Composition/Decomposition in Arabic lookup 4" { "'ccmp' Glyph Composition/Decomposition in Arabic lookup 4 subtable"  } ['ccmp' ('arab' <'dflt' > ) ]

StartChar: quotedbl
Encoding: 34 34 1
Width: 480
Flags: W
LayerCount: 2
Fore
SplineSet
78 1325 m 1,0,-1
 180 1325 l 1,1,-1
 158 1003 l 1,2,-1
 90 1003 l 1,3,-1
 78 1325 l 1,0,-1
291 1325 m 1,4,-1
 392 1325 l 1,5,-1
 370 1003 l 1,6,-1
 303 1003 l 1,7,-1
 291 1325 l 1,4,-1
EndSplineSet
EndChar

StartChar: numbersign
Encoding: 35 35 2
Width: 1192
Flags: W
LayerCount: 2
Fore
SplineSet
1236 746 m 1,0,-1
 1002 746 l 1,1,-1
 864 445 l 1,2,-1
 1079 445 l 1,3,-1
 1056 337 l 1,4,-1
 813 337 l 1,5,-1
 658 0 l 1,6,-1
 555 0 l 1,7,-1
 710 337 l 1,8,-1
 494 337 l 1,9,-1
 339 0 l 1,10,-1
 236 0 l 1,11,-1
 391 337 l 1,12,-1
 185 337 l 1,13,-1
 208 445 l 1,14,-1
 442 445 l 1,15,-1
 580 746 l 1,16,-1
 365 746 l 1,17,-1
 388 854 l 1,18,-1
 631 854 l 1,19,-1
 787 1191 l 1,20,-1
 890 1191 l 1,21,-1
 734 854 l 1,22,-1
 950 854 l 1,23,-1
 1106 1191 l 1,24,-1
 1209 1191 l 1,25,-1
 1053 854 l 1,26,-1
 1259 854 l 1,27,-1
 1236 746 l 1,0,-1
901 747 m 1,28,-1
 682 747 l 1,29,-1
 543 443 l 1,30,-1
 762 443 l 1,31,-1
 901 747 l 1,28,-1
EndSplineSet
EndChar

StartChar: dollar
Encoding: 36 36 3
Width: 894
Flags: W
LayerCount: 2
Fore
SplineSet
883 304 m 0,0,1
 858 186 858 186 750 102 c 128,-1,2
 642 18 642 18 502 1 c 1,3,-1
 440 -289 l 1,4,-1
 349 -289 l 1,5,-1
 410 -3 l 1,6,7
 324 -2 324 -2 240.5 17 c 128,-1,8
 157 36 157 36 99 68 c 1,9,-1
 133 230 l 1,10,-1
 145 230 l 1,11,12
 198 182 198 182 271 152.5 c 128,-1,13
 344 123 344 123 435 115 c 1,14,-1
 508 461 l 1,15,16
 490 466 490 466 462.5 472.5 c 128,-1,17
 435 479 435 479 417 486 c 0,18,19
 304 518 304 518 266 584.5 c 128,-1,20
 228 651 228 651 248 748 c 0,21,22
 273 862 273 862 379.5 946 c 128,-1,23
 486 1030 486 1030 632 1043 c 1,24,-1
 679 1261 l 1,25,-1
 770 1261 l 1,26,-1
 724 1045 l 1,27,28
 796 1042 796 1042 870 1024 c 128,-1,29
 944 1006 944 1006 990 985 c 1,30,-1
 956 826 l 1,31,-1
 944 826 l 1,32,33
 896 865 896 865 835 893.5 c 128,-1,34
 774 922 774 922 699 929 c 1,35,-1
 626 585 l 1,36,37
 652 579 652 579 673 573 c 128,-1,38
 694 567 694 567 710 563 c 0,39,40
 814 538 814 538 860 474.5 c 128,-1,41
 906 411 906 411 883 304 c 0,0,1
537 597 m 1,42,-1
 608 928 l 1,43,44
 534 922 534 922 477 881.5 c 128,-1,45
 420 841 420 841 405 769 c 0,46,47
 390 698 390 698 417 659 c 128,-1,48
 444 620 444 620 537 597 c 1,42,-1
728 283 m 0,49,50
 744 358 744 358 713 394 c 128,-1,51
 682 430 682 430 597 449 c 1,52,-1
 526 117 l 1,53,54
 610 126 610 126 660.5 166 c 128,-1,55
 711 206 711 206 728 283 c 0,49,50
EndSplineSet
EndChar

StartChar: percent
Encoding: 37 37 4
Width: 1365
Flags: W
LayerCount: 2
Fore
SplineSet
1348 1110 m 1,0,-1
 312 -45 l 1,1,-1
 241 -45 l 1,2,-1
 1276 1110 l 1,3,-1
 1348 1110 l 1,0,-1
525 1110 m 0,4,5
 633 1110 633 1110 673.5 1020 c 128,-1,6
 714 930 714 930 690 814 c 0,7,8
 660 675 660 675 577 599 c 128,-1,9
 494 523 494 523 400 523 c 0,10,11
 336 523 336 523 291 558 c 128,-1,12
 246 593 246 593 229 661.5 c 128,-1,13
 212 730 212 730 230 814 c 0,14,15
 247 898 247 898 294.5 969 c 128,-1,16
 342 1040 342 1040 404.5 1075 c 128,-1,17
 467 1110 467 1110 525 1110 c 0,4,5
514 1065 m 0,18,19
 473 1065 473 1065 431 1017 c 128,-1,20
 389 969 389 969 357 815 c 0,21,22
 333 704 333 704 338 646 c 0,23,24
 342 602 342 602 366 578 c 0,25,26
 380 563 380 563 404 563 c 0,27,28
 443 563 443 563 479 605 c 0,29,30
 532 666 532 666 563 810 c 0,31,32
 595 962 595 962 569 1024 c 0,33,34
 552 1065 552 1065 514 1065 c 0,18,19
1190 538 m 0,35,36
 1247 538 1247 538 1295.5 502 c 128,-1,37
 1344 466 1344 466 1360 397.5 c 128,-1,38
 1376 329 1376 329 1359 246 c 0,39,40
 1329 105 1329 105 1245 30 c 128,-1,41
 1161 -45 1161 -45 1068 -45 c 0,42,43
 1010 -45 1010 -45 962.5 -9 c 128,-1,44
 915 27 915 27 898 94 c 128,-1,45
 881 161 881 161 899 246 c 0,46,47
 917 330 917 330 963 400 c 128,-1,48
 1009 470 1009 470 1071.5 504 c 128,-1,49
 1134 538 1134 538 1190 538 c 0,35,36
1182 496 m 256,50,51
 1143 496 1143 496 1106 453 c 0,52,53
 1058 397 1058 397 1025 241 c 0,54,55
 994 98 994 98 1019 41 c 0,56,57
 1039 0 1039 0 1078 0 c 0,58,59
 1114 0 1114 0 1151 44 c 0,60,61
 1202 102 1202 102 1233 245 c 0,62,63
 1264 395 1264 395 1238 455 c 0,64,65
 1221 496 1221 496 1182 496 c 256,50,51
EndSplineSet
EndChar

StartChar: ampersand
Encoding: 38 38 5
Width: 1274
Flags: W
LayerCount: 2
Fore
SplineSet
984 698 m 1,0,-1
 1320 698 l 1,1,-1
 1314 669 l 1,2,3
 1242 663 1242 663 1204 638 c 128,-1,4
 1166 613 1166 613 1068.5 485.5 c 128,-1,5
 971 358 971 358 859 248 c 1,6,7
 913 165 913 165 961.5 131.5 c 128,-1,8
 1010 98 1010 98 1067 98 c 0,9,10
 1122 98 1122 98 1167 128 c 128,-1,11
 1212 158 1212 158 1241 217 c 1,12,-1
 1266 195 l 1,13,14
 1212 82 1212 82 1135 28.5 c 128,-1,15
 1058 -25 1058 -25 971 -25 c 0,16,17
 905 -25 905 -25 845 10.5 c 128,-1,18
 785 46 785 46 723 131 c 1,19,20
 606 43 606 43 519 9 c 128,-1,21
 432 -25 432 -25 341 -25 c 0,22,23
 209 -25 209 -25 146.5 45.5 c 128,-1,24
 84 116 84 116 105 214 c 0,25,26
 125 310 125 310 215 406.5 c 128,-1,27
 305 503 305 503 519 606 c 1,28,29
 500 690 500 690 497.5 743 c 128,-1,30
 495 796 495 796 505 845 c 0,31,32
 534 982 534 982 651 1054 c 0,33,34
 741 1110 741 1110 841 1110 c 0,35,36
 936 1110 936 1110 984 1053.5 c 128,-1,37
 1032 997 1032 997 1015 914 c 0,38,39
 997 830 997 830 925.5 766 c 128,-1,40
 854 702 854 702 691 626 c 1,41,42
 753 445 753 445 832 294 c 1,43,44
 1008 462 1008 462 1032 578 c 0,45,46
 1040 614 1040 614 1022 643 c 0,47,48
 1010 665 1010 665 978 669 c 1,49,-1
 984 698 l 1,0,-1
674 678 m 1,50,51
 784 725 784 725 845.5 785 c 128,-1,52
 907 845 907 845 923 918 c 0,53,54
 935 976 935 976 907.5 1013.5 c 128,-1,55
 880 1051 880 1051 827 1051 c 0,56,57
 757 1051 757 1051 711 1002.5 c 128,-1,58
 665 954 665 954 656 908 c 0,59,60
 647 869 647 869 650.5 820.5 c 128,-1,61
 654 772 654 772 674 678 c 1,50,51
691 178 m 1,62,63
 617 322 617 322 590 388 c 128,-1,64
 563 454 563 454 535 553 c 1,65,66
 427 498 427 498 365 431.5 c 128,-1,67
 303 365 303 365 287 287 c 0,68,69
 268 202 268 202 309.5 137 c 128,-1,70
 351 72 351 72 445 72 c 0,71,72
 495 72 495 72 546 92 c 128,-1,73
 597 112 597 112 691 178 c 1,62,63
EndSplineSet
EndChar

StartChar: quotesingle
Encoding: 39 39 6
Width: 384
Flags: W
LayerCount: 2
Fore
SplineSet
142 1325 m 1,0,-1
 243 1325 l 1,1,-1
 221 1003 l 1,2,-1
 154 1003 l 1,3,-1
 142 1325 l 1,0,-1
EndSplineSet
EndChar

StartChar: asterisk
Encoding: 42 42 7
Width: 774
Flags: W
LayerCount: 2
Fore
SplineSet
430 713 m 1,0,-1
 430 569 l 2,1,2
 430 555 430 555 422 545 c 128,-1,3
 414 535 414 535 399 535 c 2,4,-1
 348 535 l 2,5,6
 340 535 340 535 329.5 545 c 128,-1,7
 319 555 319 555 319 569 c 2,8,-1
 319 713 l 1,9,-1
 221 612 l 1,10,11
 193 594 193 594 164 612 c 1,12,-1
 133 645 l 2,13,14
 115 668 115 668 139 694 c 2,15,-1
 240 797 l 1,16,-1
 96 797 l 2,17,18
 82 797 82 797 69.5 806 c 128,-1,19
 57 815 57 815 57 831 c 2,20,-1
 57 881 l 2,21,22
 57 891 57 891 69.5 900 c 128,-1,23
 82 909 82 909 96 909 c 2,24,-1
 231 909 l 1,25,-1
 133 1010 l 2,26,27
 119 1022 119 1022 118 1036.5 c 128,-1,28
 117 1051 117 1051 127 1065 c 1,29,-1
 164 1096 l 2,30,31
 174 1106 174 1106 186.5 1105 c 128,-1,32
 199 1104 199 1104 211 1090 c 2,33,-1
 319 985 l 1,34,-1
 319 1141 l 2,35,36
 319 1153 319 1153 329.5 1164.5 c 128,-1,37
 340 1176 340 1176 348 1176 c 2,38,-1
 399 1176 l 2,39,40
 414 1176 414 1176 422 1164.5 c 128,-1,41
 430 1153 430 1153 430 1141 c 2,42,-1
 430 991 l 1,43,-1
 537 1096 l 2,44,45
 549 1110 549 1110 561 1111 c 128,-1,46
 573 1112 573 1112 592 1104 c 1,47,-1
 618 1065 l 1,48,49
 629 1057 629 1057 629 1044.5 c 128,-1,50
 629 1032 629 1032 616 1016 c 2,51,-1
 512 909 l 1,52,-1
 668 909 l 2,53,54
 678 909 678 909 690 900 c 128,-1,55
 702 891 702 891 702 881 c 2,56,-1
 702 831 l 2,57,58
 702 815 702 815 690 806 c 128,-1,59
 678 797 678 797 668 797 c 2,60,-1
 504 797 l 1,61,-1
 616 694 l 1,62,63
 635 668 635 668 616 637 c 1,64,-1
 586 606 l 1,65,66
 563 588 563 588 537 612 c 2,67,-1
 430 713 l 1,0,-1
EndSplineSet
EndChar

StartChar: plus
Encoding: 43 43 8
Width: 869
Flags: W
LayerCount: 2
Fore
SplineSet
282 420 m 1,0,-1
 26 420 l 1,1,-1
 5 520 l 1,2,-1
 261 520 l 1,3,-1
 201 801 l 1,4,-1
 311 801 l 1,5,-1
 371 520 l 1,6,-1
 640 520 l 1,7,-1
 661 420 l 1,8,-1
 392 420 l 1,9,-1
 449 151 l 1,10,-1
 339 151 l 1,11,-1
 282 420 l 1,0,-1
EndSplineSet
EndChar

StartChar: hyphen
Encoding: 45 45 9
Width: 889
Flags: W
LayerCount: 2
Fore
SplineSet
22 346 m 1,0,-1
 -1 459 l 1,1,-1
 664 459 l 1,2,-1
 688 346 l 1,3,-1
 22 346 l 1,0,-1
EndSplineSet
EndChar

StartChar: period
Encoding: 46 46 10
Width: 589
Flags: W
LayerCount: 2
Fore
SplineSet
390 87 m 0,0,1
 390 46 390 46 360.5 17 c 128,-1,2
 331 -12 331 -12 290 -12 c 256,3,4
 249 -12 249 -12 220 17.5 c 128,-1,5
 191 47 191 47 191 88 c 256,6,7
 191 129 191 129 220 158 c 128,-1,8
 249 187 249 187 290 187 c 0,9,10
 332 187 332 187 361 158 c 128,-1,11
 390 129 390 129 390 87 c 0,0,1
EndSplineSet
EndChar

StartChar: slash
Encoding: 47 47 11
Width: 868
Flags: W
LayerCount: 2
Fore
SplineSet
681 1188 m 1,0,-1
 240 -171 l 1,1,-1
 126 -171 l 1,2,-1
 567 1188 l 1,3,-1
 681 1188 l 1,0,-1
EndSplineSet
EndChar

StartChar: zero
Encoding: 48 48 12
Width: 819
Flags: W
LayerCount: 2
Fore
SplineSet
172 536 m 0,0,1
 212 722 212 722 296.5 856 c 128,-1,2
 381 990 381 990 488 1055 c 0,3,4
 571 1107 571 1107 648 1107 c 0,5,6
 773 1107 773 1107 845 980 c 0,7,8
 935 822 935 822 878 553 c 0,9,10
 838 364 838 364 755.5 232 c 128,-1,11
 673 100 673 100 575.5 40.5 c 128,-1,12
 478 -19 478 -19 400 -19 c 0,13,14
 245 -19 245 -19 180 164 c 0,15,16
 126 318 126 318 172 536 c 0,0,1
325 516 m 0,17,18
 278 292 278 292 302 150 c 0,19,20
 323 31 323 31 413 31 c 0,21,22
 456 31 456 31 511 70 c 128,-1,23
 566 109 566 109 609 200 c 0,24,25
 675 338 675 338 728 588 c 0,26,27
 768 774 768 774 756 898 c 0,28,29
 747 990 747 990 709 1028 c 0,30,31
 682 1054 682 1054 636 1054 c 0,32,33
 582 1054 582 1054 528 1006 c 0,34,35
 457 939 457 939 406 796.5 c 128,-1,36
 355 654 355 654 325 516 c 0,17,18
EndSplineSet
EndChar

StartChar: one
Encoding: 49 49 13
Width: 819
Flags: W
LayerCount: 2
Fore
SplineSet
399 978 m 1,0,-1
 691 1107 l 1,1,-1
 717 1107 l 1,2,-1
 522 191 l 2,3,4
 503 100 503 100 506 77.5 c 128,-1,5
 509 55 509 55 530.5 43 c 128,-1,6
 552 31 552 31 625 30 c 1,7,-1
 619 0 l 1,8,-1
 211 0 l 1,9,-1
 217 30 l 1,10,11
 294 31 294 31 319 42.5 c 128,-1,12
 344 54 344 54 356.5 74 c 128,-1,13
 369 94 369 94 390 191 c 2,14,-1
 515 777 l 2,15,16
 540 895 540 895 539 929 c 0,17,18
 539 954 539 954 526.5 966 c 128,-1,19
 514 978 514 978 493 978 c 0,20,21
 464 978 464 978 406 954 c 1,22,-1
 399 978 l 1,0,-1
EndSplineSet
EndChar

StartChar: two
Encoding: 50 50 14
Width: 819
Flags: W
LayerCount: 2
Fore
SplineSet
795 209 m 1,0,-1
 675 0 l 1,1,-1
 35 0 l 1,2,-1
 41 30 l 1,3,4
 379 287 379 287 528.5 450.5 c 128,-1,5
 678 614 678 614 707 749 c 0,6,7
 729 852 729 852 680 918.5 c 128,-1,8
 631 985 631 985 543 985 c 0,9,10
 463 985 463 985 389 938 c 128,-1,11
 315 891 315 891 266 801 c 1,12,-1
 236 801 l 1,13,14
 287 949 287 949 387 1028 c 128,-1,15
 487 1107 487 1107 611 1107 c 0,16,17
 743 1107 743 1107 813.5 1022.5 c 128,-1,18
 884 938 884 938 859 822 c 0,19,20
 842 740 842 740 785 658 c 0,21,22
 699 528 699 528 535 383 c 0,23,24
 290 166 290 166 231 121 c 1,25,-1
 514 121 l 2,26,27
 600 121 600 121 636.5 127.5 c 128,-1,28
 673 134 673 134 705 153.5 c 128,-1,29
 737 173 737 173 766 209 c 1,30,-1
 795 209 l 1,0,-1
EndSplineSet
EndChar

StartChar: three
Encoding: 51 51 15
Width: 819
Flags: W
LayerCount: 2
Fore
SplineSet
269 878 m 1,0,1
 340 988 340 988 423 1047.5 c 128,-1,2
 506 1107 506 1107 612 1107 c 0,3,4
 742 1107 742 1107 794 1022 c 0,5,6
 833 959 833 959 818 887 c 0,7,8
 793 769 793 769 617 642 c 1,9,10
 709 603 709 603 744.5 530.5 c 128,-1,11
 780 458 780 458 759 359 c 0,12,13
 729 218 729 218 618 115 c 0,14,15
 472 -19 472 -19 250 -19 c 0,16,17
 141 -19 141 -19 107 8 c 128,-1,18
 73 35 73 35 80 66 c 0,19,20
 85 90 85 90 107.5 107.5 c 128,-1,21
 130 125 130 125 156 125 c 0,22,23
 176 125 176 125 196 118 c 0,24,25
 209 114 209 114 251.5 89 c 128,-1,26
 294 64 294 64 311 59 c 0,27,28
 339 50 339 50 372 50 c 0,29,30
 454 50 454 50 528 113.5 c 128,-1,31
 602 177 602 177 620 263 c 0,32,33
 634 326 634 326 619 386 c 0,34,35
 607 431 607 431 587 454 c 0,36,37
 560 486 560 486 505.5 512 c 128,-1,38
 451 538 451 538 388 538 c 2,39,-1
 363 538 l 1,40,-1
 368 562 l 1,41,42
 433 570 433 570 504.5 608 c 128,-1,43
 576 646 576 646 616 698.5 c 128,-1,44
 656 751 656 751 670 814 c 0,45,46
 687 897 687 897 646.5 947.5 c 128,-1,47
 606 998 606 998 529 998 c 0,48,49
 405 998 405 998 294 866 c 1,50,-1
 269 878 l 1,0,1
EndSplineSet
EndChar

StartChar: four
Encoding: 52 52 16
Width: 819
Flags: W
LayerCount: 2
Fore
SplineSet
847 400 m 1,0,-1
 822 286 l 1,1,-1
 677 286 l 1,2,-1
 617 0 l 1,3,-1
 485 0 l 1,4,-1
 545 286 l 1,5,-1
 86 286 l 1,6,-1
 108 389 l 1,7,-1
 764 1107 l 1,8,-1
 852 1107 l 1,9,-1
 702 400 l 1,10,-1
 847 400 l 1,0,-1
570 400 m 1,11,-1
 684 938 l 1,12,-1
 189 400 l 1,13,-1
 570 400 l 1,11,-1
EndSplineSet
EndChar

StartChar: five
Encoding: 53 53 17
Width: 819
Flags: W
LayerCount: 2
Fore
SplineSet
941 1085 m 1,0,-1
 850 949 l 1,1,-1
 523 949 l 1,2,-1
 421 803 l 1,3,4
 627 772 627 772 724 646 c 0,5,6
 808 537 808 537 776 390 c 0,7,8
 758 304 758 304 707.5 231 c 128,-1,9
 657 158 657 158 593 107 c 128,-1,10
 529 56 529 56 459 25 c 0,11,12
 357 -19 357 -19 260 -19 c 0,13,14
 162 -19 162 -19 124.5 14 c 128,-1,15
 87 47 87 47 96 87 c 0,16,17
 101 110 101 110 123 127 c 128,-1,18
 145 144 145 144 173 144 c 0,19,20
 194 144 194 144 208 137.5 c 128,-1,21
 222 131 222 131 255 105 c 0,22,23
 306 63 306 63 367 63 c 0,24,25
 461 63 461 63 547 134 c 128,-1,26
 633 205 633 205 655 306 c 0,27,28
 676 405 676 405 630.5 490 c 128,-1,29
 585 575 585 575 484 622 c 0,30,31
 404 658 404 658 254 663 c 1,32,-1
 552 1085 l 1,33,-1
 941 1085 l 1,0,-1
EndSplineSet
EndChar

StartChar: six
Encoding: 54 54 18
Width: 819
Flags: W
LayerCount: 2
Fore
SplineSet
969 1107 m 1,0,-1
 963 1078 l 1,1,2
 855 1067 855 1067 781.5 1035.5 c 128,-1,3
 708 1004 708 1004 629 939 c 128,-1,4
 550 874 550 874 490 794.5 c 128,-1,5
 430 715 430 715 378 606 c 1,6,7
 511 685 511 685 627 685 c 0,8,9
 738 685 738 685 800.5 595.5 c 128,-1,10
 863 506 863 506 833 365 c 0,11,12
 804 229 804 229 698 117 c 0,13,14
 569 -19 569 -19 406 -19 c 0,15,16
 295 -19 295 -19 233 54 c 0,17,18
 112 198 112 198 160 426 c 0,19,20
 191 571 191 571 277.5 702.5 c 128,-1,21
 364 834 364 834 494 935.5 c 128,-1,22
 624 1037 624 1037 730.5 1072 c 128,-1,23
 837 1107 837 1107 923 1107 c 2,24,-1
 969 1107 l 1,0,-1
353 547 m 1,25,26
 315 439 315 439 301 373 c 0,27,28
 284 296 284 296 293.5 206 c 128,-1,29
 303 116 303 116 348 63 c 0,30,31
 381 26 381 26 439 26 c 0,32,33
 509 26 509 26 578 91.5 c 128,-1,34
 647 157 647 157 673 278 c 0,35,36
 702 415 702 415 668.5 515 c 128,-1,37
 635 615 635 615 535 615 c 0,38,39
 504 615 504 615 467 602.5 c 128,-1,40
 430 590 430 590 353 547 c 1,25,26
EndSplineSet
EndChar

StartChar: seven
Encoding: 55 55 19
Width: 819
Flags: W
LayerCount: 2
Fore
SplineSet
395 1085 m 1,0,-1
 976 1085 l 1,1,-1
 970 1054 l 1,2,-1
 380 -22 l 1,3,-1
 290 -22 l 1,4,-1
 821 954 l 1,5,-1
 523 954 l 2,6,7
 432 954 432 954 390 933 c 0,8,9
 315 896 315 896 258 819 c 1,10,-1
 236 828 l 1,11,-1
 395 1085 l 1,0,-1
EndSplineSet
EndChar

StartChar: eight
Encoding: 56 56 20
Width: 819
Flags: W
LayerCount: 2
Fore
SplineSet
430 546 m 1,0,1
 324 652 324 652 300 716 c 128,-1,2
 276 780 276 780 291 849 c 0,3,4
 313 954 313 954 411 1030.5 c 128,-1,5
 509 1107 509 1107 645 1107 c 0,6,7
 776 1107 776 1107 841 1036 c 128,-1,8
 906 965 906 965 886 874 c 0,9,10
 873 813 873 813 816 749.5 c 128,-1,11
 759 686 759 686 605 601 c 1,12,13
 722 492 722 492 755 430 c 0,14,15
 798 348 798 348 779 258 c 0,16,17
 755 143 755 143 650 62 c 128,-1,18
 545 -19 545 -19 404 -19 c 0,19,20
 249 -19 249 -19 184 78 c 0,21,22
 131 155 131 155 151 247 c 0,23,24
 166 319 166 319 229.5 390 c 128,-1,25
 293 461 293 461 430 546 c 1,0,1
574 632 m 1,26,27
 688 718 688 718 724 768 c 128,-1,28
 760 818 760 818 774 882 c 0,29,30
 792 966 792 966 755 1013.5 c 128,-1,31
 718 1061 718 1061 636 1061 c 0,32,33
 555 1061 555 1061 493.5 1013.5 c 128,-1,34
 432 966 432 966 418 903 c 0,35,36
 410 862 410 862 422.5 820 c 128,-1,37
 435 778 435 778 466 741 c 1,38,-1
 574 632 l 1,26,27
461 516 m 1,39,40
 383 460 383 460 337 394 c 128,-1,41
 291 328 291 328 275 251 c 0,42,43
 253 148 253 148 296 86 c 128,-1,44
 339 24 339 24 427 24 c 0,45,46
 513 24 513 24 575 73 c 128,-1,47
 637 122 637 122 652 191 c 0,48,49
 664 249 664 249 644 294 c 0,50,51
 605 379 605 379 461 516 c 1,39,40
EndSplineSet
EndChar

StartChar: nine
Encoding: 57 57 21
Width: 819
Flags: W
LayerCount: 2
Fore
SplineSet
81 -22 m 1,0,-1
 87 7 l 1,1,2
 191 9 191 9 291 55.5 c 128,-1,3
 391 102 391 102 499.5 219 c 128,-1,4
 608 336 608 336 671 476 c 1,5,6
 527 395 527 395 425 395 c 0,7,8
 311 395 311 395 248.5 483.5 c 128,-1,9
 186 572 186 572 217 718 c 0,10,11
 248 861 248 861 352 972 c 0,12,13
 480 1107 480 1107 638 1107 c 0,14,15
 772 1107 772 1107 843 997 c 0,16,17
 931 860 931 860 889 659 c 0,18,19
 850 478 850 478 728 322 c 128,-1,20
 606 166 606 166 426 62 c 0,21,22
 279 -22 279 -22 127 -22 c 2,23,-1
 81 -22 l 1,0,-1
695 535 m 1,24,25
 732 639 732 639 746 702 c 0,26,27
 762 779 762 779 754.5 869 c 128,-1,28
 747 959 747 959 709 1007 c 128,-1,29
 671 1055 671 1055 610 1055 c 0,30,31
 538 1055 538 1055 471 991 c 128,-1,32
 404 927 404 927 377 801 c 0,33,34
 341 632 341 632 392 537 c 0,35,36
 429 468 429 468 505 468 c 0,37,38
 542 468 542 468 596 485.5 c 128,-1,39
 650 503 650 503 695 535 c 1,24,25
EndSplineSet
EndChar

StartChar: less
Encoding: 60 60 22
Width: 1117
Flags: W
LayerCount: 2
Fore
SplineSet
955 58 m 1,0,-1
 150 444 l 1,1,-1
 150 534 l 1,2,-1
 955 918 l 1,3,-1
 955 784 l 1,4,-1
 331 489 l 1,5,-1
 955 192 l 1,6,-1
 955 58 l 1,0,-1
EndSplineSet
EndChar

StartChar: equal
Encoding: 61 61 23
Width: 909
Flags: W
LayerCount: 2
Fore
SplineSet
3 530 m 1,0,-1
 -17 630 l 1,1,-1
 617 630 l 1,2,-1
 638 530 l 1,3,-1
 3 530 l 1,0,-1
50 310 m 1,4,-1
 28 410 l 1,5,-1
 663 410 l 1,6,-1
 685 310 l 1,7,-1
 50 310 l 1,4,-1
EndSplineSet
EndChar

StartChar: greater
Encoding: 62 62 24
Width: 1117
Flags: W
LayerCount: 2
Fore
SplineSet
966 444 m 1,0,-1
 160 58 l 1,1,-1
 160 192 l 1,2,-1
 786 489 l 1,3,-1
 160 784 l 1,4,-1
 160 918 l 1,5,-1
 966 534 l 1,6,-1
 966 444 l 1,0,-1
EndSplineSet
EndChar

StartChar: question
Encoding: 63 63 25
Width: 727
Flags: W
LayerCount: 2
Fore
SplineSet
417 256 m 1,0,-1
 384 256 l 1,1,2
 411 357 411 357 444.5 423 c 128,-1,3
 478 489 478 489 565 606 c 0,4,5
 633 697 633 697 657.5 745.5 c 128,-1,6
 682 794 682 794 693 843 c 0,7,8
 714 945 714 945 673 1005 c 128,-1,9
 632 1065 632 1065 553 1065 c 0,10,11
 484 1065 484 1065 437 1032 c 128,-1,12
 390 999 390 999 382 961 c 0,13,14
 375 931 375 931 390 888 c 128,-1,15
 405 845 405 845 400 822 c 0,16,17
 394 794 394 794 371.5 774 c 128,-1,18
 349 754 349 754 322 754 c 0,19,20
 289 754 289 754 268.5 787.5 c 128,-1,21
 248 821 248 821 261 880 c 0,22,23
 280 970 280 970 372 1040 c 128,-1,24
 464 1110 464 1110 597 1110 c 0,25,26
 761 1110 761 1110 819 1014 c 0,27,28
 862 943 862 943 844 858 c 0,29,30
 831 799 831 799 792 737.5 c 128,-1,31
 753 676 753 676 663 593 c 0,32,33
 519 462 519 462 481 407 c 128,-1,34
 443 352 443 352 417 256 c 1,0,-1
385 157 m 0,35,36
 423 157 423 157 443.5 131 c 128,-1,37
 464 105 464 105 456 67 c 0,38,39
 448 30 448 30 416 4 c 128,-1,40
 384 -22 384 -22 347 -22 c 256,41,42
 310 -22 310 -22 289.5 4 c 128,-1,43
 269 30 269 30 277 67 c 0,44,45
 285 105 285 105 316.5 131 c 128,-1,46
 348 157 348 157 385 157 c 0,35,36
EndSplineSet
EndChar

StartChar: at
Encoding: 64 64 26
Width: 1509
Flags: W
LayerCount: 2
Fore
SplineSet
1288 766 m 1,0,-1
 1128 447 l 2,1,2
 1037 268 1037 268 1015.5 220 c 128,-1,3
 994 172 994 172 988 143 c 0,4,5
 983 118 983 118 996.5 100 c 128,-1,6
 1010 82 1010 82 1035 82 c 0,7,8
 1094 82 1094 82 1188.5 140.5 c 128,-1,9
 1283 199 1283 199 1369.5 330.5 c 128,-1,10
 1456 462 1456 462 1486 604 c 0,11,12
 1515 741 1515 741 1473.5 857 c 128,-1,13
 1432 973 1432 973 1325 1035 c 128,-1,14
 1218 1097 1218 1097 1072 1097 c 0,15,16
 887 1097 887 1097 708 999 c 128,-1,17
 529 901 529 901 397.5 717 c 128,-1,18
 266 533 266 533 223 334 c 0,19,20
 184 150 184 150 233.5 0 c 128,-1,21
 283 -150 283 -150 414 -227.5 c 128,-1,22
 545 -305 545 -305 714 -305 c 0,23,24
 925 -305 925 -305 1119 -192 c 128,-1,25
 1313 -79 1313 -79 1451 138 c 1,26,-1
 1498 138 l 1,27,28
 1379 -82 1379 -82 1160.5 -218 c 128,-1,29
 942 -354 942 -354 699 -354 c 0,30,31
 509 -354 509 -354 365 -264 c 128,-1,32
 221 -174 221 -174 166 -8.5 c 128,-1,33
 111 157 111 157 153 355 c 0,34,35
 198 566 198 566 336 749 c 128,-1,36
 474 932 474 932 674.5 1035 c 128,-1,37
 875 1138 875 1138 1075 1138 c 0,38,39
 1241 1138 1241 1138 1359.5 1069.5 c 128,-1,40
 1478 1001 1478 1001 1520 869.5 c 128,-1,41
 1562 738 1562 738 1531 590 c 0,42,43
 1500 443 1500 443 1404 299.5 c 128,-1,44
 1308 156 1308 156 1193.5 90.5 c 128,-1,45
 1079 25 1079 25 969 25 c 0,46,47
 908 25 908 25 883.5 53.5 c 128,-1,48
 859 82 859 82 870 134 c 0,49,50
 880 179 880 179 909 252 c 1,51,52
 761 109 761 109 680.5 66.5 c 128,-1,53
 600 24 600 24 546 24 c 0,54,55
 489 24 489 24 455.5 75 c 128,-1,56
 422 126 422 126 440 210 c 0,57,58
 465 326 465 326 571 470 c 128,-1,59
 677 614 677 614 821 705 c 0,60,61
 927 771 927 771 1000 771 c 0,62,63
 1053 771 1053 771 1083.5 743.5 c 128,-1,64
 1114 716 1114 716 1114 661 c 1,65,-1
 1160 749 l 1,66,-1
 1288 766 l 1,0,-1
1002 734 m 0,67,68
 942 734 942 734 866 670 c 0,69,70
 756 578 756 578 659 420 c 0,71,72
 586 305 586 305 571 234 c 0,73,74
 561 184 561 184 582.5 152.5 c 128,-1,75
 604 121 604 121 639 121 c 0,76,77
 686 121 686 121 744.5 156 c 128,-1,78
 803 191 803 191 874.5 264.5 c 128,-1,79
 946 338 946 338 988 411 c 0,80,81
 1060 538 1060 538 1077 618 c 0,82,83
 1088 671 1088 671 1065.5 702.5 c 128,-1,84
 1043 734 1043 734 1002 734 c 0,67,68
EndSplineSet
EndChar

StartChar: A
Encoding: 65 65 27
Width: 1183
Flags: W
LayerCount: 2
Fore
SplineSet
827 363 m 1,0,-1
 407 363 l 1,1,-1
 296 192 l 2,2,3
 256 129 256 129 249 98 c 0,4,5
 244 73 244 73 263.5 54 c 128,-1,6
 283 35 283 35 360 30 c 1,7,-1
 354 0 l 1,8,-1
 13 0 l 1,9,-1
 19 30 l 1,10,11
 89 42 89 42 113 61 c 0,12,13
 163 99 163 99 237 217 c 2,14,-1
 808 1110 l 1,15,-1
 836 1110 l 1,16,-1
 1021 207 l 2,17,18
 1044 98 1044 98 1074.5 66 c 128,-1,19
 1105 34 1105 34 1171 30 c 1,20,-1
 1165 0 l 1,21,-1
 737 0 l 1,22,-1
 743 30 l 1,23,24
 809 33 809 33 835 51.5 c 128,-1,25
 861 70 861 70 867 96 c 0,26,27
 874 131 874 131 858 207 c 2,28,-1
 827 363 l 1,0,-1
816 422 m 1,29,-1
 726 861 l 1,30,-1
 443 422 l 1,31,-1
 816 422 l 1,29,-1
EndSplineSet
EndChar

StartChar: B
Encoding: 66 66 28
Width: 1093
Flags: W
LayerCount: 2
Fore
SplineSet
874 554 m 1,0,1
 982 530 982 530 1027 477 c 0,2,3
 1088 403 1088 403 1066 297 c 0,4,5
 1048 216 1048 216 981.5 142 c 128,-1,6
 915 68 915 68 818.5 34 c 128,-1,7
 722 0 722 0 539 0 c 2,8,-1
 27 0 l 1,9,-1
 33 30 l 1,10,-1
 74 30 l 2,11,12
 142 30 142 30 181 73 c 0,13,14
 205 101 205 101 224 192 c 2,15,-1
 373 893 l 2,16,17
 395 994 395 994 377 1020 c 0,18,19
 354 1055 354 1055 292 1055 c 2,20,-1
 251 1055 l 1,21,-1
 257 1085 l 1,22,-1
 726 1085 l 2,23,24
 857 1085 857 1085 932 1066 c 0,25,26
 1046 1037 1046 1037 1094 963.5 c 128,-1,27
 1142 890 1142 890 1121 795 c 0,28,29
 1104 714 1104 714 1041 649.5 c 128,-1,30
 978 585 978 585 874 554 c 1,0,1
464 597 m 1,31,32
 492 591 492 591 529.5 588.5 c 128,-1,33
 567 586 567 586 613 586 c 0,34,35
 730 586 730 586 794 611 c 128,-1,36
 858 636 858 636 900.5 688 c 128,-1,37
 943 740 943 740 956 802 c 0,38,39
 976 897 976 897 912.5 964 c 128,-1,40
 849 1031 849 1031 701 1031 c 0,41,42
 621 1031 621 1031 553 1014 c 1,43,-1
 464 597 l 1,31,32
354 78 m 1,44,45
 442 57 442 57 533 57 c 0,46,47
 678 57 678 57 767.5 122 c 128,-1,48
 857 187 857 187 878 283 c 0,49,50
 891 346 891 346 869 404.5 c 128,-1,51
 847 463 847 463 776.5 496.5 c 128,-1,52
 706 530 706 530 591 530 c 0,53,54
 542 530 542 530 506.5 528.5 c 128,-1,55
 471 527 471 527 449 523 c 1,56,-1
 354 78 l 1,44,45
EndSplineSet
EndChar

StartChar: C
Encoding: 67 67 29
Width: 1093
Flags: W
LayerCount: 2
Fore
SplineSet
1221 1110 m 1,0,-1
 1168 741 l 1,1,-1
 1143 741 l 1,2,3
 1129 906 1129 906 1052.5 979 c 128,-1,4
 976 1052 976 1052 847 1052 c 0,5,6
 739 1052 739 1052 640.5 997 c 128,-1,7
 542 942 542 942 466.5 822 c 128,-1,8
 391 702 391 702 353 524 c 0,9,10
 322 377 322 377 346 269 c 128,-1,11
 370 161 370 161 452.5 103.5 c 128,-1,12
 535 46 535 46 656 46 c 0,13,14
 762 46 762 46 852 91 c 128,-1,15
 942 136 942 136 1068 270 c 1,16,-1
 1089 254 l 1,17,18
 977 110 977 110 854 42.5 c 128,-1,19
 731 -25 731 -25 581 -25 c 0,20,21
 312 -25 312 -25 207 175 c 0,22,23
 127 324 127 324 170 526 c 0,24,25
 205 688 205 688 307 824 c 128,-1,26
 409 960 409 960 552 1035 c 128,-1,27
 695 1110 695 1110 846 1110 c 0,28,29
 964 1110 964 1110 1066 1052 c 0,30,31
 1096 1034 1096 1034 1110 1034 c 0,32,33
 1132 1034 1132 1034 1152 1050 c 0,34,35
 1177 1071 1177 1071 1193 1110 c 1,36,-1
 1221 1110 l 1,0,-1
EndSplineSet
EndChar

StartChar: D
Encoding: 68 68 30
Width: 1183
Flags: W
LayerCount: 2
Fore
SplineSet
28 0 m 1,0,-1
 34 30 l 1,1,-1
 75 30 l 2,2,3
 144 30 144 30 181 74 c 0,4,5
 205 100 205 100 224 192 c 2,6,-1
 373 893 l 2,7,8
 395 994 395 994 378 1020 c 0,9,10
 354 1055 354 1055 293 1055 c 2,11,-1
 252 1055 l 1,12,-1
 258 1085 l 1,13,-1
 700 1085 l 2,14,15
 943 1085 943 1085 1058 1029.5 c 128,-1,16
 1173 974 1173 974 1223 845.5 c 128,-1,17
 1273 717 1273 717 1237 548 c 0,18,19
 1189 322 1189 322 1019 170 c 0,20,21
 829 0 829 0 513 0 c 2,22,-1
 28 0 l 1,0,-1
354 78 m 1,23,24
 450 56 450 56 519 56 c 0,25,26
 705 56 705 56 855 186.5 c 128,-1,27
 1005 317 1005 317 1052 540 c 0,28,29
 1100 765 1100 765 1005.5 894.5 c 128,-1,30
 911 1024 911 1024 719 1024 c 0,31,32
 647 1024 647 1024 550 1001 c 1,33,-1
 354 78 l 1,23,24
EndSplineSet
EndChar

StartChar: E
Encoding: 69 69 31
Width: 1001
Flags: W
LayerCount: 2
Fore
SplineSet
560 1026 m 1,0,-1
 468 597 l 1,1,-1
 707 597 l 2,2,3
 800 597 800 597 837 625 c 0,4,5
 886 662 886 662 911 754 c 1,6,-1
 941 754 l 1,7,-1
 861 377 l 1,8,-1
 831 377 l 1,9,10
 836 456 836 456 830 478 c 0,11,12
 821 506 821 506 792 522 c 128,-1,13
 763 538 763 538 695 538 c 2,14,-1
 456 538 l 1,15,-1
 380 181 l 2,16,17
 365 109 365 109 368 93.5 c 128,-1,18
 371 78 371 78 385 68.5 c 128,-1,19
 399 59 399 59 444 59 c 2,20,-1
 628 59 l 2,21,22
 720 59 720 59 764.5 72 c 128,-1,23
 809 85 809 85 855 122 c 0,24,25
 915 172 915 172 988 272 c 1,26,-1
 1020 272 l 1,27,-1
 870 0 l 1,28,-1
 34 0 l 1,29,-1
 40 30 l 1,30,-1
 78 30 l 2,31,32
 116 30 116 30 155 48 c 0,33,34
 182 61 182 61 197 86.5 c 128,-1,35
 212 112 212 112 229 191 c 2,36,-1
 379 896 l 2,37,38
 401 999 401 999 385 1023 c 0,39,40
 363 1055 363 1055 296 1055 c 2,41,-1
 258 1055 l 1,42,-1
 264 1085 l 1,43,-1
 1100 1085 l 1,44,-1
 1062 847 l 1,45,-1
 1030 847 l 1,46,47
 1032 933 1032 933 1018 965 c 128,-1,48
 1004 997 1004 997 968 1014 c 0,49,50
 939 1026 939 1026 858 1026 c 2,51,-1
 560 1026 l 1,0,-1
EndSplineSet
EndChar

StartChar: F
Encoding: 70 70 32
Width: 911
Flags: W
LayerCount: 2
Fore
SplineSet
553 1026 m 1,0,-1
 462 599 l 1,1,-1
 660 599 l 2,2,3
 728 599 728 599 766 629 c 128,-1,4
 804 659 804 659 832 748 c 1,5,-1
 862 748 l 1,6,-1
 784 381 l 1,7,-1
 754 381 l 1,8,9
 768 444 768 444 758 473.5 c 128,-1,10
 748 503 748 503 724 518 c 128,-1,11
 700 533 700 533 646 533 c 2,12,-1
 448 533 l 1,13,-1
 375 192 l 2,14,15
 358 110 358 110 363 83 c 0,16,17
 367 63 367 63 389 49 c 0,18,19
 420 30 420 30 459 30 c 2,20,-1
 498 30 l 1,21,-1
 492 0 l 1,22,-1
 26 0 l 1,23,-1
 32 30 l 1,24,-1
 71 30 l 2,25,26
 138 30 138 30 176 69 c 0,27,28
 201 94 201 94 222 192 c 2,29,-1
 371 893 l 2,30,31
 389 975 389 975 383 1002 c 0,32,33
 380 1022 380 1022 358 1036 c 0,34,35
 328 1055 328 1055 289 1055 c 2,36,-1
 250 1055 l 1,37,-1
 256 1085 l 1,38,-1
 1064 1085 l 1,39,-1
 1023 846 l 1,40,-1
 995 846 l 1,41,42
 990 922 990 922 970.5 958 c 128,-1,43
 951 994 951 994 914 1010 c 128,-1,44
 877 1026 877 1026 792 1026 c 2,45,-1
 553 1026 l 1,0,-1
EndSplineSet
EndChar

StartChar: G
Encoding: 71 71 33
Width: 1183
Flags: W
LayerCount: 2
Fore
SplineSet
1241 1110 m 1,0,-1
 1197 767 l 1,1,-1
 1169 767 l 1,2,3
 1153 895 1153 895 1100 960 c 0,4,5
 1023 1054 1023 1054 871 1054 c 0,6,7
 664 1054 664 1054 521 890 c 0,8,9
 401 751 401 751 361 560 c 0,10,11
 328 405 328 405 360.5 277 c 128,-1,12
 393 149 393 149 477.5 89.5 c 128,-1,13
 562 30 562 30 664 30 c 0,14,15
 724 30 724 30 783 45 c 128,-1,16
 842 60 842 60 901 90 c 1,17,-1
 967 403 l 2,18,19
 985 485 985 485 978 510 c 128,-1,20
 971 535 971 535 948 548.5 c 128,-1,21
 925 562 925 562 859 562 c 1,22,-1
 865 592 l 1,23,-1
 1285 592 l 1,24,-1
 1279 562 l 1,25,-1
 1259 562 l 2,26,27
 1197 562 1197 562 1164 520 c 0,28,29
 1142 490 1142 490 1123 403 c 2,30,-1
 1053 71 l 1,31,32
 950 22 950 22 855.5 -1.5 c 128,-1,33
 761 -25 761 -25 652 -25 c 0,34,35
 337 -25 337 -25 217 177 c 0,36,37
 127 328 127 328 169 526 c 0,38,39
 200 669 200 669 296 800 c 0,40,41
 411 956 411 956 571 1040 c 0,42,43
 705 1110 705 1110 867 1110 c 0,44,45
 926 1110 926 1110 972.5 1100 c 128,-1,46
 1019 1090 1019 1090 1101 1058 c 0,47,48
 1143 1041 1143 1041 1158 1041 c 256,49,50
 1173 1041 1173 1041 1187 1055 c 128,-1,51
 1201 1069 1201 1069 1211 1110 c 1,52,-1
 1241 1110 l 1,0,-1
EndSplineSet
EndChar

StartChar: H
Encoding: 72 72 34
Width: 1183
Flags: W
LayerCount: 2
Fore
SplineSet
460 582 m 1,0,-1
 964 582 l 1,1,-1
 1030 892 l 2,2,3
 1048 976 1048 976 1042 1002 c 0,4,5
 1039 1022 1039 1022 1017 1036 c 0,6,7
 986 1055 986 1055 948 1055 c 2,8,-1
 910 1055 l 1,9,-1
 916 1085 l 1,10,-1
 1380 1085 l 1,11,-1
 1374 1055 l 1,12,-1
 1335 1055 l 2,13,14
 1298 1055 1298 1055 1258 1037 c 0,15,16
 1230 1023 1230 1023 1215 998 c 0,17,18
 1200 971 1200 971 1183 892 c 2,19,-1
 1034 192 l 2,20,21
 1017 109 1017 109 1022 83 c 0,22,23
 1027 62 1027 62 1048 49 c 0,24,25
 1078 30 1078 30 1117 30 c 2,26,-1
 1156 30 l 1,27,-1
 1150 0 l 1,28,-1
 686 0 l 1,29,-1
 692 30 l 1,30,-1
 730 30 l 2,31,32
 797 30 797 30 835 69 c 0,33,34
 860 94 860 94 881 192 c 2,35,-1
 951 522 l 1,36,-1
 447 522 l 1,37,-1
 377 192 l 2,38,39
 360 109 360 109 364 83 c 0,40,41
 368 63 368 63 391 49 c 0,42,43
 421 30 421 30 460 30 c 2,44,-1
 499 30 l 1,45,-1
 493 0 l 1,46,-1
 28 0 l 1,47,-1
 34 30 l 1,48,-1
 72 30 l 2,49,50
 140 30 140 30 178 69 c 0,51,52
 202 94 202 94 223 192 c 2,53,-1
 372 892 l 2,54,55
 390 976 390 976 385 1002 c 0,56,57
 381 1022 381 1022 360 1036 c 0,58,59
 329 1055 329 1055 290 1055 c 2,60,-1
 252 1055 l 1,61,-1
 258 1085 l 1,62,-1
 723 1085 l 1,63,-1
 717 1055 l 1,64,-1
 678 1055 l 2,65,66
 640 1055 640 1055 601 1037 c 0,67,68
 573 1024 573 1024 558 998 c 256,69,70
 543 972 543 972 526 892 c 2,71,-1
 460 582 l 1,0,-1
EndSplineSet
EndChar

StartChar: I
Encoding: 73 73 35
Width: 546
Flags: W
LayerCount: 2
Fore
SplineSet
512 30 m 1,0,-1
 506 0 l 1,1,-1
 41 0 l 1,2,-1
 47 30 l 1,3,-1
 85 30 l 2,4,5
 152 30 152 30 191 69 c 0,6,7
 215 94 215 94 236 192 c 2,8,-1
 385 893 l 2,9,10
 403 975 403 975 398 1002 c 0,11,12
 395 1022 395 1022 373 1036 c 0,13,14
 342 1055 342 1055 303 1055 c 2,15,-1
 265 1055 l 1,16,-1
 271 1085 l 1,17,-1
 736 1085 l 1,18,-1
 730 1055 l 1,19,-1
 690 1055 l 2,20,21
 624 1055 624 1055 585 1016 c 0,22,23
 560 990 560 990 539 893 c 2,24,-1
 390 192 l 2,25,26
 373 110 373 110 377 83 c 0,27,28
 381 63 381 63 404 49 c 0,29,30
 434 30 434 30 472 30 c 2,31,-1
 512 30 l 1,0,-1
EndSplineSet
EndChar

StartChar: J
Encoding: 74 74 36
Width: 638
Flags: W
LayerCount: 2
Fore
SplineSet
387 1055 m 1,0,-1
 393 1085 l 1,1,-1
 858 1085 l 1,2,-1
 852 1055 l 1,3,-1
 813 1055 l 2,4,5
 746 1055 746 1055 707 1016 c 0,6,7
 683 990 683 990 662 893 c 2,8,-1
 549 362 l 2,9,10
 524 240 524 240 480.5 164 c 128,-1,11
 437 88 437 88 359.5 31.5 c 128,-1,12
 282 -25 282 -25 189 -25 c 0,13,14
 114 -25 114 -25 79 12.5 c 128,-1,15
 44 50 44 50 54 98 c 0,16,17
 63 137 63 137 87 157 c 0,18,19
 118 182 118 182 153 182 c 0,20,21
 179 182 179 182 196 165 c 128,-1,22
 213 148 213 148 228 75 c 0,23,24
 237 32 237 32 266 32 c 0,25,26
 288 32 288 32 312.5 58.5 c 128,-1,27
 337 85 337 85 351 152 c 2,28,-1
 508 893 l 2,29,30
 526 975 526 975 521 1002 c 0,31,32
 518 1022 518 1022 495 1036 c 0,33,34
 465 1055 465 1055 426 1055 c 2,35,-1
 387 1055 l 1,0,-1
EndSplineSet
EndChar

StartChar: K
Encoding: 75 75 37
Width: 1183
Flags: W
LayerCount: 2
Fore
SplineSet
617 602 m 1,0,-1
 933 204 l 2,1,2
 1010 106 1010 106 1072 70 c 128,-1,3
 1134 34 1134 34 1203 30 c 1,4,-1
 1197 0 l 1,5,-1
 681 0 l 1,6,-1
 687 30 l 1,7,8
 733 30 733 30 756.5 45.5 c 128,-1,9
 780 61 780 61 785 80 c 0,10,11
 789 99 789 99 784.5 114.5 c 128,-1,12
 780 130 780 130 746 171 c 2,13,-1
 451 542 l 1,14,-1
 376 192 l 2,15,16
 359 110 359 110 363 83 c 0,17,18
 367 63 367 63 390 49 c 0,19,20
 420 30 420 30 459 30 c 2,21,-1
 496 30 l 1,22,-1
 490 0 l 1,23,-1
 27 0 l 1,24,-1
 33 30 l 1,25,-1
 72 30 l 2,26,27
 139 30 139 30 177 69 c 0,28,29
 201 94 201 94 222 192 c 2,30,-1
 371 893 l 2,31,32
 389 975 389 975 384 1002 c 0,33,34
 381 1022 381 1022 359 1036 c 0,35,36
 328 1055 328 1055 290 1055 c 2,37,-1
 251 1055 l 1,38,-1
 257 1085 l 1,39,-1
 720 1085 l 1,40,-1
 714 1055 l 1,41,-1
 677 1055 l 2,42,43
 639 1055 639 1055 600 1037 c 0,44,45
 572 1024 572 1024 557 998.5 c 128,-1,46
 542 973 542 973 525 893 c 2,47,-1
 455 561 l 1,48,49
 474 576 474 576 586 662 c 0,50,51
 870 880 870 880 935 953 c 0,52,53
 963 985 963 985 968 1009 c 0,54,55
 972 1027 972 1027 958.5 1041 c 128,-1,56
 945 1055 945 1055 905 1055 c 2,57,-1
 880 1055 l 1,58,-1
 886 1085 l 1,59,-1
 1284 1085 l 1,60,-1
 1278 1055 l 1,61,62
 1243 1054 1243 1054 1212.5 1045.5 c 128,-1,63
 1182 1037 1182 1037 1134.5 1011.5 c 128,-1,64
 1087 986 1087 986 1015 930 c 0,65,66
 994 914 994 914 817 766 c 2,67,-1
 617 602 l 1,0,-1
EndSplineSet
EndChar

StartChar: L
Encoding: 76 76 38
Width: 1001
Flags: W
LayerCount: 2
Fore
SplineSet
1002 300 m 1,0,-1
 1028 294 l 1,1,-1
 873 0 l 1,2,-1
 33 0 l 1,3,-1
 39 30 l 1,4,-1
 80 30 l 2,5,6
 148 30 148 30 187 74 c 0,7,8
 210 100 210 100 230 193 c 2,9,-1
 378 893 l 2,10,11
 400 994 400 994 382 1020 c 0,12,13
 359 1055 359 1055 298 1055 c 2,14,-1
 257 1055 l 1,15,-1
 263 1085 l 1,16,-1
 754 1085 l 1,17,-1
 748 1055 l 1,18,19
 662 1056 662 1056 623.5 1039 c 128,-1,20
 585 1022 585 1022 566.5 996.5 c 128,-1,21
 548 971 548 971 527 874 c 2,22,-1
 383 193 l 2,23,24
 368 126 368 126 376 102 c 0,25,26
 383 85 383 85 401 77 c 128,-1,27
 419 69 419 69 524 69 c 2,28,-1
 603 69 l 2,29,30
 728 69 728 69 782 87.5 c 128,-1,31
 836 106 836 106 888 152.5 c 128,-1,32
 940 199 940 199 1002 300 c 1,0,-1
EndSplineSet
EndChar

StartChar: M
Encoding: 77 77 39
Width: 1457
Flags: W
LayerCount: 2
Fore
SplineSet
670 0 m 1,0,-1
 445 913 l 1,1,-1
 290 188 l 2,2,3
 269 88 269 88 286 63 c 0,4,5
 308 30 308 30 372 30 c 2,6,-1
 411 30 l 1,7,-1
 405 0 l 1,8,-1
 27 0 l 1,9,-1
 33 30 l 1,10,-1
 72 30 l 2,11,12
 140 30 140 30 178 71 c 0,13,14
 201 97 201 97 220 188 c 2,15,-1
 371 897 l 2,16,17
 386 969 386 969 377 1001 c 0,18,19
 371 1024 371 1024 344.5 1039.5 c 128,-1,20
 318 1055 318 1055 251 1055 c 1,21,-1
 257 1085 l 1,22,-1
 564 1085 l 1,23,-1
 778 236 l 1,24,-1
 1345 1085 l 1,25,-1
 1652 1085 l 1,26,-1
 1646 1055 l 1,27,-1
 1609 1055 l 2,28,29
 1539 1055 1539 1055 1501 1014 c 0,30,31
 1479 988 1479 988 1459 897 c 2,32,-1
 1308 188 l 2,33,34
 1287 88 1287 88 1304 63 c 0,35,36
 1327 30 1327 30 1391 30 c 2,37,-1
 1428 30 l 1,38,-1
 1422 0 l 1,39,-1
 962 0 l 1,40,-1
 968 30 l 1,41,-1
 1006 30 l 2,42,43
 1076 30 1076 30 1113 71 c 0,44,45
 1135 97 1135 97 1154 188 c 2,46,-1
 1309 913 l 1,47,-1
 697 0 l 1,48,-1
 670 0 l 1,0,-1
EndSplineSet
EndChar

StartChar: N
Encoding: 78 78 40
Width: 1183
Flags: W
LayerCount: 2
Fore
SplineSet
208 1085 m 1,0,-1
 503 1085 l 1,1,-1
 993 271 l 1,2,-1
 1126 897 l 2,3,4
 1147 997 1147 997 1131 1022 c 0,5,6
 1108 1055 1108 1055 1044 1055 c 2,7,-1
 1006 1055 l 1,8,-1
 1012 1085 l 1,9,-1
 1390 1085 l 1,10,-1
 1384 1055 l 1,11,-1
 1346 1055 l 2,12,13
 1277 1055 1277 1055 1239 1014 c 0,14,15
 1216 988 1216 988 1196 897 c 2,16,-1
 1002 -18 l 1,17,-1
 974 -18 l 1,18,-1
 443 856 l 1,19,-1
 301 188 l 2,20,21
 280 88 280 88 297 63 c 0,22,23
 320 30 320 30 384 30 c 2,24,-1
 422 30 l 1,25,-1
 416 0 l 1,26,-1
 38 0 l 1,27,-1
 44 30 l 1,28,-1
 82 30 l 2,29,30
 152 30 152 30 189 71 c 0,31,32
 212 97 212 97 231 188 c 2,33,-1
 392 942 l 1,34,35
 357 998 357 998 336 1015.5 c 128,-1,36
 315 1033 315 1033 271 1048 c 0,37,38
 250 1055 250 1055 202 1055 c 1,39,-1
 208 1085 l 1,0,-1
EndSplineSet
EndChar

StartChar: O
Encoding: 79 79 41
Width: 1183
Flags: W
LayerCount: 2
Fore
SplineSet
834 1110 m 0,0,1
 1045 1110 1045 1110 1166 949.5 c 128,-1,2
 1287 789 1287 789 1236 549 c 0,3,4
 1184 302 1184 302 993 138.5 c 128,-1,5
 802 -25 802 -25 580 -25 c 0,6,7
 356 -25 356 -25 238 134.5 c 128,-1,8
 120 294 120 294 174 546 c 0,9,10
 229 805 229 805 439 968 c 0,11,12
 621 1110 621 1110 834 1110 c 0,0,1
807 1051 m 0,13,14
 661 1051 661 1051 550 943 c 0,15,16
 412 809 412 809 357 550 c 0,17,18
 301 284 301 284 383 141 c 0,19,20
 448 32 448 32 591 32 c 0,21,22
 744 32 744 32 869 151 c 128,-1,23
 994 270 994 270 1049 527 c 0,24,25
 1108 806 1108 806 1027 942 c 0,26,27
 962 1051 962 1051 807 1051 c 0,13,14
EndSplineSet
EndChar

StartChar: P
Encoding: 80 80 42
Width: 911
Flags: W
LayerCount: 2
Fore
SplineSet
443 508 m 1,0,-1
 376 192 l 2,1,2
 355 90 355 90 371 65 c 0,3,4
 395 30 395 30 456 30 c 2,5,-1
 498 30 l 1,6,-1
 492 0 l 1,7,-1
 27 0 l 1,8,-1
 33 30 l 1,9,-1
 74 30 l 2,10,11
 143 30 143 30 181 74 c 0,12,13
 203 99 203 99 222 192 c 2,14,-1
 371 893 l 2,15,16
 393 995 393 995 377 1020 c 0,17,18
 354 1055 354 1055 292 1055 c 2,19,-1
 251 1055 l 1,20,-1
 257 1085 l 1,21,-1
 655 1085 l 2,22,23
 800 1085 800 1085 877.5 1055 c 128,-1,24
 955 1025 955 1025 998 953.5 c 128,-1,25
 1041 882 1041 882 1020 785 c 0,26,27
 992 652 992 652 886.5 569 c 128,-1,28
 781 486 781 486 621 486 c 0,29,30
 582 486 582 486 537.5 491.5 c 128,-1,31
 493 497 493 497 443 508 c 1,0,-1
453 554 m 1,32,33
 494 546 494 546 526 542 c 128,-1,34
 558 538 558 538 581 538 c 0,35,36
 664 538 664 538 738 602 c 128,-1,37
 812 666 812 666 834 769 c 0,38,39
 849 839 849 839 833.5 899.5 c 128,-1,40
 818 960 818 960 771 990 c 128,-1,41
 724 1020 724 1020 657 1020 c 0,42,43
 616 1020 616 1020 549 1005 c 1,44,-1
 453 554 l 1,32,33
EndSplineSet
EndChar

StartChar: Q
Encoding: 81 81 43
Width: 1183
Flags: W
LayerCount: 2
Fore
SplineSet
719 -12 m 1,0,1
 770 -153 770 -153 851 -219.5 c 128,-1,2
 932 -286 932 -286 1051 -295 c 1,3,-1
 1045 -321 l 1,4,5
 935 -317 935 -317 818 -276.5 c 128,-1,6
 701 -236 701 -236 604 -164.5 c 128,-1,7
 507 -93 507 -93 443 -12 c 1,8,9
 337 34 337 34 281 86 c 0,10,11
 200 164 200 164 170 277 c 128,-1,12
 140 390 140 390 173 545 c 0,13,14
 225 788 225 788 416.5 949 c 128,-1,15
 608 1110 608 1110 832 1110 c 0,16,17
 1045 1110 1045 1110 1166.5 948.5 c 128,-1,18
 1288 787 1288 787 1236 542 c 0,19,20
 1193 342 1193 342 1050 192 c 128,-1,21
 907 42 907 42 719 -12 c 1,0,1
809 1048 m 0,22,23
 664 1048 664 1048 553 944 c 0,24,25
 414 814 414 814 356 545 c 0,26,27
 300 282 300 282 383 139 c 0,28,29
 448 30 448 30 593 30 c 0,30,31
 744 30 744 30 859 139 c 0,32,33
 995 269 995 269 1048 522 c 0,34,35
 1090 716 1090 716 1058 849 c 0,36,37
 1035 951 1035 951 969.5 999.5 c 128,-1,38
 904 1048 904 1048 809 1048 c 0,22,23
EndSplineSet
EndChar

StartChar: R
Encoding: 82 82 44
Width: 1093
Flags: W
LayerCount: 2
Fore
SplineSet
1107 0 m 1,0,-1
 818 0 l 1,1,-1
 557 507 l 1,2,3
 517 506 517 506 491 506 c 0,4,5
 481 506 481 506 469 506 c 128,-1,6
 457 506 457 506 444 507 c 1,7,-1
 377 192 l 2,8,9
 356 90 356 90 372 65 c 0,10,11
 396 30 396 30 456 30 c 2,12,-1
 499 30 l 1,13,-1
 493 0 l 1,14,-1
 28 0 l 1,15,-1
 34 30 l 1,16,-1
 75 30 l 2,17,18
 144 30 144 30 182 74 c 0,19,20
 205 99 205 99 224 192 c 2,21,-1
 373 893 l 2,22,23
 395 995 395 995 378 1020 c 0,24,25
 354 1055 354 1055 293 1055 c 2,26,-1
 252 1055 l 1,27,-1
 258 1085 l 1,28,-1
 653 1085 l 2,29,30
 826 1085 826 1085 902.5 1059.5 c 128,-1,31
 979 1034 979 1034 1022 966.5 c 128,-1,32
 1065 899 1065 899 1045 806 c 0,33,34
 1024 706 1024 706 943 632 c 128,-1,35
 862 558 862 558 719 528 c 1,36,-1
 877 217 l 2,37,38
 931 110 931 110 978.5 74.5 c 128,-1,39
 1026 39 1026 39 1113 30 c 1,40,-1
 1107 0 l 1,0,-1
455 558 m 1,41,42
 470 558 470 558 481 557.5 c 128,-1,43
 492 557 492 557 500 557 c 0,44,45
 655 557 655 557 747.5 624 c 128,-1,46
 840 691 840 691 862 795 c 0,47,48
 884 897 884 897 834 960.5 c 128,-1,49
 784 1024 784 1024 679 1024 c 0,50,51
 633 1024 633 1024 551 1009 c 1,52,-1
 455 558 l 1,41,42
EndSplineSet
EndChar

StartChar: S
Encoding: 83 83 45
Width: 911
Flags: W
LayerCount: 2
Fore
SplineSet
986 1110 m 1,0,-1
 907 734 l 1,1,-1
 878 734 l 1,2,3
 885 842 885 842 862 906 c 128,-1,4
 839 970 839 970 778 1008 c 128,-1,5
 717 1046 717 1046 644 1046 c 0,6,7
 560 1046 560 1046 495 995 c 128,-1,8
 430 944 430 944 416 879 c 0,9,10
 406 830 406 830 431 789 c 0,11,12
 468 729 468 729 633 629 c 0,13,14
 768 547 768 547 814 503.5 c 128,-1,15
 860 460 860 460 877.5 401 c 128,-1,16
 895 342 895 342 881 277 c 0,17,18
 855 154 855 154 740.5 64.5 c 128,-1,19
 626 -25 626 -25 476 -25 c 0,20,21
 428 -25 428 -25 389 -18 c 0,22,23
 365 -14 365 -14 292 11.5 c 128,-1,24
 219 37 219 37 198 37 c 0,25,26
 178 37 178 37 164 25 c 128,-1,27
 150 13 150 13 136 -25 c 1,28,-1
 107 -25 l 1,29,-1
 186 347 l 1,30,-1
 215 347 l 1,31,32
 211 230 211 230 234.5 172 c 128,-1,33
 258 114 258 114 322 76 c 128,-1,34
 386 38 386 38 473 38 c 0,35,36
 573 38 573 38 642 90.5 c 128,-1,37
 711 143 711 143 726 215 c 0,38,39
 735 255 735 255 721.5 296 c 128,-1,40
 708 337 708 337 669 372 c 0,41,42
 643 396 643 396 520.5 474 c 128,-1,43
 398 552 398 552 349 598.5 c 128,-1,44
 300 645 300 645 281 701 c 128,-1,45
 262 757 262 757 277 824 c 0,46,47
 302 941 302 941 409.5 1025.5 c 128,-1,48
 517 1110 517 1110 655 1110 c 0,49,50
 741 1110 741 1110 829 1067 c 0,51,52
 870 1047 870 1047 888 1047 c 0,53,54
 909 1047 909 1047 925 1059.5 c 128,-1,55
 941 1072 941 1072 957 1110 c 1,56,-1
 986 1110 l 1,0,-1
EndSplineSet
EndChar

StartChar: T
Encoding: 84 84 46
Width: 1001
Flags: W
LayerCount: 2
Fore
SplineSet
1178 1085 m 1,0,-1
 1136 830 l 1,1,-1
 1106 830 l 1,2,3
 1111 898 1111 898 1102 926 c 0,4,5
 1087 973 1087 973 1050.5 995 c 128,-1,6
 1014 1017 1014 1017 947 1017 c 2,7,-1
 794 1017 l 1,8,-1
 617 188 l 2,9,10
 596 88 596 88 613 63 c 0,11,12
 636 30 636 30 700 30 c 2,13,-1
 737 30 l 1,14,-1
 731 0 l 1,15,-1
 271 0 l 1,16,-1
 277 30 l 1,17,-1
 316 30 l 2,18,19
 384 30 384 30 422 71 c 0,20,21
 445 97 445 97 464 188 c 2,22,-1
 641 1017 l 1,23,-1
 510 1017 l 2,24,25
 434 1017 434 1017 399 1006 c 0,26,27
 355 990 355 990 316.5 947 c 128,-1,28
 278 904 278 904 256 830 c 1,29,-1
 226 830 l 1,30,-1
 292 1085 l 1,31,-1
 1178 1085 l 1,0,-1
EndSplineSet
EndChar

StartChar: U
Encoding: 85 85 47
Width: 1183
Flags: W
LayerCount: 2
Fore
SplineSet
1006 1055 m 1,0,-1
 1012 1085 l 1,1,-1
 1396 1085 l 1,2,-1
 1390 1055 l 1,3,-1
 1349 1055 l 2,4,5
 1285 1055 1285 1055 1238 1002 c 0,6,7
 1217 977 1217 977 1198 886 c 2,8,-1
 1104 446 l 2,9,10
 1070 283 1070 283 1018 193 c 128,-1,11
 966 103 966 103 857.5 38.5 c 128,-1,12
 749 -26 749 -26 586 -26 c 0,13,14
 408 -26 408 -26 329 36 c 128,-1,15
 250 98 250 98 234 202 c 0,16,17
 224 273 224 273 265 469 c 2,18,-1
 355 893 l 2,19,20
 377 993 377 993 356 1024 c 128,-1,21
 335 1055 335 1055 274 1055 c 2,22,-1
 233 1055 l 1,23,-1
 239 1085 l 1,24,-1
 708 1085 l 1,25,-1
 702 1055 l 1,26,-1
 660 1055 l 2,27,28
 593 1055 593 1055 555 1013 c 0,29,30
 529 984 529 984 509 893 c 2,31,-1
 409 420 l 2,32,33
 395 357 395 357 389.5 275.5 c 128,-1,34
 384 194 384 194 404.5 148 c 128,-1,35
 425 102 425 102 476 72.5 c 128,-1,36
 527 43 527 43 611 43 c 0,37,38
 717 43 717 43 810.5 89.5 c 128,-1,39
 904 136 904 136 950.5 208.5 c 128,-1,40
 997 281 997 281 1034 454 c 2,41,-1
 1127 893 l 2,42,43
 1149 994 1149 994 1131 1020 c 0,44,45
 1108 1055 1108 1055 1046 1055 c 2,46,-1
 1006 1055 l 1,0,-1
EndSplineSet
EndChar

StartChar: V
Encoding: 86 86 48
Width: 1183
Flags: W
LayerCount: 2
Fore
SplineSet
1393 1085 m 1,0,-1
 1387 1055 l 1,1,2
 1328 1045 1328 1045 1292 1018 c 0,3,4
 1242 979 1242 979 1191 898 c 2,5,-1
 616 -25 l 1,6,-1
 587 -25 l 1,7,-1
 379 910 l 2,8,9
 363 982 363 982 354 998 c 0,10,11
 339 1023 339 1023 313 1037 c 128,-1,12
 287 1051 287 1051 238 1055 c 1,13,-1
 244 1085 l 1,14,-1
 688 1085 l 1,15,-1
 682 1055 l 1,16,17
 604 1048 604 1048 578 1029.5 c 128,-1,18
 552 1011 552 1011 546 982 c 0,19,20
 538 942 538 942 556 858 c 2,21,-1
 697 222 l 1,22,-1
 1086 850 l 2,23,24
 1144 942 1144 942 1151 978 c 0,25,26
 1156 1002 1156 1002 1137.5 1023 c 128,-1,27
 1119 1044 1119 1044 1065 1053 c 0,28,29
 1062 1054 1062 1054 1053 1055 c 1,30,-1
 1059 1085 l 1,31,-1
 1393 1085 l 1,0,-1
EndSplineSet
EndChar

StartChar: W
Encoding: 87 87 49
Width: 1546
Flags: W
LayerCount: 2
Fore
SplineSet
1764 1085 m 1,0,-1
 1758 1055 l 1,1,2
 1715 1055 1715 1055 1685 1040 c 128,-1,3
 1655 1025 1655 1025 1622 983 c 0,4,5
 1600 955 1600 955 1544 850 c 2,6,-1
 1056 -25 l 1,7,-1
 1024 -25 l 1,8,-1
 924 669 l 1,9,-1
 531 -25 l 1,10,-1
 502 -25 l 1,11,-1
 372 876 l 2,12,13
 357 977 357 977 351 995 c 0,14,15
 342 1026 342 1026 317.5 1040.5 c 128,-1,16
 293 1055 293 1055 246 1055 c 1,17,-1
 252 1085 l 1,18,-1
 653 1085 l 1,19,-1
 647 1055 l 1,20,-1
 628 1055 l 2,21,22
 586 1055 586 1055 559.5 1036 c 128,-1,23
 533 1017 533 1017 527 990 c 0,24,25
 521 962 521 962 535 861 c 2,26,-1
 619 252 l 1,27,-1
 909 770 l 1,28,-1
 897 861 l 1,29,-1
 886 934 l 2,30,31
 878 974 878 974 863 1004 c 0,32,33
 856 1019 856 1019 843 1030 c 0,34,35
 826 1044 826 1044 808 1050 c 0,36,37
 794 1055 794 1055 761 1055 c 1,38,-1
 767 1085 l 1,39,-1
 1189 1085 l 1,40,-1
 1183 1055 l 1,41,-1
 1154 1055 l 2,42,43
 1110 1055 1110 1055 1085 1036 c 128,-1,44
 1060 1017 1060 1017 1053 984 c 0,45,46
 1044 943 1044 943 1058 842 c 2,47,-1
 1141 252 l 1,48,-1
 1474 850 l 2,49,50
 1531 949 1531 949 1539 987 c 0,51,52
 1543 1006 1543 1006 1534.5 1022 c 128,-1,53
 1526 1038 1526 1038 1510 1044 c 0,54,55
 1482 1055 1482 1055 1434 1055 c 1,56,-1
 1440 1085 l 1,57,-1
 1764 1085 l 1,0,-1
EndSplineSet
EndChar

StartChar: X
Encoding: 88 88 50
Width: 1183
Flags: W
LayerCount: 2
Fore
SplineSet
796 601 m 1,0,-1
 955 254 l 2,1,2
 1021 110 1021 110 1060 72 c 128,-1,3
 1099 34 1099 34 1170 30 c 1,4,-1
 1164 0 l 1,5,-1
 698 0 l 1,6,-1
 704 30 l 1,7,8
 751 30 751 30 775 39 c 0,9,10
 793 46 793 46 807.5 61 c 128,-1,11
 822 76 822 76 825 91 c 0,12,13
 829 110 829 110 825 128 c 0,14,15
 823 142 823 142 796 198 c 2,16,-1
 671 477 l 1,17,-1
 382 186 l 2,18,19
 336 139 336 139 325.5 123.5 c 128,-1,20
 315 108 315 108 312 91 c 0,21,22
 307 66 307 66 324.5 49 c 128,-1,23
 342 32 342 32 403 30 c 1,24,-1
 397 0 l 1,25,-1
 12 0 l 1,26,-1
 18 30 l 1,27,28
 60 34 60 34 91 46 c 0,29,30
 146 67 146 67 198.5 102.5 c 128,-1,31
 251 138 251 138 323 210 c 2,32,-1
 648 534 l 1,33,-1
 501 846 l 2,34,35
 441 974 441 974 388.5 1013.5 c 128,-1,36
 336 1053 336 1053 258 1055 c 1,37,-1
 264 1085 l 1,38,-1
 765 1085 l 1,39,-1
 759 1055 l 1,40,41
 694 1053 694 1053 666.5 1034.5 c 128,-1,42
 639 1016 639 1016 635 994 c 0,43,44
 628 964 628 964 654 907 c 2,45,-1
 768 658 l 1,46,-1
 1013 902 l 2,47,48
 1056 946 1056 946 1066.5 962 c 128,-1,49
 1077 978 1077 978 1081 994 c 0,50,51
 1084 1011 1084 1011 1078 1024 c 0,52,53
 1070 1041 1070 1041 1053 1047.5 c 128,-1,54
 1036 1054 1036 1054 978 1055 c 1,55,-1
 984 1085 l 1,56,-1
 1369 1085 l 1,57,-1
 1363 1055 l 1,58,59
 1317 1053 1317 1053 1286 1041 c 0,60,61
 1239 1022 1239 1022 1196.5 991 c 128,-1,62
 1154 960 1154 960 1070 876 c 2,63,-1
 796 601 l 1,0,-1
EndSplineSet
EndChar

StartChar: Y
Encoding: 89 89 51
Width: 1183
Flags: W
LayerCount: 2
Fore
SplineSet
1011 1085 m 1,0,-1
 1389 1085 l 1,1,-1
 1383 1055 l 1,2,-1
 1362 1055 l 2,3,4
 1342 1055 1342 1055 1298 1036.5 c 128,-1,5
 1254 1018 1254 1018 1213.5 984 c 128,-1,6
 1173 950 1173 950 1109 872 c 2,7,-1
 759 460 l 1,8,-1
 701 188 l 2,9,10
 680 88 680 88 698 63 c 0,11,12
 721 30 721 30 787 30 c 2,13,-1
 822 30 l 1,14,-1
 816 0 l 1,15,-1
 355 0 l 1,16,-1
 361 30 l 1,17,-1
 400 30 l 2,18,19
 468 30 468 30 506 71 c 0,20,21
 529 97 529 97 548 188 c 2,22,-1
 603 445 l 1,23,-1
 402 899 l 2,24,25
 366 979 366 979 351.5 999 c 128,-1,26
 337 1019 337 1019 284 1047 c 0,27,28
 270 1055 270 1055 239 1055 c 1,29,-1
 245 1085 l 1,30,-1
 709 1085 l 1,31,-1
 703 1055 l 1,32,-1
 679 1055 l 2,33,34
 642 1055 642 1055 606 1037.5 c 128,-1,35
 570 1020 570 1020 563 985 c 0,36,37
 557 956 557 956 590 881 c 2,38,-1
 742 531 l 1,39,-1
 1026 866 l 2,40,41
 1090 941 1090 941 1097 978 c 0,42,43
 1102 1000 1102 1000 1094 1017.5 c 128,-1,44
 1086 1035 1086 1035 1067 1045 c 128,-1,45
 1048 1055 1048 1055 1005 1055 c 1,46,-1
 1011 1085 l 1,0,-1
EndSplineSet
EndChar

StartChar: Z
Encoding: 90 90 52
Width: 1001
Flags: W
LayerCount: 2
Fore
SplineSet
1172 1085 m 1,0,-1
 244 66 l 1,1,-1
 688 66 l 2,2,3
 791 66 791 66 854.5 110.5 c 128,-1,4
 918 155 918 155 991 292 c 1,5,-1
 1016 287 l 1,6,-1
 904 0 l 1,7,-1
 21 0 l 1,8,-1
 27 30 l 1,9,-1
 933 1020 l 1,10,-1
 586 1020 l 2,11,12
 499 1020 499 1020 456.5 1001 c 128,-1,13
 414 982 414 982 386 946.5 c 128,-1,14
 358 911 358 911 321 814 c 1,15,-1
 291 814 l 1,16,-1
 370 1085 l 1,17,-1
 1172 1085 l 1,0,-1
EndSplineSet
EndChar

StartChar: bracketleft
Encoding: 91 91 53
Width: 612
Flags: W
LayerCount: 2
Fore
SplineSet
485 -220 m 1,0,-1
 133 -220 l 1,1,-1
 519 1597 l 1,2,-1
 871 1597 l 1,3,-1
 851 1505 l 1,4,-1
 631 1505 l 1,5,-1
 284 -129 l 1,6,-1
 504 -129 l 1,7,-1
 485 -220 l 1,0,-1
EndSplineSet
EndChar

StartChar: backslash
Encoding: 92 92 54
Width: 575
Flags: W
LayerCount: 2
Fore
SplineSet
475 -358 m 1,0,-1
 362 -358 l 1,1,-1
 242 885 l 1,2,-1
 357 885 l 1,3,-1
 475 -358 l 1,0,-1
EndSplineSet
EndChar

StartChar: bracketright
Encoding: 93 93 55
Width: 612
Flags: W
LayerCount: 2
Fore
SplineSet
172 -129 m 1,0,-1
 392 -129 l 1,1,-1
 739 1505 l 1,2,-1
 519 1505 l 1,3,-1
 539 1597 l 1,4,-1
 891 1597 l 1,5,-1
 505 -220 l 1,6,-1
 153 -220 l 1,7,-1
 172 -129 l 1,0,-1
EndSplineSet
EndChar

StartChar: asciicircum
Encoding: 94 94 56
Width: 930
Flags: W
LayerCount: 2
Fore
SplineSet
936 427 m 1,0,-1
 813 427 l 1,1,-1
 638 816 l 1,2,-1
 296 426 l 1,3,-1
 172 426 l 1,4,-1
 623 928 l 1,5,-1
 701 928 l 1,6,-1
 936 427 l 1,0,-1
EndSplineSet
EndChar

StartChar: underscore
Encoding: 95 95 57
Width: 872
Flags: W
LayerCount: 2
Fore
SplineSet
834 -234 m 1,0,-1
 -61 -234 l 1,1,-1
 -40 -133 l 1,2,-1
 855 -133 l 1,3,-1
 834 -234 l 1,0,-1
EndSplineSet
EndChar

StartChar: grave
Encoding: 96 96 58
Width: 212
Flags: W
LayerCount: 2
Fore
SplineSet
120 1002 m 1,0,1
 155 922 155 922 176 851 c 1,2,3
 183 799 183 799 172 805 c 1,4,5
 150 837 150 837 102.5 927 c 128,-1,6
 55 1017 55 1017 46 1049 c 1,7,8
 43 1086 43 1086 120 1002 c 1,0,1
EndSplineSet
EndChar

StartChar: a
Encoding: 97 97 59
Width: 727
Flags: W
LayerCount: 2
Fore
SplineSet
488 106 m 1,0,1
 357 18 357 18 326 5 c 0,2,3
 278 -15 278 -15 229 -15 c 0,4,5
 153 -15 153 -15 114.5 37 c 128,-1,6
 76 89 76 89 94 174 c 0,7,8
 106 227 106 227 138 266 c 0,9,10
 183 321 183 321 274.5 369 c 128,-1,11
 366 417 366 417 569 486 c 1,12,-1
 575 514 l 2,13,14
 598 624 598 624 572.5 665 c 128,-1,15
 547 706 547 706 480 706 c 0,16,17
 430 706 430 706 394 678 c 0,18,19
 358 651 358 651 350 616 c 2,20,-1
 343 570 l 2,21,22
 335 533 335 533 311.5 513 c 128,-1,23
 288 493 288 493 258 493 c 256,24,25
 228 493 228 493 213.5 513.5 c 128,-1,26
 199 534 199 534 207 570 c 0,27,28
 221 639 221 639 304 696.5 c 128,-1,29
 387 754 387 754 514 754 c 0,30,31
 612 754 612 754 667 722 c 0,32,33
 710 697 710 697 720 644 c 0,34,35
 727 610 727 610 704 503 c 2,36,-1
 651 254 l 2,37,38
 629 150 629 150 628 126 c 128,-1,39
 627 102 627 102 635 94 c 128,-1,40
 643 86 643 86 655 86 c 0,41,42
 668 86 668 86 678 92 c 0,43,44
 697 102 697 102 755 150 c 1,45,-1
 746 106 l 1,46,47
 631 -14 631 -14 550 -14 c 0,48,49
 511 -14 511 -14 493 13 c 128,-1,50
 475 40 475 40 488 106 c 1,0,1
499 158 m 1,51,-1
 558 437 l 1,52,53
 428 389 428 389 388 369 c 0,54,55
 317 334 317 334 282 295.5 c 128,-1,56
 247 257 247 257 237 211 c 0,57,58
 225 154 225 154 251.5 116 c 128,-1,59
 278 78 278 78 322 78 c 0,60,61
 383 78 383 78 499 158 c 1,51,-1
EndSplineSet
EndChar

StartChar: b
Encoding: 98 98 60
Width: 819
Flags: W
LayerCount: 2
Fore
SplineSet
380 606 m 1,0,1
 518 754 518 754 642 754 c 0,2,3
 754 754 754 754 817.5 658 c 128,-1,4
 881 562 881 562 845 394 c 0,5,6
 804 199 804 199 650 80 c 0,7,8
 517 -22 517 -22 380 -22 c 0,9,10
 316 -22 316 -22 255 1 c 128,-1,11
 194 24 194 24 134 70 c 1,12,-1
 296 830 l 2,13,14
 322 954 322 954 322.5 983 c 128,-1,15
 323 1012 323 1012 312 1022.5 c 128,-1,16
 301 1033 301 1033 282 1033 c 0,17,18
 260 1033 260 1033 223 1020 c 1,19,-1
 218 1048 l 1,20,-1
 457 1138 l 1,21,-1
 493 1138 l 1,22,-1
 380 606 l 1,0,1
369 555 m 1,23,-1
 276 117 l 1,24,25
 309 77 309 77 348 56.5 c 128,-1,26
 387 36 387 36 433 36 c 0,27,28
 505 36 505 36 585 116 c 128,-1,29
 665 196 665 196 698 349 c 0,30,31
 728 490 728 490 681 565.5 c 128,-1,32
 634 641 634 641 554 641 c 0,33,34
 512 641 512 641 465 619 c 0,35,36
 430 603 430 603 369 555 c 1,23,-1
EndSplineSet
EndChar

StartChar: c
Encoding: 99 99 61
Width: 727
Flags: W
LayerCount: 2
Fore
SplineSet
733 278 m 1,0,1
 672 134 672 134 569 56 c 128,-1,2
 466 -22 466 -22 361 -22 c 0,3,4
 237 -22 237 -22 166 82.5 c 128,-1,5
 95 187 95 187 133 366 c 0,6,7
 170 538 170 538 296 646 c 128,-1,8
 422 754 422 754 566 754 c 0,9,10
 674 754 674 754 731.5 697 c 128,-1,11
 789 640 789 640 775 578 c 0,12,13
 769 548 769 548 745.5 529 c 128,-1,14
 722 510 722 510 686 510 c 0,15,16
 639 510 639 510 621 541 c 0,17,18
 612 558 612 558 617.5 605 c 128,-1,19
 623 652 623 652 600 677 c 0,20,21
 578 701 578 701 528 701 c 0,22,23
 448 701 448 701 386 642 c 0,24,25
 305 563 305 563 278 434 c 0,26,27
 250 303 250 303 292.5 202.5 c 128,-1,28
 335 102 335 102 445 102 c 0,29,30
 523 102 523 102 598 156 c 0,31,32
 650 193 650 193 711 290 c 1,33,-1
 733 278 l 1,0,1
EndSplineSet
EndChar

StartChar: d
Encoding: 100 100 62
Width: 819
Flags: W
LayerCount: 2
Fore
SplineSet
586 82 m 1,0,1
 520 26 520 26 464 2 c 128,-1,2
 408 -22 408 -22 349 -22 c 0,3,4
 229 -22 229 -22 160 78 c 128,-1,5
 91 178 91 178 125 336 c 256,6,7
 159 494 159 494 286 624.5 c 128,-1,8
 413 755 413 755 569 755 c 0,9,10
 666 755 666 755 716 694 c 1,11,-1
 745 829 l 2,12,13
 771 954 771 954 771.5 983 c 128,-1,14
 772 1012 772 1012 761 1022.5 c 128,-1,15
 750 1033 750 1033 731 1033 c 0,16,17
 710 1033 710 1033 673 1020 c 1,18,-1
 668 1048 l 1,19,-1
 906 1138 l 1,20,-1
 942 1138 l 1,21,-1
 762 290 l 2,22,23
 735 162 735 162 735 133.5 c 128,-1,24
 735 105 735 105 745.5 93.5 c 128,-1,25
 756 82 756 82 774 82 c 0,26,27
 795 82 795 82 834 96 c 1,28,-1
 837 68 l 1,29,-1
 601 -22 l 1,30,-1
 564 -22 l 1,31,-1
 586 82 l 1,0,1
598 138 m 1,32,-1
 678 516 l 1,33,34
 685 570 685 570 670.5 615 c 128,-1,35
 656 660 656 660 621.5 683 c 128,-1,36
 587 706 587 706 549 706 c 0,37,38
 479 706 479 706 410 642 c 0,39,40
 319 559 319 559 285 399 c 0,41,42
 251 238 251 238 303.5 152 c 128,-1,43
 356 66 356 66 442 66 c 0,44,45
 515 66 515 66 598 138 c 1,32,-1
EndSplineSet
EndChar

StartChar: e
Encoding: 101 101 63
Width: 727
Flags: W
LayerCount: 2
Fore
SplineSet
271 457 m 1,0,1
 236 294 236 294 296 201 c 256,2,3
 356 108 356 108 464 108 c 0,4,5
 536 108 536 108 597.5 147.5 c 128,-1,6
 659 187 659 187 716 283 c 1,7,-1
 737 267 l 1,8,9
 697 158 697 158 597 68 c 128,-1,10
 497 -22 497 -22 376 -22 c 0,11,12
 244 -22 244 -22 171.5 80.5 c 128,-1,13
 99 183 99 183 136 357 c 0,14,15
 176 545 176 545 295 650 c 128,-1,16
 414 755 414 755 559 755 c 0,17,18
 682 755 682 755 744.5 674 c 128,-1,19
 807 593 807 593 778 457 c 1,20,-1
 271 457 l 1,0,1
280 503 m 1,21,-1
 620 503 l 1,22,23
 632 574 632 574 624 602 c 0,24,25
 614 647 614 647 580 672.5 c 128,-1,26
 546 698 546 698 502 698 c 0,27,28
 436 698 436 698 372.5 646.5 c 128,-1,29
 309 595 309 595 280 503 c 1,21,-1
EndSplineSet
EndChar

StartChar: f
Encoding: 102 102 64
Width: 546
Flags: W
LayerCount: 2
Fore
SplineSet
481 675 m 1,0,-1
 379 194 l 2,1,2
 357 91 357 91 373 64 c 0,3,4
 396 29 396 29 445 29 c 2,5,-1
 512 29 l 1,6,-1
 506 0 l 1,7,-1
 68 0 l 1,8,-1
 74 29 l 1,9,-1
 107 29 l 2,10,11
 139 29 139 29 168.5 45 c 128,-1,12
 198 61 198 61 214 88 c 128,-1,13
 230 115 230 115 247 194 c 2,14,-1
 349 675 l 1,15,-1
 206 675 l 1,16,-1
 218 733 l 1,17,-1
 361 733 l 1,18,-1
 372 781 l 2,19,20
 395 890 395 890 446 966 c 128,-1,21
 497 1042 497 1042 579.5 1089 c 128,-1,22
 662 1136 662 1136 752 1136 c 0,23,24
 836 1136 836 1136 895 1082 c 0,25,26
 934 1046 934 1046 924 1001 c 0,27,28
 919 977 919 977 893.5 955.5 c 128,-1,29
 868 934 868 934 844 934 c 0,30,31
 826 934 826 934 808.5 947.5 c 128,-1,32
 791 961 791 961 770.5 1004.5 c 128,-1,33
 750 1048 750 1048 728 1063 c 0,34,35
 707 1078 707 1078 677 1078 c 0,36,37
 640 1078 640 1078 610 1058.5 c 128,-1,38
 580 1039 580 1039 560.5 998 c 128,-1,39
 541 957 541 957 505 786 c 2,40,-1
 493 733 l 1,41,-1
 681 733 l 1,42,-1
 669 675 l 1,43,-1
 481 675 l 1,0,-1
EndSplineSet
EndChar

StartChar: g
Encoding: 103 103 65
Width: 819
Flags: W
LayerCount: 2
Fore
SplineSet
303 267 m 1,0,1
 243 300 243 300 219.5 359 c 128,-1,2
 196 418 196 418 211 489 c 0,3,4
 235 598 235 598 333.5 676 c 128,-1,5
 432 754 432 754 560 754 c 0,6,7
 665 754 665 754 731 703 c 1,8,-1
 886 703 l 2,9,10
 920 703 920 703 925 701 c 128,-1,11
 930 699 930 699 932 694 c 0,12,13
 936 687 936 687 932 669 c 0,14,15
 927 648 927 648 922 640 c 0,16,17
 918 636 918 636 911.5 633.5 c 128,-1,18
 905 631 905 631 871 631 c 2,19,-1
 776 631 l 1,20,21
 808 574 808 574 788 484 c 0,22,23
 767 382 767 382 673.5 309 c 128,-1,24
 580 236 580 236 448 236 c 0,25,26
 393 236 393 236 339 252 c 1,27,28
 298 222 298 222 280.5 199 c 128,-1,29
 263 176 263 176 260 160 c 0,30,31
 257 146 257 146 267.5 133.5 c 128,-1,32
 278 121 278 121 315 115 c 0,33,34
 337 112 337 112 426 110 c 0,35,36
 590 106 590 106 637 98 c 0,37,38
 709 88 709 88 744 43 c 128,-1,39
 779 -2 779 -2 765 -67 c 0,40,41
 746 -158 746 -158 644 -237 c 0,42,43
 494 -354 494 -354 294 -354 c 0,44,45
 139 -354 139 -354 48 -284 c 0,46,47
 -2 -244 -2 -244 6 -201 c 0,48,49
 10 -182 10 -182 23 -162 c 0,50,51
 42 -133 42 -133 96 -80 c 0,52,53
 103 -73 103 -73 196 6 c 1,54,55
 160 31 160 31 146.5 50.5 c 128,-1,56
 133 70 133 70 139 95 c 0,57,58
 145 123 145 123 176 160.5 c 128,-1,59
 207 198 207 198 303 267 c 1,0,1
538 716 m 0,60,61
 479 716 479 716 429 669 c 128,-1,62
 379 622 379 622 358 524 c 0,63,64
 331 398 331 398 371 328 c 0,65,66
 401 275 401 275 465 275 c 0,67,68
 526 275 526 275 574.5 320.5 c 128,-1,69
 623 366 623 366 644 464 c 0,70,71
 671 591 671 591 631 663 c 0,72,73
 602 716 602 716 538 716 c 0,60,61
239 0 m 1,74,75
 193 -41 193 -41 166 -76 c 128,-1,76
 139 -111 139 -111 133 -141 c 0,77,78
 124 -179 124 -179 165 -208 c 0,79,80
 235 -258 235 -258 386 -258 c 0,81,82
 530 -258 530 -258 609 -207 c 128,-1,83
 688 -156 688 -156 701 -98 c 0,84,85
 709 -57 709 -57 672 -39 c 0,86,87
 634 -22 634 -22 512 -18 c 0,88,89
 333 -14 333 -14 239 0 c 1,74,75
EndSplineSet
EndChar

StartChar: h
Encoding: 104 104 66
Width: 819
Flags: W
LayerCount: 2
Fore
SplineSet
507 1138 m 1,0,-1
 393 602 l 1,1,2
 503 699 503 699 561 726.5 c 128,-1,3
 619 754 619 754 671 754 c 0,4,5
 734 754 734 754 771 720 c 128,-1,6
 808 686 808 686 815 612 c 0,7,8
 819 561 819 561 790 425 c 2,9,-1
 735 166 l 2,10,11
 720 96 720 96 725 70 c 0,12,13
 729 51 729 51 746.5 40 c 128,-1,14
 764 29 764 29 815 29 c 1,15,-1
 809 0 l 1,16,-1
 449 0 l 1,17,-1
 455 29 l 1,18,-1
 472 29 l 2,19,20
 523 29 523 29 546 44.5 c 128,-1,21
 569 60 569 60 584 90 c 0,22,23
 588 103 588 103 602 166 c 2,24,-1
 657 425 l 2,25,26
 682 545 682 545 677.5 582.5 c 128,-1,27
 673 620 673 620 650 639 c 128,-1,28
 627 658 627 658 589 658 c 0,29,30
 549 658 549 658 502.5 637 c 128,-1,31
 456 616 456 616 383 553 c 1,32,-1
 301 166 l 2,33,34
 285 90 285 90 289.5 72 c 128,-1,35
 294 54 294 54 314.5 41.5 c 128,-1,36
 335 29 335 29 391 29 c 1,37,-1
 385 0 l 1,38,-1
 22 0 l 1,39,-1
 28 29 l 1,40,41
 76 29 76 29 107 44 c 0,42,43
 125 52 125 52 139.5 74.5 c 128,-1,44
 154 97 154 97 169 166 c 2,45,-1
 310 829 l 2,46,47
 336 954 336 954 336.5 983 c 128,-1,48
 337 1012 337 1012 326.5 1022.5 c 128,-1,49
 316 1033 316 1033 295 1033 c 0,50,51
 278 1033 278 1033 238 1020 c 1,52,-1
 232 1048 l 1,53,-1
 471 1138 l 1,54,-1
 507 1138 l 1,0,-1
EndSplineSet
EndChar

StartChar: i
Encoding: 105 105 67
Width: 455
Flags: W
LayerCount: 2
Fore
SplineSet
479 1138 m 0,0,1
 512 1138 512 1138 530.5 1114 c 128,-1,2
 549 1090 549 1090 542 1057 c 0,3,4
 535 1023 535 1023 506.5 999 c 128,-1,5
 478 975 478 975 445 975 c 0,6,7
 411 975 411 975 392 999 c 128,-1,8
 373 1023 373 1023 380 1057 c 0,9,10
 387 1090 387 1090 415.5 1114 c 128,-1,11
 444 1138 444 1138 479 1138 c 0,0,1
464 754 m 1,12,-1
 339 166 l 2,13,14
 324 97 324 97 329 74 c 128,-1,15
 334 51 334 51 351.5 40 c 128,-1,16
 369 29 369 29 421 29 c 1,17,-1
 415 0 l 1,18,-1
 59 0 l 1,19,-1
 65 29 l 1,20,21
 119 29 119 29 139.5 39.5 c 128,-1,22
 160 50 160 50 175.5 74 c 128,-1,23
 191 98 191 98 206 166 c 2,24,-1
 266 448 l 2,25,26
 291 567 291 567 291 602 c 0,27,28
 291 628 291 628 281 638 c 128,-1,29
 271 648 271 648 251 648 c 0,30,31
 228 648 228 648 194 636 c 1,32,-1
 189 665 l 1,33,-1
 429 754 l 1,34,-1
 464 754 l 1,12,-1
EndSplineSet
EndChar

StartChar: j
Encoding: 106 106 68
Width: 455
Flags: W
LayerCount: 2
Fore
SplineSet
478 1138 m 256,0,1
 512 1138 512 1138 531 1114 c 128,-1,2
 550 1090 550 1090 543 1056 c 256,3,4
 536 1022 536 1022 507 998 c 128,-1,5
 478 974 478 974 444 974 c 256,6,7
 410 974 410 974 391 998 c 128,-1,8
 372 1022 372 1022 379 1056 c 256,9,10
 386 1090 386 1090 415 1114 c 128,-1,11
 444 1138 444 1138 478 1138 c 256,0,1
466 754 m 1,12,-1
 309 17 l 2,13,14
 269 -171 269 -171 169.5 -262.5 c 128,-1,15
 70 -354 70 -354 -57 -354 c 0,16,17
 -130 -354 -130 -354 -159.5 -327.5 c 128,-1,18
 -189 -301 -189 -301 -184 -273 c 0,19,20
 -178 -245 -178 -245 -153.5 -225 c 128,-1,21
 -129 -205 -129 -205 -103 -205 c 0,22,23
 -82 -205 -82 -205 -63 -215 c 0,24,25
 -50 -221 -50 -221 -19 -255.5 c 128,-1,26
 12 -290 12 -290 38 -290 c 0,27,28
 57 -290 57 -290 78.5 -275.5 c 128,-1,29
 100 -261 100 -261 116.5 -226 c 128,-1,30
 133 -191 133 -191 158 -75 c 2,31,-1
 268 446 l 2,32,33
 294 567 294 567 293 602 c 0,34,35
 294 628 294 628 284 638 c 128,-1,36
 274 648 274 648 253 648 c 0,37,38
 231 648 231 648 197 636 c 1,39,-1
 191 665 l 1,40,-1
 431 754 l 1,41,-1
 466 754 l 1,12,-1
EndSplineSet
EndChar

StartChar: k
Encoding: 107 107 69
Width: 819
Flags: W
LayerCount: 2
Fore
SplineSet
509 1138 m 1,0,-1
 354 408 l 1,1,-1
 576 578 l 2,2,3
 648 633 648 633 660 647 c 0,4,5
 669 657 669 657 671 666 c 0,6,7
 674 682 674 682 663.5 694 c 128,-1,8
 653 706 653 706 623 707 c 1,9,-1
 628 733 l 1,10,-1
 946 733 l 1,11,-1
 941 707 l 1,12,13
 876 706 876 706 828 687.5 c 128,-1,14
 780 669 780 669 718 622 c 2,15,-1
 493 448 l 1,16,-1
 630 210 l 2,17,18
 688 112 688 112 710 86 c 0,19,20
 740 48 740 48 766 37 c 0,21,22
 785 29 785 29 835 29 c 1,23,-1
 829 0 l 1,24,-1
 473 0 l 1,25,-1
 479 29 l 1,26,27
 509 30 509 30 521.5 38 c 128,-1,28
 534 46 534 46 538 62 c 0,29,30
 542 80 542 80 518 121 c 2,31,-1
 354 408 l 1,32,-1
 303 165 l 2,33,34
 287 94 287 94 292.5 71.5 c 128,-1,35
 298 49 298 49 314.5 39.5 c 128,-1,36
 331 30 331 30 392 29 c 1,37,-1
 386 0 l 1,38,-1
 14 0 l 1,39,-1
 20 29 l 1,40,41
 76 29 76 29 106 42 c 0,42,43
 124 51 124 51 137 70 c 0,44,45
 155 96 155 96 169 161 c 2,46,-1
 310 828 l 2,47,48
 337 955 337 955 338 983.5 c 128,-1,49
 339 1012 339 1012 328 1023 c 128,-1,50
 317 1034 317 1034 297 1034 c 0,51,52
 280 1034 280 1034 243 1020 c 1,53,-1
 236 1048 l 1,54,-1
 472 1138 l 1,55,-1
 509 1138 l 1,0,-1
EndSplineSet
EndChar

StartChar: l
Encoding: 108 108 70
Width: 455
Flags: W
LayerCount: 2
Fore
SplineSet
544 1138 m 1,0,-1
 338 166 l 2,1,2
 323 97 323 97 328.5 74.5 c 128,-1,3
 334 52 334 52 352.5 40.5 c 128,-1,4
 371 29 371 29 428 29 c 1,5,-1
 422 0 l 1,6,-1
 62 0 l 1,7,-1
 68 29 l 1,8,9
 119 29 119 29 139.5 39.5 c 128,-1,10
 160 50 160 50 175 74 c 128,-1,11
 190 98 190 98 205 166 c 2,12,-1
 346 831 l 2,13,14
 372 955 372 955 373 983.5 c 128,-1,15
 374 1012 374 1012 363.5 1022.5 c 128,-1,16
 353 1033 353 1033 334 1033 c 0,17,18
 313 1033 313 1033 278 1020 c 1,19,-1
 271 1048 l 1,20,-1
 508 1138 l 1,21,-1
 544 1138 l 1,0,-1
EndSplineSet
EndChar

StartChar: m
Encoding: 109 109 71
Width: 1274
Flags: W
LayerCount: 2
Fore
SplineSet
396 598 m 1,0,1
 493 678 493 678 509 690 c 0,2,3
 552 721 552 721 597 737.5 c 128,-1,4
 642 754 642 754 683 754 c 0,5,6
 752 754 752 754 793 714 c 128,-1,7
 834 674 834 674 835 598 c 1,8,9
 937 694 937 694 1000.5 724 c 128,-1,10
 1064 754 1064 754 1124 754 c 0,11,12
 1182 754 1182 754 1221 724 c 128,-1,13
 1260 694 1260 694 1272 626 c 0,14,15
 1280 580 1280 580 1259 481 c 2,16,-1
 1192 166 l 2,17,18
 1177 97 1177 97 1182 71 c 0,19,20
 1186 54 1186 54 1205 41.5 c 128,-1,21
 1224 29 1224 29 1273 29 c 1,22,-1
 1267 0 l 1,23,-1
 906 0 l 1,24,-1
 912 29 l 1,25,-1
 927 29 l 2,26,27
 974 29 974 29 1003 47 c 0,28,29
 1025 60 1025 60 1039 88 c 0,30,31
 1045 102 1045 102 1059 166 c 2,32,-1
 1126 481 l 2,33,34
 1145 570 1145 570 1131 607 c 0,35,36
 1110 658 1110 658 1041 658 c 0,37,38
 999 658 999 658 951.5 637 c 128,-1,39
 904 616 904 616 832 558 c 1,40,-1
 828 550 l 1,41,-1
 823 515 l 1,42,-1
 749 166 l 2,43,44
 733 90 733 90 737 72 c 128,-1,45
 741 54 741 54 762 41.5 c 128,-1,46
 783 29 783 29 839 29 c 1,47,-1
 833 0 l 1,48,-1
 462 0 l 1,49,-1
 468 29 l 1,50,51
 529 29 529 29 555 43.5 c 128,-1,52
 581 58 581 58 596 86 c 0,53,54
 603 100 603 100 617 166 c 2,55,-1
 684 481 l 2,56,57
 703 570 703 570 684 610 c 0,58,59
 660 661 660 661 597 661 c 0,60,61
 554 661 554 661 506 638 c 0,62,63
 432 602 432 602 387 558 c 1,64,-1
 304 166 l 2,65,66
 288 94 288 94 293.5 72 c 128,-1,67
 299 50 299 50 316.5 39.5 c 128,-1,68
 334 29 334 29 394 29 c 1,69,-1
 388 0 l 1,70,-1
 26 0 l 1,71,-1
 32 29 l 1,72,73
 82 29 82 29 104 39.5 c 128,-1,74
 126 50 126 50 141.5 74 c 128,-1,75
 157 98 157 98 172 166 c 2,76,-1
 231 446 l 2,77,78
 257 566 257 566 257 602 c 0,79,80
 257 628 257 628 247 638 c 128,-1,81
 237 648 237 648 216 648 c 0,82,83
 194 648 194 648 161 636 c 1,84,-1
 155 665 l 1,85,-1
 394 754 l 1,86,-1
 429 754 l 1,87,-1
 396 598 l 1,0,1
EndSplineSet
EndChar

StartChar: n
Encoding: 110 110 72
Width: 819
Flags: W
LayerCount: 2
Fore
SplineSet
392 599 m 1,0,1
 554 754 554 754 670 754 c 0,2,3
 730 754 730 754 767 724 c 128,-1,4
 804 694 804 694 815 626 c 0,5,6
 822 578 822 578 801 478 c 2,7,-1
 735 166 l 2,8,9
 720 96 720 96 726 71 c 0,10,11
 730 51 730 51 747.5 40 c 128,-1,12
 765 29 765 29 818 29 c 1,13,-1
 812 0 l 1,14,-1
 450 0 l 1,15,-1
 456 29 l 1,16,-1
 471 29 l 2,17,18
 522 29 522 29 545.5 44.5 c 128,-1,19
 569 60 569 60 584 90 c 0,20,21
 589 102 589 102 603 166 c 2,22,-1
 667 466 l 2,23,24
 688 566 688 566 671.5 611 c 128,-1,25
 655 656 655 656 593 656 c 0,26,27
 498 656 498 656 382 552 c 1,28,-1
 300 166 l 2,29,30
 284 91 284 91 289 74 c 0,31,32
 295 50 295 50 312.5 39.5 c 128,-1,33
 330 29 330 29 390 29 c 1,34,-1
 384 0 l 1,35,-1
 22 0 l 1,36,-1
 28 29 l 1,37,-1
 44 29 l 2,38,39
 100 29 100 29 125.5 57.5 c 128,-1,40
 151 86 151 86 168 166 c 2,41,-1
 226 438 l 2,42,43
 254 570 254 570 254 598.5 c 128,-1,44
 254 627 254 627 243.5 637.5 c 128,-1,45
 233 648 233 648 212 648 c 0,46,47
 190 648 190 648 157 636 c 1,48,-1
 151 665 l 1,49,-1
 390 754 l 1,50,-1
 425 754 l 1,51,-1
 392 599 l 1,0,1
EndSplineSet
EndChar

StartChar: o
Encoding: 111 111 73
Width: 819
Flags: W
LayerCount: 2
Fore
SplineSet
570 754 m 0,0,1
 736 754 736 754 810 628 c 0,2,3
 872 520 872 520 842 380 c 0,4,5
 821 282 821 282 753 181 c 128,-1,6
 685 80 685 80 591 29 c 128,-1,7
 497 -22 497 -22 396 -22 c 0,8,9
 230 -22 230 -22 161 110 c 0,10,11
 101 221 101 221 131 359 c 0,12,13
 152 460 152 460 223.5 559.5 c 128,-1,14
 295 659 295 659 386.5 706.5 c 128,-1,15
 478 754 478 754 570 754 c 0,0,1
534 702 m 0,16,17
 491 702 491 702 443 677 c 128,-1,18
 395 652 395 652 355 589 c 128,-1,19
 315 526 315 526 294 426 c 0,20,21
 260 266 260 266 299 150 c 128,-1,22
 338 34 338 34 442 34 c 0,23,24
 520 34 520 34 584 98 c 128,-1,25
 648 162 648 162 681 318 c 0,26,27
 723 514 723 514 663 626 c 0,28,29
 622 702 622 702 534 702 c 0,16,17
EndSplineSet
EndChar

StartChar: p
Encoding: 112 112 74
Width: 819
Flags: W
LayerCount: 2
Fore
SplineSet
138 660 m 1,0,-1
 383 751 l 1,1,-1
 413 751 l 1,2,-1
 377 580 l 1,3,4
 454 677 454 677 520 715.5 c 128,-1,5
 586 754 586 754 649 754 c 0,6,7
 759 754 759 754 814 668 c 0,8,9
 882 562 882 562 846 393 c 0,10,11
 806 203 806 203 670 79 c 0,12,13
 560 -22 560 -22 424 -22 c 0,14,15
 365 -22 365 -22 324 -6 c 0,16,17
 295 6 295 6 262 42 c 1,18,-1
 215 -181 l 2,19,20
 199 -256 199 -256 204 -276.5 c 128,-1,21
 209 -297 209 -297 229 -309 c 128,-1,22
 249 -321 249 -321 309 -321 c 1,23,-1
 303 -350 l 1,24,-1
 -80 -350 l 1,25,-1
 -74 -321 l 1,26,-1
 -54 -321 l 2,27,28
 -10 -322 -10 -322 25 -304 c 0,29,30
 42 -295 42 -295 54.5 -275.5 c 128,-1,31
 67 -256 67 -256 84 -176 c 2,32,-1
 231 517 l 2,33,34
 246 588 246 588 244 607 c 128,-1,35
 242 626 242 626 230 636 c 128,-1,36
 218 646 218 646 194 646 c 0,37,38
 175 646 175 646 142 634 c 1,39,-1
 138 660 l 1,0,-1
367 533 m 1,40,-1
 309 259 l 2,41,42
 290 170 290 170 292 142 c 0,43,44
 293 96 293 96 329 61 c 128,-1,45
 365 26 365 26 431 26 c 0,46,47
 511 26 511 26 574 88 c 0,48,49
 657 170 657 170 688 318 c 0,50,51
 724 486 724 486 669 576 c 0,52,53
 631 638 631 638 561 638 c 0,54,55
 522 638 522 638 481 619 c 0,56,57
 449 605 449 605 367 533 c 1,40,-1
EndSplineSet
EndChar

StartChar: q
Encoding: 113 113 75
Width: 819
Flags: W
LayerCount: 2
Fore
SplineSet
860 754 m 1,0,-1
 660 -188 l 2,1,2
 645 -258 645 -258 650 -278 c 128,-1,3
 655 -298 655 -298 673 -309.5 c 128,-1,4
 691 -321 691 -321 750 -321 c 1,5,-1
 744 -350 l 1,6,-1
 375 -350 l 1,7,-1
 381 -321 l 1,8,-1
 396 -321 l 2,9,10
 441 -321 441 -321 467 -308 c 0,11,12
 485 -299 485 -299 499.5 -276.5 c 128,-1,13
 514 -254 514 -254 528 -188 c 2,14,-1
 594 127 l 1,15,16
 503 41 503 41 442 9.5 c 128,-1,17
 381 -22 381 -22 323 -22 c 0,18,19
 217 -22 217 -22 153.5 74.5 c 128,-1,20
 90 171 90 171 124 334 c 0,21,22
 164 520 164 520 299.5 637 c 128,-1,23
 435 754 435 754 591 754 c 0,24,25
 637 754 637 754 672.5 741.5 c 128,-1,26
 708 729 708 729 733 703 c 1,27,28
 784 726 784 726 833 754 c 1,29,-1
 860 754 l 1,0,-1
605 178 m 1,30,-1
 678 522 l 2,31,32
 691 582 691 582 683 616 c 128,-1,33
 675 650 675 650 640 674 c 128,-1,34
 605 698 605 698 554 698 c 0,35,36
 465 698 465 698 385 622 c 128,-1,37
 305 546 305 546 272 392 c 0,38,39
 240 244 240 244 289 167 c 128,-1,40
 338 90 338 90 430 90 c 0,41,42
 477 90 477 90 518 110.5 c 128,-1,43
 559 131 559 131 605 178 c 1,30,-1
EndSplineSet
EndChar

StartChar: r
Encoding: 114 114 76
Width: 601
Flags: W
LayerCount: 2
Fore
SplineSet
426 754 m 1,0,-1
 385 562 l 1,1,2
 547 742 547 742 643 742 c 0,3,4
 687 742 687 742 710.5 715.5 c 128,-1,5
 734 689 734 689 727 654 c 0,6,7
 720 622 720 622 694.5 600.5 c 128,-1,8
 669 579 669 579 641 579 c 256,9,10
 613 579 613 579 583.5 606.5 c 128,-1,11
 554 634 554 634 537 634 c 0,12,13
 523 634 523 634 503 618 c 0,14,15
 460 586 460 586 371 494 c 1,16,-1
 302 171 l 2,17,18
 289 110 289 110 297 79 c 0,19,20
 303 58 303 58 326.5 43.5 c 128,-1,21
 350 29 350 29 400 29 c 1,22,-1
 394 0 l 1,23,-1
 18 0 l 1,24,-1
 24 29 l 1,25,26
 80 29 80 29 111 46 c 0,27,28
 134 59 134 59 148 87 c 0,29,30
 155 101 155 101 169 165 c 2,31,-1
 229 449 l 2,32,33
 256 577 256 577 256 601.5 c 128,-1,34
 256 626 256 626 244 637 c 128,-1,35
 232 648 232 648 211 648 c 0,36,37
 187 648 187 648 153 636 c 1,38,-1
 151 665 l 1,39,-1
 392 754 l 1,40,-1
 426 754 l 1,0,-1
EndSplineSet
EndChar

StartChar: s
Encoding: 115 115 77
Width: 638
Flags: W
LayerCount: 2
Fore
SplineSet
685 754 m 1,0,-1
 632 505 l 1,1,-1
 605 505 l 1,2,3
 600 622 600 622 561.5 664.5 c 128,-1,4
 523 707 523 707 449 707 c 0,5,6
 393 707 393 707 352 677.5 c 128,-1,7
 311 648 311 648 304 612 c 0,8,9
 294 567 294 567 313 535 c 0,10,11
 331 502 331 502 400 466 c 2,12,-1
 504 409 l 2,13,14
 650 330 650 330 622 200 c 0,15,16
 601 100 601 100 512.5 39 c 128,-1,17
 424 -22 424 -22 330 -22 c 0,18,19
 263 -22 263 -22 182 2 c 0,20,21
 157 10 157 10 140 10 c 0,22,23
 122 10 122 10 107 -11 c 1,24,-1
 80 -11 l 1,25,-1
 136 250 l 1,26,-1
 163 250 l 1,27,28
 161 138 161 138 212 81.5 c 128,-1,29
 263 25 263 25 342 25 c 0,30,31
 397 25 397 25 439 57.5 c 128,-1,32
 481 90 481 90 490 135 c 0,33,34
 502 190 502 190 471 228 c 128,-1,35
 440 266 440 266 336 323.5 c 128,-1,36
 232 381 232 381 206 427 c 256,37,38
 180 473 180 473 195 542 c 0,39,40
 214 633 214 633 289 693.5 c 128,-1,41
 364 754 364 754 462 754 c 0,42,43
 506 754 506 754 563 736 c 0,44,45
 601 724 601 724 615 724 c 0,46,47
 627 724 627 724 636 729.5 c 128,-1,48
 645 735 645 735 658 754 c 1,49,-1
 685 754 l 1,0,-1
EndSplineSet
EndChar

StartChar: t
Encoding: 116 116 78
Width: 455
Flags: W
LayerCount: 2
Fore
SplineSet
471 974 m 1,0,-1
 419 733 l 1,1,-1
 590 733 l 1,2,-1
 578 677 l 1,3,-1
 407 677 l 1,4,-1
 306 202 l 2,5,6
 291 130 291 130 306.5 105.5 c 128,-1,7
 322 81 322 81 354 81 c 0,8,9
 380 81 380 81 408.5 97.5 c 128,-1,10
 437 114 437 114 457 146 c 1,11,-1
 489 146 l 1,12,13
 444 67 444 67 384 27.5 c 128,-1,14
 324 -12 324 -12 270 -12 c 0,15,16
 233 -12 233 -12 202.5 8.5 c 128,-1,17
 172 29 172 29 163 67 c 128,-1,18
 154 105 154 105 171 184 c 2,19,-1
 275 677 l 1,20,-1
 159 677 l 1,21,-1
 165 703 l 1,22,23
 213 721 213 721 268 763 c 128,-1,24
 323 805 323 805 371 862 c 0,25,26
 395 893 395 893 446 974 c 1,27,-1
 471 974 l 1,0,-1
EndSplineSet
EndChar

StartChar: u
Encoding: 117 117 79
Width: 819
Flags: W
LayerCount: 2
Fore
SplineSet
849 733 m 1,0,-1
 755 289 l 2,1,2
 728 162 728 162 728 133.5 c 128,-1,3
 728 105 728 105 738.5 93.5 c 128,-1,4
 749 82 749 82 767 82 c 0,5,6
 791 82 791 82 826 96 c 1,7,-1
 831 68 l 1,8,-1
 593 -22 l 1,9,-1
 557 -22 l 1,10,-1
 590 133 l 1,11,12
 473 30 473 30 418 4 c 128,-1,13
 363 -22 363 -22 308 -22 c 0,14,15
 246 -22 246 -22 208.5 13.5 c 128,-1,16
 171 49 171 49 165.5 105 c 128,-1,17
 160 161 160 161 181 263 c 2,18,-1
 251 590 l 2,19,20
 262 642 262 642 254.5 662 c 128,-1,21
 247 682 247 682 227.5 693 c 128,-1,22
 208 704 208 704 151 703 c 1,23,-1
 157 733 l 1,24,-1
 413 733 l 1,25,-1
 309 242 l 2,26,27
 287 140 287 140 316.5 108 c 128,-1,28
 346 76 346 76 396 76 c 0,29,30
 430 76 430 76 478.5 97.5 c 128,-1,31
 527 119 527 119 600 180 c 1,32,-1
 688 595 l 2,33,34
 701 658 701 658 683 680 c 128,-1,35
 665 702 665 702 593 703 c 1,36,-1
 599 733 l 1,37,-1
 849 733 l 1,0,-1
EndSplineSet
EndChar

StartChar: v
Encoding: 118 118 80
Width: 819
Flags: W
LayerCount: 2
Fore
SplineSet
169 733 m 1,0,-1
 513 733 l 1,1,-1
 507 703 l 1,2,-1
 485 703 l 2,3,4
 454 703 454 703 434.5 688 c 128,-1,5
 415 673 415 673 409 647 c 0,6,7
 403 619 403 619 412 581 c 2,8,-1
 496 176 l 1,9,-1
 756 596 l 2,10,11
 785 641 785 641 790 664 c 0,12,13
 792 675 792 675 786 682 c 0,14,15
 781 694 781 694 768 698.5 c 128,-1,16
 755 703 755 703 714 703 c 1,17,-1
 720 733 l 1,18,-1
 959 733 l 1,19,-1
 953 703 l 1,20,21
 910 700 910 700 891 686 c 0,22,23
 858 662 858 662 824 606 c 2,24,-1
 431 -22 l 1,25,-1
 398 -22 l 1,26,-1
 268 596 l 2,27,28
 259 639 259 639 247 658 c 128,-1,29
 235 677 235 677 213 690 c 0,30,31
 202 697 202 697 163 703 c 1,32,-1
 169 733 l 1,0,-1
EndSplineSet
EndChar

StartChar: w
Encoding: 119 119 81
Width: 1183
Flags: W
LayerCount: 2
Fore
SplineSet
165 733 m 1,0,-1
 473 733 l 1,1,-1
 467 703 l 1,2,3
 423 700 423 700 407.5 688 c 128,-1,4
 392 676 392 676 388 654 c 0,5,6
 382 629 382 629 388 594 c 2,7,-1
 455 172 l 1,8,-1
 686 515 l 1,9,-1
 667 623 l 2,10,11
 658 671 658 671 631 690 c 0,12,13
 616 701 616 701 568 703 c 1,14,-1
 574 733 l 1,15,-1
 923 733 l 1,16,-1
 917 703 l 1,17,18
 859 701 859 701 830 682 c 0,19,20
 812 670 812 670 806 642 c 0,21,22
 803 626 803 626 806 609 c 2,23,-1
 882 188 l 1,24,-1
 1124 594 l 2,25,26
 1149 637 1149 637 1154 662 c 0,27,28
 1158 678 1158 678 1144.5 690 c 128,-1,29
 1131 702 1131 702 1086 703 c 1,30,-1
 1092 733 l 1,31,-1
 1323 733 l 1,32,-1
 1317 703 l 1,33,34
 1245 693 1245 693 1195 609 c 2,35,-1
 816 -22 l 1,36,-1
 783 -22 l 1,37,-1
 699 446 l 1,38,-1
 386 -22 l 1,39,-1
 357 -22 l 1,40,-1
 252 594 l 2,41,42
 241 652 241 652 223 672.5 c 128,-1,43
 205 693 205 693 159 703 c 1,44,-1
 165 733 l 1,0,-1
EndSplineSet
EndChar

StartChar: x
Encoding: 120 120 82
Width: 819
Flags: W
LayerCount: 2
Fore
SplineSet
177 733 m 1,0,-1
 521 733 l 1,1,-1
 515 703 l 1,2,3
 483 703 483 703 467 692 c 128,-1,4
 451 681 451 681 447 662 c 256,5,6
 443 643 443 643 463 603 c 0,7,8
 469 590 469 590 481 563 c 2,9,-1
 516 480 l 1,10,-1
 593 563 l 2,11,12
 667 642 667 642 671 663 c 0,13,14
 675 680 675 680 664 691.5 c 128,-1,15
 653 703 653 703 623 703 c 1,16,-1
 629 733 l 1,17,-1
 877 733 l 1,18,-1
 871 703 l 1,19,20
 831 701 831 701 798 682 c 0,21,22
 753 654 753 654 665 563 c 2,23,-1
 537 430 l 1,24,-1
 664 167 l 2,25,26
 710 70 710 70 735 50.5 c 128,-1,27
 760 31 760 31 805 29 c 1,28,-1
 799 0 l 1,29,-1
 454 0 l 1,30,-1
 460 29 l 1,31,32
 496 29 496 29 519 45 c 0,33,34
 536 56 536 56 540 74 c 0,35,36
 544 93 544 93 509 167 c 2,37,-1
 434 324 l 1,38,-1
 284 167 l 2,39,40
 213 94 213 94 211 81 c 0,41,42
 207 62 207 62 221.5 46 c 128,-1,43
 236 30 236 30 272 29 c 1,44,-1
 266 0 l 1,45,-1
 27 0 l 1,46,-1
 33 29 l 1,47,48
 63 33 63 33 88 49 c 0,49,50
 123 72 123 72 215 167 c 2,51,-1
 412 371 l 1,52,-1
 315 573 l 2,53,54
 275 659 275 659 247 681 c 128,-1,55
 219 703 219 703 171 703 c 1,56,-1
 177 733 l 1,0,-1
EndSplineSet
EndChar

StartChar: y
Encoding: 121 121 83
Width: 819
Flags: W
LayerCount: 2
Fore
SplineSet
165 733 m 1,0,-1
 506 733 l 1,1,-1
 500 703 l 1,2,-1
 483 703 l 2,3,4
 447 703 447 703 425.5 687.5 c 128,-1,5
 404 672 404 672 399 649 c 0,6,7
 393 618 393 618 408 562 c 2,8,-1
 508 193 l 1,9,-1
 758 598 l 2,10,11
 778 630 778 630 785 662 c 0,12,13
 788 677 788 677 784 684 c 0,14,15
 780 693 780 693 767.5 698 c 128,-1,16
 755 703 755 703 720 703 c 1,17,-1
 726 733 l 1,18,-1
 965 733 l 1,19,-1
 959 703 l 1,20,21
 928 700 928 700 910 690.5 c 128,-1,22
 892 681 892 681 868 654 c 0,23,24
 858 643 858 643 828 593 c 2,25,-1
 373 -138 l 2,26,27
 307 -245 307 -245 225.5 -299.5 c 128,-1,28
 144 -354 144 -354 79 -354 c 0,29,30
 32 -354 32 -354 8 -326.5 c 128,-1,31
 -16 -299 -16 -299 -9 -264 c 0,32,33
 -1 -230 -1 -230 24.5 -210 c 128,-1,34
 50 -190 50 -190 89 -190 c 0,35,36
 115 -190 115 -190 158 -207 c 0,37,38
 187 -219 187 -219 195 -219 c 0,39,40
 219 -219 219 -219 252 -194.5 c 128,-1,41
 285 -170 285 -170 330 -98 c 2,42,-1
 409 29 l 1,43,-1
 263 582 l 2,44,45
 256 606 256 606 238 643 c 0,46,47
 224 671 224 671 213 681 c 0,48,49
 197 694 197 694 159 703 c 1,50,-1
 165 733 l 1,0,-1
EndSplineSet
EndChar

StartChar: z
Encoding: 122 122 84
Width: 727
Flags: W
LayerCount: 2
Fore
SplineSet
735 225 m 1,0,-1
 679 0 l 1,1,-1
 33 0 l 1,2,-1
 39 29 l 1,3,-1
 662 677 l 1,4,-1
 422 677 l 2,5,6
 345 677 345 677 319 667 c 128,-1,7
 293 657 293 657 271 629 c 0,8,9
 242 589 242 589 226 530 c 1,10,-1
 194 530 l 1,11,-1
 241 733 l 1,12,-1
 856 733 l 1,13,-1
 850 703 l 1,14,-1
 221 54 l 1,15,-1
 488 54 l 2,16,17
 572 54 572 54 605 68 c 128,-1,18
 638 82 638 82 663 117 c 0,19,20
 682 142 682 142 708 225 c 1,21,-1
 735 225 l 1,0,-1
EndSplineSet
EndChar

StartChar: braceleft
Encoding: 123 123 85
Width: 786
Flags: W
LayerCount: 2
Fore
SplineSet
603 -326 m 1,0,-1
 597 -354 l 1,1,2
 467 -335 467 -335 403 -245 c 128,-1,3
 339 -155 339 -155 362 -46 c 0,4,5
 374 12 374 12 409 88.5 c 128,-1,6
 444 165 444 165 452 207 c 0,7,8
 465 265 465 265 427 315 c 128,-1,9
 389 365 389 365 305 376 c 1,10,-1
 312 409 l 1,11,12
 401 420 401 420 460 469.5 c 128,-1,13
 519 519 519 519 531 578 c 0,14,15
 540 620 540 620 538 696 c 128,-1,16
 536 772 536 772 548 830 c 0,17,18
 571 939 571 939 674 1029.5 c 128,-1,19
 777 1120 777 1120 914 1138 c 1,20,-1
 908 1110 l 1,21,22
 810 1087 810 1087 755.5 1036.5 c 128,-1,23
 701 986 701 986 688 925 c 0,24,25
 678 878 678 878 679.5 800.5 c 128,-1,26
 681 723 681 723 670 669 c 0,27,28
 652 588 652 588 577 512 c 128,-1,29
 502 436 502 436 375 394 c 1,30,31
 481 352 481 352 525 274.5 c 128,-1,32
 569 197 569 197 552 116 c 0,33,34
 541 62 541 62 506.5 -15.5 c 128,-1,35
 472 -93 472 -93 462 -140 c 0,36,37
 449 -201 449 -201 481.5 -251.5 c 128,-1,38
 514 -302 514 -302 603 -326 c 1,0,-1
EndSplineSet
EndChar

StartChar: bar
Encoding: 124 124 86
Width: 328
Flags: W
LayerCount: 2
Fore
SplineSet
436 1138 m 1,0,-1
 119 -354 l 1,1,-1
 53 -354 l 1,2,-1
 370 1138 l 1,3,-1
 436 1138 l 1,0,-1
EndSplineSet
EndChar

StartChar: asciitilde
Encoding: 126 126 87
Width: 886
Flags: W
LayerCount: 2
Fore
SplineSet
948 540 m 1,0,-1
 984 540 l 1,1,2
 958 436 958 436 889.5 377 c 128,-1,3
 821 318 821 318 741 318 c 0,4,5
 704 318 704 318 664 330.5 c 128,-1,6
 624 343 624 343 463 415 c 0,7,8
 351 466 351 466 299 466 c 0,9,10
 243 466 243 466 197 432 c 128,-1,11
 151 398 151 398 119 320 c 1,12,-1
 84 320 l 1,13,14
 111 428 111 428 178 485 c 128,-1,15
 245 542 245 542 318 542 c 0,16,17
 353 542 353 542 387 531 c 0,18,19
 465 507 465 507 589 449 c 128,-1,20
 713 391 713 391 768 391 c 0,21,22
 828 391 828 391 876.5 429.5 c 128,-1,23
 925 468 925 468 948 540 c 1,0,-1
EndSplineSet
EndChar

StartChar: ccedilla
Encoding: 231 231 90
Width: 805
Flags: W
LayerCount: 2
Fore
SplineSet
775 198 m 1,0,-1
 764 142 l 1,1,2
 616 37 616 37 445 -9 c 1,3,-1
 408 -65 l 1,4,5
 481 -86 481 -86 481 -146 c 0,6,7
 481 -197 481 -197 424.5 -240.5 c 128,-1,8
 368 -284 368 -284 301 -284 c 0,9,10
 272 -284 272 -284 232 -277 c 1,11,-1
 287 -201 l 1,12,13
 322 -223 322 -223 348 -223 c 0,14,15
 412 -223 412 -223 412 -172 c 0,16,17
 412 -117 412 -117 311 -111 c 1,18,-1
 376 -19 l 1,19,20
 145 5 145 5 145 228 c 0,21,22
 145 445 145 445 302 622 c 128,-1,23
 459 799 459 799 652 799 c 0,24,25
 736 799 736 799 819 762 c 1,26,-1
 770 578 l 1,27,-1
 725 578 l 1,28,-1
 728 589 l 2,29,30
 735 622 735 622 735 638 c 0,31,32
 735 737 735 737 599 737 c 0,33,34
 475 737 475 737 382.5 595 c 128,-1,35
 290 453 290 453 290 263 c 0,36,37
 290 62 290 62 446 62 c 0,38,39
 563 62 563 62 775 198 c 1,0,-1
EndSplineSet
EndChar

StartChar: icircumflex
Encoding: 238 238 95
Width: 468
Flags: W
LayerCount: 2
Fore
SplineSet
328 0 m 1,0,-1
 140 0 l 1,1,-1
 140 1117 l 1,2,-1
 328 1117 l 1,3,-1
 328 0 l 1,0,-1
521 1297 m 1,4,-1
 370 1297 l 1,5,-1
 231 1560 l 1,6,-1
 93 1297 l 1,7,-1
 -54 1297 l 1,8,-1
 120 1676 l 1,9,-1
 347 1676 l 1,10,-1
 521 1297 l 1,4,-1
EndSplineSet
EndChar

StartChar: idieresis
Encoding: 239 239 96
Width: 468
Flags: W
LayerCount: 2
Fore
SplineSet
328 0 m 1,0,-1
 140 0 l 1,1,-1
 140 1117 l 1,2,-1
 328 1117 l 1,3,-1
 328 0 l 1,0,-1
506 1304 m 1,4,-1
 317 1304 l 1,5,-1
 317 1499 l 1,6,-1
 506 1499 l 1,7,-1
 506 1304 l 1,4,-1
151 1304 m 1,8,-1
 -38 1304 l 1,9,-1
 -38 1499 l 1,10,-1
 151 1499 l 1,11,-1
 151 1304 l 1,8,-1
EndSplineSet
EndChar

StartChar: dagger
Encoding: 8224 8224 101
Width: 932
Flags: W
LayerCount: 2
Fore
SplineSet
347 -231 m 1,0,-1
 567 622 l 1,1,-1
 248 592 l 1,2,-1
 297 700 l 1,3,-1
 576 668 l 1,4,-1
 607 1066 l 1,5,-1
 755 1093 l 1,6,-1
 621 668 l 1,7,-1
 941 700 l 1,8,-1
 895 592 l 1,9,-1
 612 622 l 1,10,-1
 496 -213 l 1,11,-1
 347 -231 l 1,0,-1
EndSplineSet
EndChar

StartChar: degree
Encoding: 176 176 102
Width: 409
Flags: W
LayerCount: 2
Fore
SplineSet
395 844 m 0,0,1
 344 844 344 844 307.5 880 c 128,-1,2
 271 916 271 916 271 968 c 0,3,4
 271 1021 271 1021 307.5 1057 c 128,-1,5
 344 1093 344 1093 395 1093 c 0,6,7
 447 1093 447 1093 483 1057 c 128,-1,8
 519 1021 519 1021 519 968 c 0,9,10
 519 916 519 916 483 880 c 128,-1,11
 447 844 447 844 395 844 c 0,0,1
395 888 m 256,12,13
 427 888 427 888 450.5 912 c 128,-1,14
 474 936 474 936 474 968 c 256,15,16
 474 1000 474 1000 450.5 1024 c 128,-1,17
 427 1048 427 1048 395 1048 c 256,18,19
 363 1048 363 1048 339 1024 c 128,-1,20
 315 1000 315 1000 315 968 c 256,21,22
 315 936 315 936 339 912 c 128,-1,23
 363 888 363 888 395 888 c 256,12,13
EndSplineSet
EndChar

StartChar: cent
Encoding: 162 162 103
Width: 693
Flags: W
LayerCount: 2
Fore
SplineSet
365 -18 m 1,0,-1
 404 176 l 1,1,2
 142 195 142 195 142 355 c 0,3,4
 142 459 142 459 242 534.5 c 128,-1,5
 342 610 342 610 492 622 c 1,6,-1
 527 799 l 1,7,-1
 572 799 l 1,8,-1
 537 622 l 1,9,10
 637 617 637 617 715 601 c 1,11,-1
 689 471 l 1,12,-1
 644 471 l 1,13,14
 644 477 644 477 645 488 c 0,15,16
 648 509 648 509 648 517 c 0,17,18
 648 572 648 572 528 578 c 1,19,-1
 459 229 l 1,20,21
 567 229 567 229 661 280 c 1,22,-1
 650 229 l 1,23,24
 544 176 544 176 448 176 c 1,25,-1
 409 -18 l 1,26,-1
 365 -18 l 1,0,-1
415 232 m 1,27,-1
 484 578 l 1,28,29
 272 547 272 547 272 383 c 0,30,31
 272 255 272 255 415 232 c 1,27,-1
EndSplineSet
EndChar

StartChar: sterling
Encoding: 163 163 104
Width: 874
Flags: W
LayerCount: 2
Fore
SplineSet
17 0 m 1,0,-1
 109 88 l 1,1,-1
 122 88 l 2,2,3
 229 88 229 88 272.5 136.5 c 128,-1,4
 316 185 316 185 347 343 c 2,5,-1
 356 391 l 1,6,-1
 196 391 l 1,7,-1
 205 436 l 1,8,-1
 365 436 l 1,9,-1
 378 499 l 2,10,11
 407 642 407 642 496.5 721 c 128,-1,12
 586 800 586 800 718 800 c 0,13,14
 797 800 797 800 892 765 c 1,15,-1
 858 586 l 1,16,-1
 808 586 l 1,17,-1
 810 598 l 2,18,19
 812 608 812 608 812 620 c 0,20,21
 812 746 812 746 679 746 c 0,22,23
 614 746 614 746 584.5 710 c 128,-1,24
 555 674 555 674 535 569 c 2,25,-1
 508 436 l 1,26,-1
 748 436 l 1,27,-1
 739 391 l 1,28,-1
 499 391 l 1,29,-1
 492 359 l 2,30,31
 473 265 473 265 427.5 208 c 128,-1,32
 382 151 382 151 275 88 c 1,33,-1
 480 88 l 2,34,35
 617 88 617 88 679 102.5 c 128,-1,36
 741 117 741 117 819 167 c 1,37,-1
 808 113 l 1,38,39
 735 35 735 35 665.5 7.5 c 128,-1,40
 596 -20 596 -20 470 -20 c 1,41,-1
 442 -19 l 1,42,-1
 17 0 l 1,0,-1
EndSplineSet
EndChar

StartChar: section
Encoding: 167 167 105
Width: 932
Flags: W
LayerCount: 2
Fore
SplineSet
107 -153 m 1,0,-1
 232 -80 l 1,1,2
 348 -178 348 -178 481 -178 c 0,3,4
 564 -178 564 -178 621.5 -127.5 c 128,-1,5
 679 -77 679 -77 679 -5 c 0,6,7
 679 48 679 48 645.5 80.5 c 128,-1,8
 612 113 612 113 513 160 c 2,9,-1
 440 193 l 2,10,11
 247 283 247 283 247 409 c 0,12,13
 247 528 247 528 409 652 c 1,14,15
 328 717 328 717 328 815 c 0,16,17
 328 938 328 938 440 1015.5 c 128,-1,18
 552 1093 552 1093 727 1093 c 0,19,20
 814 1093 814 1093 933 1060 c 1,21,-1
 897 879 l 1,22,-1
 853 879 l 1,23,24
 857 904 857 904 857 916 c 0,25,26
 857 1039 857 1039 652 1039 c 0,27,28
 560 1039 560 1039 500.5 987 c 128,-1,29
 441 935 441 935 441 853 c 0,30,31
 441 798 441 798 466 774.5 c 128,-1,32
 491 751 491 751 613 686 c 2,33,-1
 674 652 l 2,34,35
 854 553 854 553 854 444 c 0,36,37
 854 319 854 319 703 200 c 1,38,39
 801 136 801 136 801 40 c 0,40,41
 801 -75 801 -75 684.5 -153 c 128,-1,42
 568 -231 568 -231 397 -231 c 0,43,44
 244 -231 244 -231 107 -153 c 1,0,-1
667 229 m 1,45,46
 747 319 747 319 747 394 c 0,47,48
 747 470 747 470 628 527 c 2,49,-1
 558 562 l 2,50,51
 495 593 495 593 445 625 c 1,52,53
 355 545 355 545 355 456 c 0,54,55
 355 382 355 382 474 326 c 2,56,-1
 571 279 l 2,57,58
 607 263 607 263 667 229 c 1,45,46
EndSplineSet
EndChar

StartChar: bullet
Encoding: 8226 8226 106
Width: 931
Flags: W
LayerCount: 2
Fore
SplineSet
817 662 m 256,0,1
 817 517 817 517 713.5 414 c 128,-1,2
 610 311 610 311 465 311 c 256,3,4
 320 311 320 311 217 414 c 128,-1,5
 114 517 114 517 114 662 c 256,6,7
 114 807 114 807 217 910 c 128,-1,8
 320 1013 320 1013 465 1013 c 256,9,10
 610 1013 610 1013 713.5 910 c 128,-1,11
 817 807 817 807 817 662 c 256,0,1
EndSplineSet
EndChar

StartChar: paragraph
Encoding: 182 182 107
Width: 932
Flags: W
LayerCount: 2
Fore
SplineSet
365 -239 m 1,0,-1
 511 496 l 1,1,2
 241 542 241 542 241 747 c 0,3,4
 241 876 241 876 346.5 968 c 128,-1,5
 452 1060 452 1060 628 1085 c 1,6,-1
 660 1244 l 1,7,-1
 704 1244 l 1,8,-1
 673 1085 l 1,9,-1
 703 1086 l 2,10,11
 744 1086 744 1086 796 1080 c 1,12,-1
 828 1244 l 1,13,-1
 873 1244 l 1,14,-1
 839 1071 l 1,15,16
 891 1057 891 1057 948 1036 c 1,17,-1
 938 988 l 1,18,19
 898 1005 898 1005 830 1024 c 1,20,-1
 742 586 l 1,21,22
 794 603 794 603 869 643 c 1,23,-1
 859 586 l 1,24,25
 794 549 794 549 732 530 c 1,26,-1
 578 -239 l 1,27,-1
 534 -239 l 1,28,-1
 684 514 l 1,29,30
 597 496 597 496 556 496 c 1,31,-1
 409 -239 l 1,32,-1
 365 -239 l 1,0,-1
695 568 m 1,33,-1
 787 1031 l 1,34,35
 738 1040 738 1040 704 1040 c 0,36,37
 691 1040 691 1040 664 1039 c 1,38,-1
 567 553 l 1,39,40
 625 553 625 553 695 568 c 1,33,-1
EndSplineSet
EndChar

StartChar: registered
Encoding: 174 174 108
Width: 897
Flags: W
LayerCount: 2
Fore
SplineSet
580 445 m 0,0,1
 448 445 448 445 354.5 538.5 c 128,-1,2
 261 632 261 632 261 764 c 256,3,4
 261 896 261 896 354.5 990 c 128,-1,5
 448 1084 448 1084 580 1084 c 0,6,7
 714 1084 714 1084 807 990 c 128,-1,8
 900 896 900 896 900 764 c 256,9,10
 900 632 900 632 806.5 538.5 c 128,-1,11
 713 445 713 445 580 445 c 0,0,1
580 484 m 0,12,13
 695 484 695 484 777.5 567 c 128,-1,14
 860 650 860 650 860 764 c 256,15,16
 860 878 860 878 777.5 961 c 128,-1,17
 695 1044 695 1044 580 1044 c 0,18,19
 466 1044 466 1044 383.5 961 c 128,-1,20
 301 878 301 878 301 764 c 256,21,22
 301 650 301 650 383.5 567 c 128,-1,23
 466 484 466 484 580 484 c 0,12,13
529 737 m 1,24,-1
 501 596 l 1,25,-1
 394 596 l 1,26,-1
 403 639 l 1,27,-1
 456 639 l 1,28,-1
 511 915 l 1,29,-1
 458 915 l 1,30,-1
 466 959 l 1,31,-1
 598 959 l 2,32,33
 751 959 751 959 751 875 c 0,34,35
 751 800 751 800 650 750 c 1,36,-1
 685 639 l 1,37,-1
 747 639 l 1,38,-1
 738 596 l 1,39,-1
 641 596 l 1,40,-1
 591 737 l 1,41,-1
 529 737 l 1,24,-1
538 782 m 1,42,-1
 574 782 l 2,43,44
 697 782 697 782 697 866 c 0,45,46
 697 915 697 915 607 915 c 2,47,-1
 564 915 l 1,48,-1
 538 782 l 1,42,-1
EndSplineSet
EndChar

StartChar: copyright
Encoding: 169 169 109
Width: 1244
Flags: W
LayerCount: 2
Fore
SplineSet
725 -27 m 0,0,1
 495 -27 495 -27 330.5 137 c 128,-1,2
 166 301 166 301 166 533 c 256,3,4
 166 765 166 765 330.5 929 c 128,-1,5
 495 1093 495 1093 725 1093 c 0,6,7
 958 1093 958 1093 1122 929 c 128,-1,8
 1286 765 1286 765 1286 533 c 256,9,10
 1286 301 1286 301 1122 137 c 128,-1,11
 958 -27 958 -27 725 -27 c 0,0,1
725 18 m 0,12,13
 939 18 939 18 1090 169 c 128,-1,14
 1241 320 1241 320 1241 533 c 256,15,16
 1241 746 1241 746 1090 897 c 128,-1,17
 939 1048 939 1048 725 1048 c 0,18,19
 513 1048 513 1048 362 897 c 128,-1,20
 211 746 211 746 211 533 c 256,21,22
 211 320 211 320 362 169 c 128,-1,23
 513 18 513 18 725 18 c 0,12,13
890 246 m 1,24,25
 785 213 785 213 704 213 c 0,26,27
 580 213 580 213 508 279.5 c 128,-1,28
 436 346 436 346 436 462 c 0,29,30
 436 625 436 625 541 734.5 c 128,-1,31
 646 844 646 844 805 844 c 0,32,33
 896 844 896 844 1003 814 c 1,34,-1
 967 675 l 1,35,-1
 915 684 l 1,36,-1
 923 766 l 1,37,38
 854 798 854 798 792 798 c 0,39,40
 688 798 688 798 616 700 c 128,-1,41
 544 602 544 602 544 462 c 0,42,43
 544 271 544 271 722 271 c 0,44,45
 823 271 823 271 902 307 c 1,46,-1
 890 246 l 1,24,25
EndSplineSet
EndChar

StartChar: trademark
Encoding: 8482 8482 110
Width: 1333
Flags: W
LayerCount: 2
Fore
SplineSet
440 1021 m 1,0,-1
 307 1021 l 1,1,-1
 288 923 l 1,2,-1
 225 923 l 1,3,-1
 254 1066 l 1,4,-1
 751 1066 l 1,5,-1
 723 923 l 1,6,-1
 661 923 l 1,7,-1
 679 1021 l 1,8,-1
 546 1021 l 1,9,-1
 456 569 l 1,10,-1
 554 569 l 1,11,-1
 545 524 l 1,12,-1
 243 524 l 1,13,-1
 253 569 l 1,14,-1
 350 569 l 1,15,-1
 440 1021 l 1,0,-1
1011 569 m 1,16,-1
 942 956 l 1,17,-1
 857 524 l 1,18,-1
 688 524 l 1,19,-1
 697 569 l 1,20,-1
 794 569 l 1,21,-1
 884 1021 l 1,22,-1
 787 1021 l 1,23,-1
 796 1066 l 1,24,-1
 1036 1066 l 1,25,-1
 1092 747 l 1,26,-1
 1265 1066 l 1,27,-1
 1481 1066 l 1,28,-1
 1473 1021 l 1,29,-1
 1375 1021 l 1,30,-1
 1285 569 l 1,31,-1
 1383 569 l 1,32,-1
 1373 524 l 1,33,-1
 1178 524 l 1,34,-1
 1270 985 l 1,35,-1
 1041 569 l 1,36,-1
 1011 569 l 1,16,-1
EndSplineSet
EndChar

StartChar: acute
Encoding: 180 180 111
Width: 256
Flags: W
LayerCount: 2
Fore
SplineSet
118 999 m 1,0,1
 195 1083 195 1083 192 1046 c 1,2,3
 183 1014 183 1014 135.5 924 c 128,-1,4
 88 834 88 834 66 802 c 1,5,6
 55 796 55 796 62 848 c 1,7,8
 83 919 83 919 118 999 c 1,0,1
EndSplineSet
EndChar

StartChar: dieresis
Encoding: 168 168 112
Width: 862
Flags: W
LayerCount: 2
Fore
SplineSet
495 923 m 1,0,-1
 408 1033 l 1,1,-1
 520 1119 l 1,2,-1
 607 1003 l 1,3,-1
 495 923 l 1,0,-1
841 923 m 1,4,-1
 752 1035 l 1,5,-1
 866 1119 l 1,6,-1
 951 1004 l 1,7,-1
 841 923 l 1,4,-1
EndSplineSet
EndChar

StartChar: plusminus
Encoding: 177 177 113
Width: 932
Flags: W
LayerCount: 2
Fore
SplineSet
76 0 m 1,0,-1
 92 80 l 1,1,-1
 873 80 l 1,2,-1
 858 0 l 1,3,-1
 76 0 l 1,0,-1
469 213 m 1,4,-1
 525 493 l 1,5,-1
 174 493 l 1,6,-1
 189 573 l 1,7,-1
 541 573 l 1,8,-1
 596 852 l 1,9,-1
 676 852 l 1,10,-1
 621 573 l 1,11,-1
 971 573 l 1,12,-1
 956 493 l 1,13,-1
 605 493 l 1,14,-1
 549 213 l 1,15,-1
 469 213 l 1,4,-1
EndSplineSet
EndChar

StartChar: yen
Encoding: 165 165 114
Width: 965
Flags: W
LayerCount: 2
Fore
SplineSet
156 0 m 1,0,-1
 247 99 l 1,1,2
 269 97 269 97 279 97 c 0,3,4
 415 97 415 97 477 257 c 1,5,-1
 272 257 l 1,6,-1
 280 301 l 1,7,-1
 489 301 l 1,8,9
 495 346 495 346 499 409 c 1,10,-1
 301 409 l 1,11,-1
 310 453 l 1,12,-1
 499 453 l 1,13,14
 499 465 499 465 499 470 c 0,15,16
 499 567 499 567 463.5 631 c 128,-1,17
 428 695 428 695 375 695 c 256,18,19
 322 695 322 695 250 638 c 128,-1,20
 178 581 178 581 139 509 c 1,21,-1
 106 534 l 1,22,23
 172 650 172 650 268.5 724.5 c 128,-1,24
 365 799 365 799 452 799 c 0,25,26
 612 799 612 799 612 518 c 1,27,-1
 611 472 l 1,28,29
 736 799 736 799 971 799 c 0,30,31
 1045 799 1045 799 1100 765 c 1,32,-1
 1016 653 l 1,33,34
 967 684 967 684 915 684 c 0,35,36
 742 684 742 684 651 453 c 1,37,-1
 835 453 l 1,38,-1
 826 409 l 1,39,-1
 643 409 l 1,40,-1
 634 369 l 2,41,42
 627 335 627 335 609 301 c 1,43,-1
 805 301 l 1,44,-1
 796 257 l 1,45,-1
 585 257 l 1,46,47
 519 138 519 138 389 91 c 1,48,-1
 624 77 l 1,49,-1
 534 -18 l 1,50,-1
 156 0 l 1,0,-1
EndSplineSet
EndChar

StartChar: mu1
Encoding: 181 181 115
Width: 992
Flags: W
LayerCount: 2
Fore
SplineSet
100 -302 m 1,0,-1
 155 -76 l 1,1,-1
 270 500 l 2,2,3
 282 560 282 560 282 611 c 0,4,5
 282 693 282 693 206 782 c 1,6,-1
 368 790 l 1,7,8
 427 740 427 740 427 623 c 0,9,10
 427 576 427 576 409 481 c 2,11,-1
 355 213 l 2,12,13
 347 176 347 176 347 161 c 0,14,15
 347 106 347 106 391 106 c 0,16,17
 446 106 446 106 553.5 229 c 128,-1,18
 661 352 661 352 753 519 c 1,19,-1
 805 782 l 1,20,-1
 958 790 l 1,21,-1
 905 569 l 1,22,-1
 834 213 l 2,23,24
 818 132 818 132 818 106 c 0,25,26
 818 53 818 53 861 53 c 0,27,28
 931 53 931 53 1075 218 c 1,29,-1
 1062 151 l 1,30,31
 905 -18 905 -18 779 -18 c 0,32,33
 675 -18 675 -18 675 91 c 0,34,35
 675 128 675 128 692 213 c 2,36,-1
 727 391 l 1,37,-1
 717 391 l 1,38,39
 517 0 517 0 312 0 c 1,40,-1
 255 -284 l 1,41,-1
 100 -302 l 1,0,-1
EndSplineSet
EndChar

StartChar: logicalnot
Encoding: 172 172 116
Width: 932
Flags: W
LayerCount: 2
Fore
SplineSet
177 510 m 1,0,-1
 193 590 l 1,1,-1
 975 590 l 1,2,-1
 906 248 l 1,3,-1
 814 248 l 1,4,-1
 866 510 l 1,5,-1
 177 510 l 1,0,-1
EndSplineSet
EndChar

StartChar: florin
Encoding: 402 402 117
Width: 679
Flags: W
LayerCount: 2
Fore
SplineSet
158 -231 m 1,0,-1
 210 -18 l 1,1,-1
 286 364 l 1,2,-1
 108 364 l 1,3,-1
 117 409 l 1,4,-1
 294 409 l 1,5,-1
 298 427 l 2,6,7
 330 586 330 586 463 692.5 c 128,-1,8
 596 799 596 799 761 799 c 0,9,10
 818 799 818 799 860 784 c 1,11,-1
 764 678 l 1,12,13
 712 729 712 729 643 729 c 0,14,15
 500 729 500 729 457 512 c 2,16,-1
 436 409 l 1,17,-1
 623 409 l 1,18,-1
 614 364 l 1,19,-1
 427 364 l 1,20,-1
 313 -213 l 1,21,-1
 158 -231 l 1,0,-1
EndSplineSet
EndChar

StartChar: ellipsis
Encoding: 8230 8230 118
Width: 1474
Flags: W
LayerCount: 2
Fore
SplineSet
178 0 m 1,0,-1
 206 142 l 1,1,-1
 348 142 l 1,2,-1
 319 0 l 1,3,-1
 178 0 l 1,0,-1
667 0 m 1,4,-1
 695 142 l 1,5,-1
 837 142 l 1,6,-1
 808 0 l 1,7,-1
 667 0 l 1,4,-1
1155 0 m 1,8,-1
 1183 142 l 1,9,-1
 1326 142 l 1,10,-1
 1297 0 l 1,11,-1
 1155 0 l 1,8,-1
EndSplineSet
EndChar

StartChar: OE
Encoding: 338 338 119
Width: 1477
Flags: W
LayerCount: 2
Fore
SplineSet
816 0 m 1,0,-1
 831 70 l 1,1,2
 711 -27 711 -27 549 -27 c 0,3,4
 371 -27 371 -27 269 81 c 128,-1,5
 167 189 167 189 167 378 c 0,6,7
 167 661 167 661 358 877 c 128,-1,8
 549 1093 549 1093 799 1093 c 0,9,10
 931 1093 931 1093 1017 1007 c 1,11,-1
 1029 1066 l 1,12,-1
 1593 1066 l 1,13,-1
 1529 862 l 1,14,-1
 1484 862 l 1,15,16
 1490 891 1490 891 1490 913 c 0,17,18
 1490 969 1490 969 1424.5 990.5 c 128,-1,19
 1359 1012 1359 1012 1187 1012 c 2,20,-1
 1165 1012 l 1,21,-1
 1082 586 l 1,22,-1
 1402 586 l 1,23,-1
 1329 512 l 1,24,25
 1165 533 1165 533 1107 533 c 2,26,-1
 1071 533 l 1,27,-1
 1012 218 l 2,28,29
 1002 167 1002 167 1002 156 c 0,30,31
 1002 80 1002 80 1228 80 c 0,32,33
 1348 80 1348 80 1453 160 c 1,34,-1
 1442 103 l 1,35,36
 1318 -23 1318 -23 1203 -23 c 0,37,38
 1183 -23 1183 -23 1161 -21 c 2,39,-1
 816 0 l 1,0,-1
888 361 m 2,40,-1
 961 723 l 2,41,42
 974 786 974 786 974 841 c 0,43,44
 974 933 974 933 916.5 990.5 c 128,-1,45
 859 1048 859 1048 769 1048 c 0,46,47
 604 1048 604 1048 466.5 844 c 128,-1,48
 329 640 329 640 329 395 c 0,49,50
 329 218 329 218 396.5 117.5 c 128,-1,51
 464 17 464 17 585 17 c 0,52,53
 818 17 818 17 888 361 c 2,40,-1
EndSplineSet
EndChar

StartChar: oe
Encoding: 339 339 120
Width: 1350
Flags: W
LayerCount: 2
Fore
SplineSet
706 145 m 1,0,1
 535 -18 535 -18 370 -18 c 0,2,3
 273 -18 273 -18 209 55 c 128,-1,4
 145 128 145 128 145 237 c 0,5,6
 145 448 145 448 302.5 623.5 c 128,-1,7
 460 799 460 799 650 799 c 0,8,9
 794 799 794 799 859 630 c 1,10,11
 1025 799 1025 799 1183 799 c 0,12,13
 1246 799 1246 799 1286.5 758 c 128,-1,14
 1327 717 1327 717 1327 651 c 0,15,16
 1327 508 1327 508 1192.5 414 c 128,-1,17
 1058 320 1058 320 841 311 c 1,18,-1
 840 278 l 1,19,20
 840 66 840 66 998 66 c 0,21,22
 1113 66 1113 66 1327 200 c 1,23,-1
 1316 146 l 1,24,25
 1083 -18 1083 -18 917 -18 c 0,26,27
 758 -18 758 -18 706 145 c 1,0,1
431 35 m 0,28,29
 544 35 544 35 636 178.5 c 128,-1,30
 728 322 728 322 728 499 c 0,31,32
 728 607 728 607 689 672 c 128,-1,33
 650 737 650 737 584 737 c 0,34,35
 472 737 472 737 382 594 c 128,-1,36
 292 451 292 451 292 272 c 0,37,38
 292 35 292 35 431 35 c 0,28,29
844 355 m 1,39,40
 1004 368 1004 368 1097.5 438.5 c 128,-1,41
 1191 509 1191 509 1191 620 c 0,42,43
 1191 733 1191 733 1110 733 c 0,44,45
 1024 733 1024 733 941.5 616 c 128,-1,46
 859 499 859 499 844 355 c 1,39,40
EndSplineSet
EndChar

StartChar: endash
Encoding: 8211 8211 121
Width: 434
Flags: W
LayerCount: 2
Fore
SplineSet
434 154 m 1,0,-1
 0 154 l 1,1,-1
 0 234 l 1,2,-1
 434 234 l 1,3,-1
 434 154 l 1,0,-1
EndSplineSet
EndChar

StartChar: emdash
Encoding: 8212 8212 122
Width: 1862
Flags: W
LayerCount: 2
Fore
SplineSet
1866 572 m 1,0,-1
 -4 572 l 1,1,-1
 -4 732 l 1,2,-1
 1866 732 l 1,3,-1
 1866 572 l 1,0,-1
EndSplineSet
EndChar

StartChar: quotedblleft
Encoding: 8220 8220 123
Width: 662
Flags: W
LayerCount: 2
Fore
SplineSet
35 1182 m 1,0,1
 20 1167 20 1167 7 1150.5 c 128,-1,2
 -6 1134 -6 1134 -14.5 1115 c 128,-1,3
 -23 1096 -23 1096 -25.5 1074.5 c 128,-1,4
 -28 1053 -28 1053 -23 1028 c 0,5,6
 -17 999 -17 999 -1 965 c 128,-1,7
 15 931 15 931 23 893 c 0,8,9
 29 864 29 864 16 840.5 c 128,-1,10
 3 817 3 817 -26 817 c 0,11,12
 -50 817 -50 817 -67.5 825.5 c 128,-1,13
 -85 834 -85 834 -97.5 848.5 c 128,-1,14
 -110 863 -110 863 -118 882.5 c 128,-1,15
 -126 902 -126 902 -130 924 c 0,16,17
 -139 968 -139 968 -130 1009.5 c 128,-1,18
 -121 1051 -121 1051 -100 1087 c 128,-1,19
 -79 1123 -79 1123 -49 1152 c 128,-1,20
 -19 1181 -19 1181 14 1200 c 1,21,-1
 35 1182 l 1,0,1
317 1182 m 1,22,23
 302 1167 302 1167 289.5 1150.5 c 128,-1,24
 277 1134 277 1134 269 1115 c 128,-1,25
 261 1096 261 1096 259 1074.5 c 128,-1,26
 257 1053 257 1053 262 1028 c 0,27,28
 268 999 268 999 284 965 c 128,-1,29
 300 931 300 931 308 893 c 0,30,31
 314 864 314 864 300.5 840.5 c 128,-1,32
 287 817 287 817 258 817 c 0,33,34
 211 817 211 817 185.5 848.5 c 128,-1,35
 160 880 160 880 151 924 c 0,36,37
 142 967 142 967 151 1009 c 128,-1,38
 160 1051 160 1051 182 1087.5 c 128,-1,39
 204 1124 204 1124 234.5 1153 c 128,-1,40
 265 1182 265 1182 299 1200 c 1,41,-1
 317 1182 l 1,22,23
EndSplineSet
EndChar

StartChar: quotedblright
Encoding: 8221 8221 124
Width: 662
Flags: W
LayerCount: 2
Fore
SplineSet
202 819 m 1,0,1
 233 850 233 850 252 885 c 128,-1,2
 271 920 271 920 260 971 c 0,3,4
 254 1000 254 1000 238 1033 c 128,-1,5
 222 1066 222 1066 213 1108 c 0,6,7
 207 1137 207 1137 220.5 1160.5 c 128,-1,8
 234 1184 234 1184 260 1184 c 0,9,10
 285 1184 285 1184 303 1175.5 c 128,-1,11
 321 1167 321 1167 334 1152.5 c 128,-1,12
 347 1138 347 1138 355.5 1118.5 c 128,-1,13
 364 1099 364 1099 369 1077 c 0,14,15
 378 1032 378 1032 368.5 990.5 c 128,-1,16
 359 949 359 949 337 913 c 128,-1,17
 315 877 315 877 284 848 c 128,-1,18
 253 819 253 819 220 801 c 1,19,-1
 202 819 l 1,0,1
-82 819 m 1,20,21
 -51 850 -51 850 -33 885 c 128,-1,22
 -15 920 -15 920 -26 971 c 0,23,24
 -32 1000 -32 1000 -47 1033 c 128,-1,25
 -62 1066 -62 1066 -71 1108 c 0,26,27
 -77 1137 -77 1137 -64 1160.5 c 128,-1,28
 -51 1184 -51 1184 -22 1184 c 0,29,30
 2 1184 2 1184 20 1175.5 c 128,-1,31
 38 1167 38 1167 50.5 1152.5 c 128,-1,32
 63 1138 63 1138 71 1118.5 c 128,-1,33
 79 1099 79 1099 84 1077 c 0,34,35
 93 1032 93 1032 83.5 990 c 128,-1,36
 74 948 74 948 52.5 912 c 128,-1,37
 31 876 31 876 0 847.5 c 128,-1,38
 -31 819 -31 819 -64 801 c 1,39,-1
 -82 819 l 1,20,21
EndSplineSet
EndChar

StartChar: divide
Encoding: 247 247 125
Width: 1093
Flags: W
LayerCount: 2
Fore
SplineSet
480 674 m 1,0,-1
 322 674 l 1,1,-1
 284 855 l 1,2,-1
 442 855 l 1,3,-1
 480 674 l 1,0,-1
851 383 m 1,4,-1
 75 383 l 1,5,-1
 53 489 l 1,6,-1
 829 489 l 1,7,-1
 851 383 l 1,4,-1
620 17 m 1,8,-1
 462 17 l 1,9,-1
 423 198 l 1,10,-1
 581 198 l 1,11,-1
 620 17 l 1,8,-1
EndSplineSet
EndChar

StartChar: lozenge
Encoding: 9674 9674 126
Width: 1118
Flags: W
LayerCount: 2
Fore
SplineSet
854 699 m 1,0,-1
 518 197 l 1,1,-1
 -31 699 l 1,2,-1
 304 1202 l 1,3,-1
 854 699 l 1,0,-1
699 699 m 1,4,-1
 339 1036 l 1,5,-1
 122 699 l 1,6,-1
 482 364 l 1,7,-1
 699 699 l 1,4,-1
EndSplineSet
EndChar

StartChar: Euro
Encoding: 8364 8364 128
Width: 812
Flags: W
LayerCount: 2
Fore
SplineSet
210 464 m 1,0,1
 252 596 252 596 371.5 697.5 c 128,-1,2
 491 799 491 799 674 799 c 0,3,4
 773 799 773 799 885 769 c 1,5,-1
 845 624 l 1,6,-1
 795 624 l 1,7,8
 801 653 801 653 801 665 c 0,9,10
 801 701 801 701 757 726 c 128,-1,11
 713 751 713 751 649 751 c 0,12,13
 445 751 445 751 349 464 c 1,14,-1
 686 464 l 1,15,-1
 677 420 l 1,16,-1
 337 420 l 2,17,18
 335 418 335 418 332 404 c 2,19,-1
 325 365 l 1,20,-1
 325 360 l 1,21,-1
 665 360 l 1,22,-1
 656 315 l 1,23,-1
 319 315 l 1,24,-1
 319 289 l 2,25,26
 319 178 319 178 370 115.5 c 128,-1,27
 421 53 421 53 512 53 c 0,28,29
 636 53 636 53 765 135 c 1,30,-1
 755 72 l 1,31,32
 604 -18 604 -18 459 -18 c 0,33,34
 324 -18 324 -18 249.5 59 c 128,-1,35
 175 136 175 136 175 274 c 0,36,37
 175 300 175 300 175 315 c 1,38,-1
 111 315 l 1,39,-1
 120 360 l 1,40,-1
 182 360 l 1,41,-1
 182 364 l 1,42,43
 189 401 189 401 194 420 c 1,44,-1
 118 420 l 1,45,-1
 127 464 l 1,46,-1
 210 464 l 1,0,1
EndSplineSet
EndChar

StartChar: guilsinglleft
Encoding: 8249 8249 129
Width: 560
Flags: W
LayerCount: 2
Fore
SplineSet
375 71 m 1,0,1
 304 237 304 237 167 391 c 1,2,3
 358 507 358 507 437 653 c 1,4,-1
 587 711 l 1,5,6
 536 589 536 589 315 441 c 1,7,8
 423 310 423 310 499 138 c 1,9,-1
 375 71 l 1,0,1
EndSplineSet
EndChar

StartChar: guilsinglright
Encoding: 8250 8250 130
Width: 560
Flags: W
LayerCount: 2
Fore
SplineSet
339 711 m 1,0,1
 410 545 410 545 546 391 c 1,2,3
 356 275 356 275 276 128 c 1,4,-1
 128 71 l 1,5,6
 178 193 178 193 400 341 c 1,7,8
 293 470 293 470 215 643 c 1,9,-1
 339 711 l 1,0,1
EndSplineSet
EndChar

StartChar: daggerdbl
Encoding: 8225 8225 133
Width: 932
Flags: W
LayerCount: 2
Fore
SplineSet
349 -231 m 1,0,-1
 481 185 l 1,1,-1
 161 154 l 1,2,-1
 211 261 l 1,3,-1
 490 229 l 1,4,-1
 567 616 l 1,5,-1
 247 586 l 1,6,-1
 297 693 l 1,7,-1
 575 661 l 1,8,-1
 608 1066 l 1,9,-1
 758 1093 l 1,10,-1
 620 661 l 1,11,-1
 940 693 l 1,12,-1
 889 586 l 1,13,-1
 611 616 l 1,14,-1
 535 229 l 1,15,-1
 855 261 l 1,16,-1
 804 154 l 1,17,-1
 525 185 l 1,18,-1
 499 -213 l 1,19,-1
 349 -231 l 1,0,-1
EndSplineSet
EndChar

StartChar: middot.001
Encoding: 8729 8729 134
Width: 620
Flags: W
LayerCount: 2
Fore
SplineSet
319 516 m 1,0,-1
 80 516 l 1,1,-1
 22 789 l 1,2,-1
 261 789 l 1,3,-1
 319 516 l 1,0,-1
EndSplineSet
EndChar

StartChar: quotesinglbase
Encoding: 8218 8218 135
Width: 418
Flags: W
LayerCount: 2
Fore
SplineSet
103 128 m 1,0,-1
 247 231 l 1,1,-1
 353 90 l 1,2,3
 345 -56 345 -56 262.5 -134.5 c 128,-1,4
 180 -213 180 -213 36 -213 c 1,5,-1
 76 -168 l 1,6,7
 189 -158 189 -158 211 -18 c 1,8,-1
 103 128 l 1,0,-1
EndSplineSet
EndChar

StartChar: quotedblbase
Encoding: 8222 8222 136
Width: 684
Flags: W
LayerCount: 2
Fore
SplineSet
91 92 m 1,0,-1
 204 178 l 1,1,-1
 292 64 l 1,2,3
 270 -213 270 -213 31 -213 c 1,4,-1
 60 -168 l 1,5,6
 166 -148 166 -148 179 -16 c 1,7,-1
 91 92 l 1,0,-1
401 92 m 1,8,-1
 516 178 l 1,9,-1
 602 64 l 1,10,11
 581 -213 581 -213 341 -213 c 1,12,-1
 372 -168 l 1,13,14
 476 -148 476 -148 490 -16 c 1,15,-1
 401 92 l 1,8,-1
EndSplineSet
EndChar

StartChar: perthousand
Encoding: 8240 8240 137
Width: 1571
Flags: W
LayerCount: 2
Fore
SplineSet
385 533 m 0,0,1
 304 533 304 533 254.5 584.5 c 128,-1,2
 205 636 205 636 205 722 c 0,3,4
 205 865 205 865 286.5 965.5 c 128,-1,5
 368 1066 368 1066 483 1066 c 0,6,7
 567 1066 567 1066 617.5 1014.5 c 128,-1,8
 668 963 668 963 668 877 c 0,9,10
 668 733 668 733 585.5 633 c 128,-1,11
 503 533 503 533 385 533 c 0,0,1
311 715 m 0,12,13
 311 578 311 578 398 578 c 0,14,15
 463 578 463 578 517 671.5 c 128,-1,16
 571 765 571 765 571 881 c 0,17,18
 571 1022 571 1022 483 1022 c 0,19,20
 416 1022 416 1022 363.5 928 c 128,-1,21
 311 834 311 834 311 715 c 0,12,13
850 0 m 0,22,23
 769 0 769 0 719.5 51.5 c 128,-1,24
 670 103 670 103 670 189 c 0,25,26
 670 331 670 331 751 432 c 128,-1,27
 832 533 832 533 947 533 c 0,28,29
 1031 533 1031 533 1081.5 481.5 c 128,-1,30
 1132 430 1132 430 1132 344 c 0,31,32
 1132 200 1132 200 1049.5 100 c 128,-1,33
 967 0 967 0 850 0 c 0,22,23
776 182 m 0,34,35
 776 44 776 44 862 44 c 0,36,37
 929 44 929 44 982 138 c 128,-1,38
 1035 232 1035 232 1035 348 c 0,39,40
 1035 490 1035 490 948 490 c 0,41,42
 880 490 880 490 828 395.5 c 128,-1,43
 776 301 776 301 776 182 c 0,34,35
131 -27 m 1,44,-1
 1111 1093 l 1,45,-1
 1206 1093 l 1,46,-1
 225 -27 l 1,47,-1
 131 -27 l 1,44,-1
1376 0 m 0,48,49
 1294 0 1294 0 1244.5 51.5 c 128,-1,50
 1195 103 1195 103 1195 189 c 0,51,52
 1195 331 1195 331 1276.5 432 c 128,-1,53
 1358 533 1358 533 1473 533 c 0,54,55
 1557 533 1557 533 1607.5 481.5 c 128,-1,56
 1658 430 1658 430 1658 344 c 0,57,58
 1658 200 1658 200 1575.5 100 c 128,-1,59
 1493 0 1493 0 1376 0 c 0,48,49
1301 183 m 0,60,61
 1301 44 1301 44 1389 44 c 0,62,63
 1453 44 1453 44 1507 138 c 128,-1,64
 1561 232 1561 232 1561 347 c 0,65,66
 1561 490 1561 490 1473 490 c 0,67,68
 1406 490 1406 490 1353.5 395.5 c 128,-1,69
 1301 301 1301 301 1301 183 c 0,60,61
EndSplineSet
EndChar

StartChar: circumflex
Encoding: 710 710 139
Width: 862
Flags: W
LayerCount: 2
Fore
SplineSet
870 976 m 1,0,-1
 783 923 l 1,1,2
 729 984 729 984 693 1082 c 1,3,4
 652 1032 652 1032 574 953 c 0,5,6
 571 949 571 949 553 931 c 1,7,-1
 452 923 l 1,8,9
 607 1037 607 1037 674 1120 c 1,10,-1
 772 1182 l 1,11,12
 805 1069 805 1069 870 976 c 1,0,-1
EndSplineSet
EndChar

StartChar: cedilla
Encoding: 184 184 140
Width: 862
Flags: W
LayerCount: 2
Fore
SplineSet
456 0 m 1,0,-1
 414 -64 l 1,1,2
 485 -86 485 -86 485 -147 c 0,3,4
 485 -198 485 -198 428.5 -241 c 128,-1,5
 372 -284 372 -284 303 -284 c 0,6,7
 272 -284 272 -284 237 -277 c 1,8,-1
 292 -201 l 1,9,10
 326 -223 326 -223 352 -223 c 0,11,12
 416 -223 416 -223 416 -171 c 0,13,14
 416 -112 416 -112 318 -112 c 1,15,-1
 394 0 l 1,16,-1
 456 0 l 1,0,-1
EndSplineSet
EndChar

StartChar: brokenbar
Encoding: 166 166 141
Width: 355
Flags: W
LayerCount: 2
Fore
SplineSet
86 -213 m 1,0,-1
 203 373 l 1,1,-1
 301 373 l 1,2,-1
 184 -213 l 1,3,-1
 86 -213 l 1,0,-1
238 551 m 1,4,-1
 355 1137 l 1,5,-1
 453 1137 l 1,6,-1
 337 551 l 1,7,-1
 238 551 l 1,4,-1
EndSplineSet
EndChar

StartChar: minus
Encoding: 8722 8722 142
Width: 1490
Flags: W
LayerCount: 2
Fore
SplineSet
1186 572 m 1,0,-1
 60 572 l 1,1,-1
 26 732 l 1,2,-1
 1152 732 l 1,3,-1
 1186 572 l 1,0,-1
EndSplineSet
EndChar

StartChar: multiply
Encoding: 215 215 143
Width: 740
Flags: W
LayerCount: 2
Fore
SplineSet
280 393 m 1,0,-1
 137 212 l 1,1,-1
 52 283 l 1,2,-1
 195 464 l 1,3,-1
 -45 663 l 1,4,-1
 15 740 l 1,5,-1
 256 542 l 1,6,-1
 406 732 l 1,7,-1
 491 661 l 1,8,-1
 341 471 l 1,9,-1
 572 281 l 1,10,-1
 511 203 l 1,11,-1
 280 393 l 1,0,-1
EndSplineSet
EndChar

StartChar: onesuperior
Encoding: 185 185 144
Width: 596
Flags: W
LayerCount: 2
Fore
SplineSet
573 1093 m 1,0,-1
 487 657 l 2,1,2
 476 607 476 607 476 589 c 0,3,4
 476 570 476 570 532 563 c 1,5,-1
 591 560 l 1,6,-1
 582 516 l 1,7,-1
 210 516 l 1,8,-1
 218 560 l 1,9,-1
 279 563 l 2,10,11
 328 567 328 567 337.5 578 c 128,-1,12
 347 589 347 589 362 657 c 2,13,-1
 418 938 l 2,14,15
 423 960 423 960 423 978 c 0,16,17
 423 1004 423 1004 355 1013 c 2,18,-1
 310 1021 l 1,19,-1
 319 1066 l 1,20,-1
 573 1093 l 1,0,-1
EndSplineSet
EndChar

StartChar: twosuperior
Encoding: 178 178 145
Width: 596
Flags: W
LayerCount: 2
Fore
SplineSet
187 516 m 1,0,-1
 207 617 l 1,1,2
 362 712 362 712 454.5 803.5 c 128,-1,3
 547 895 547 895 547 952 c 0,4,5
 547 1046 547 1046 463 1046 c 0,6,7
 352 1046 352 1046 331 928 c 1,8,-1
 278 928 l 1,9,-1
 304 1059 l 1,10,11
 400 1093 400 1093 484 1093 c 0,12,13
 674 1093 674 1093 674 959 c 0,14,15
 674 887 674 887 624.5 842 c 128,-1,16
 575 797 575 797 297 617 c 1,17,-1
 607 617 l 1,18,-1
 587 516 l 1,19,-1
 187 516 l 1,0,-1
EndSplineSet
EndChar

StartChar: threesuperior
Encoding: 179 179 146
Width: 596
Flags: W
LayerCount: 2
Fore
SplineSet
185 545 m 1,0,-1
 257 620 l 1,1,2
 337 556 337 556 418 556 c 0,3,4
 460 556 460 556 490.5 587 c 128,-1,5
 521 618 521 618 521 661 c 0,6,7
 521 776 521 776 345 776 c 0,8,9
 323 776 323 776 301 773 c 1,10,-1
 331 859 l 1,11,12
 350 860 350 860 365 860 c 0,13,14
 412 860 412 860 466 849 c 1,15,16
 547 886 547 886 547 961 c 0,17,18
 547 1046 547 1046 454 1046 c 0,19,20
 365 1046 365 1046 342 941 c 1,21,-1
 289 941 l 1,22,-1
 311 1057 l 1,23,24
 398 1093 398 1093 484 1093 c 0,25,26
 662 1093 662 1093 662 984 c 0,27,28
 662 893 662 893 520 829 c 1,29,30
 625 790 625 790 625 693 c 0,31,32
 625 616 625 616 554.5 563 c 128,-1,33
 484 510 484 510 378 510 c 0,34,35
 289 510 289 510 185 545 c 1,0,-1
EndSplineSet
EndChar

StartChar: onehalf
Encoding: 189 189 147
Width: 1262
Flags: W
LayerCount: 2
Fore
SplineSet
528 1093 m 1,0,-1
 442 657 l 2,1,2
 432 606 432 606 432 589 c 0,3,4
 432 570 432 570 488 563 c 1,5,-1
 547 560 l 1,6,-1
 538 516 l 1,7,-1
 165 516 l 1,8,-1
 174 560 l 1,9,-1
 235 563 l 2,10,11
 283 567 283 567 293 578 c 128,-1,12
 303 589 303 589 318 657 c 2,13,-1
 373 938 l 2,14,15
 378 960 378 960 378 978 c 0,16,17
 378 1004 378 1004 310 1013 c 2,18,-1
 265 1021 l 1,19,-1
 274 1066 l 1,20,-1
 528 1093 l 1,0,-1
160 -27 m 1,21,-1
 1180 1093 l 1,22,-1
 1280 1093 l 1,23,-1
 257 -27 l 1,24,-1
 160 -27 l 1,21,-1
778 0 m 1,25,-1
 797 103 l 1,26,27
 952 197 952 197 1045 288 c 128,-1,28
 1138 379 1138 379 1138 436 c 0,29,30
 1138 530 1138 530 1053 530 c 0,31,32
 942 530 942 530 922 413 c 1,33,-1
 868 413 l 1,34,-1
 895 544 l 1,35,36
 989 578 989 578 1075 578 c 0,37,38
 1264 578 1264 578 1264 445 c 0,39,40
 1264 373 1264 373 1214.5 328 c 128,-1,41
 1165 283 1165 283 887 103 c 1,42,-1
 1197 103 l 1,43,-1
 1177 0 l 1,44,-1
 778 0 l 1,25,-1
EndSplineSet
EndChar

StartChar: onequarter
Encoding: 188 188 148
Width: 1262
Flags: W
LayerCount: 2
Fore
SplineSet
546 1093 m 1,0,-1
 460 657 l 2,1,2
 450 606 450 606 450 589 c 0,3,4
 450 570 450 570 506 563 c 1,5,-1
 565 560 l 1,6,-1
 556 516 l 1,7,-1
 183 516 l 1,8,-1
 192 560 l 1,9,-1
 253 563 l 2,10,11
 301 567 301 567 311 578 c 128,-1,12
 321 589 321 589 336 657 c 2,13,-1
 391 938 l 2,14,15
 396 960 396 960 396 978 c 0,16,17
 396 1004 396 1004 328 1013 c 2,18,-1
 283 1021 l 1,19,-1
 292 1066 l 1,20,-1
 546 1093 l 1,0,-1
178 -27 m 1,21,-1
 1198 1093 l 1,22,-1
 1298 1093 l 1,23,-1
 275 -27 l 1,24,-1
 178 -27 l 1,21,-1
981 164 m 1,25,-1
 732 182 l 1,26,-1
 747 261 l 1,27,-1
 1102 578 l 1,28,-1
 1170 578 l 1,29,-1
 1102 236 l 1,30,-1
 1212 229 l 1,31,-1
 1168 149 l 1,32,-1
 1086 157 l 1,33,34
 1076 102 1076 102 1076 74 c 0,35,36
 1076 52 1076 52 1129 49 c 2,37,-1
 1189 45 l 1,38,-1
 1180 0 l 1,39,-1
 820 0 l 1,40,-1
 829 45 l 1,41,-1
 886 49 l 2,42,43
 937 52 937 52 952 64 c 128,-1,44
 967 76 967 76 973 117 c 0,45,46
 976 134 976 134 981 164 c 1,25,-1
997 244 m 1,47,-1
 1038 446 l 1,48,-1
 823 255 l 1,49,-1
 997 244 l 1,47,-1
EndSplineSet
EndChar

StartChar: threequarters
Encoding: 190 190 149
Width: 1262
Flags: W
LayerCount: 2
Fore
SplineSet
174 545 m 1,0,-1
 247 620 l 1,1,2
 326 556 326 556 407 556 c 0,3,4
 448 556 448 556 478.5 587 c 128,-1,5
 509 618 509 618 509 661 c 0,6,7
 509 776 509 776 333 776 c 0,8,9
 311 776 311 776 289 773 c 1,10,-1
 319 859 l 1,11,12
 338 860 338 860 355 860 c 0,13,14
 401 860 401 860 455 849 c 1,15,16
 535 886 535 886 535 961 c 0,17,18
 535 1046 535 1046 442 1046 c 0,19,20
 354 1046 354 1046 330 941 c 1,21,-1
 277 941 l 1,22,-1
 301 1057 l 1,23,24
 387 1093 387 1093 472 1093 c 0,25,26
 651 1093 651 1093 651 984 c 0,27,28
 651 893 651 893 508 829 c 1,29,30
 614 790 614 790 614 693 c 0,31,32
 614 616 614 616 543 563 c 128,-1,33
 472 510 472 510 366 510 c 0,34,35
 277 510 277 510 174 545 c 1,0,-1
178 -27 m 1,36,-1
 1198 1093 l 1,37,-1
 1298 1093 l 1,38,-1
 275 -27 l 1,39,-1
 178 -27 l 1,36,-1
981 164 m 1,40,-1
 732 182 l 1,41,-1
 747 261 l 1,42,-1
 1102 578 l 1,43,-1
 1170 578 l 1,44,-1
 1102 236 l 1,45,-1
 1212 229 l 1,46,-1
 1168 149 l 1,47,-1
 1086 157 l 1,48,49
 1076 102 1076 102 1076 74 c 0,50,51
 1076 52 1076 52 1129 49 c 2,52,-1
 1189 45 l 1,53,-1
 1180 0 l 1,54,-1
 820 0 l 1,55,-1
 829 45 l 1,56,-1
 886 49 l 2,57,58
 938 52 938 52 952.5 64 c 128,-1,59
 967 76 967 76 973 117 c 0,60,61
 976 134 976 134 981 164 c 1,40,-1
997 244 m 1,62,-1
 1038 446 l 1,63,-1
 823 255 l 1,64,-1
 997 244 l 1,62,-1
EndSplineSet
EndChar

StartChar: macron
Encoding: 175 175 150
Width: 1118
Flags: W
LayerCount: 2
Fore
SplineSet
1134 1659 m 1,0,-1
 -16 1659 l 1,1,-1
 -16 1789 l 1,2,-1
 1134 1789 l 1,3,-1
 1134 1659 l 1,0,-1
EndSplineSet
EndChar

StartChar: periodcentered
Encoding: 183 183 151
Width: 724
Flags: W
LayerCount: 2
Fore
SplineSet
482 832 m 1,0,-1
 243 832 l 1,1,-1
 243 1117 l 1,2,-1
 482 1117 l 1,3,-1
 482 832 l 1,0,-1
EndSplineSet
EndChar

StartChar: H22073
Encoding: 9633 9633 152
Width: 1237
Flags: W
LayerCount: 2
Fore
SplineSet
-54 944 m 1,0,-1
 889 944 l 1,1,-1
 1090 0 l 1,2,-1
 146 0 l 1,3,-1
 -54 944 l 1,0,-1
37 868 m 1,4,-1
 205 76 l 1,5,-1
 997 76 l 1,6,-1
 829 868 l 1,7,-1
 37 868 l 1,4,-1
EndSplineSet
EndChar

StartChar: H18543
Encoding: 9642 9642 153
Width: 1089
Flags: W
LayerCount: 2
Fore
SplineSet
674 994 m 1,0,-1
 822 300 l 1,1,-1
 128 300 l 1,2,-1
 -19 994 l 1,3,-1
 674 994 l 1,0,-1
EndSplineSet
EndChar

StartChar: H18551
Encoding: 9643 9643 154
Width: 1089
Flags: W
LayerCount: 2
Fore
SplineSet
676 996 m 1,0,-1
 824 301 l 1,1,-1
 129 301 l 1,2,-1
 -18 996 l 1,3,-1
 676 996 l 1,0,-1
586 882 m 1,4,-1
 119 882 l 1,5,-1
 218 415 l 1,6,-1
 685 415 l 1,7,-1
 586 882 l 1,4,-1
EndSplineSet
EndChar

StartChar: H18533
Encoding: 9679 9679 155
Width: 1339
Flags: W
LayerCount: 2
Fore
SplineSet
51 719 m 0,0,1
 8 920 8 920 119 1061 c 128,-1,2
 230 1202 230 1202 429 1202 c 0,3,4
 629 1202 629 1202 800 1061 c 128,-1,5
 971 920 971 920 1014 719 c 0,6,7
 1056 521 1056 521 945 380 c 128,-1,8
 834 239 834 239 634 239 c 0,9,10
 435 239 435 239 264 380 c 128,-1,11
 93 521 93 521 51 719 c 0,0,1
EndSplineSet
EndChar

StartChar: openbullet
Encoding: 9702 9702 156
Width: 1089
Flags: W
LayerCount: 2
Fore
SplineSet
295 1171 m 0,0,1
 451 1171 451 1171 585 1060.5 c 128,-1,2
 719 950 719 950 752 794 c 256,3,4
 785 638 785 638 698 528 c 128,-1,5
 611 418 611 418 455 418 c 256,6,7
 299 418 299 418 165.5 528 c 128,-1,8
 32 638 32 638 0 794 c 0,9,10
 -33 950 -33 950 52.5 1060.5 c 128,-1,11
 138 1171 138 1171 295 1171 c 0,0,1
319 1057 m 0,12,13
 210 1057 210 1057 150 979.5 c 128,-1,14
 90 902 90 902 113 794 c 0,15,16
 136 685 136 685 229 608.5 c 128,-1,17
 322 532 322 532 430 532 c 256,18,19
 538 532 538 532 599.5 608.5 c 128,-1,20
 661 685 661 685 638 794 c 0,21,22
 615 902 615 902 522 979.5 c 128,-1,23
 429 1057 429 1057 319 1057 c 0,12,13
EndSplineSet
EndChar

StartChar: currency
Encoding: 164 164 157
Width: 932
Flags: W
LayerCount: 2
Fore
SplineSet
769 322 m 1,0,-1
 879 184 l 1,1,-1
 841 153 l 1,2,-1
 732 292 l 1,3,4
 616 214 616 214 504 214 c 0,5,6
 394 214 394 214 310 292 c 1,7,-1
 145 153 l 1,8,-1
 120 184 l 1,9,-1
 286 322 l 1,10,11
 243 397 243 397 243 470 c 0,12,13
 243 613 243 613 369 743 c 1,14,-1
 259 882 l 1,15,-1
 297 913 l 1,16,-1
 407 775 l 1,17,18
 521 852 521 852 634 852 c 0,19,20
 744 852 744 852 828 775 c 1,21,-1
 994 913 l 1,22,-1
 1019 882 l 1,23,-1
 852 743 l 1,24,25
 895 668 895 668 895 596 c 0,26,27
 895 455 895 455 769 322 c 1,0,-1
818 579 m 0,28,29
 818 666 818 666 762 721.5 c 128,-1,30
 706 777 706 777 620 777 c 0,31,32
 502 777 502 777 411 688 c 128,-1,33
 320 599 320 599 320 485 c 0,34,35
 320 400 320 400 376.5 344.5 c 128,-1,36
 433 289 433 289 519 289 c 0,37,38
 635 289 635 289 726.5 377.5 c 128,-1,39
 818 466 818 466 818 579 c 0,28,29
EndSplineSet
EndChar

StartChar: uniFFFC
Encoding: 65532 65532 158
Width: 2048
Flags: W
LayerCount: 2
Fore
SplineSet
2048 1150 m 1,0,-1
 1948 1150 l 1,1,-1
 1948 1373 l 1,2,-1
 1725 1373 l 1,3,-1
 1725 1473 l 1,4,-1
 2048 1473 l 1,5,-1
 2048 1150 l 1,0,-1
1473 1373 m 1,6,-1
 1150 1373 l 1,7,-1
 1150 1473 l 1,8,-1
 1473 1473 l 1,9,-1
 1473 1373 l 1,6,-1
2048 575 m 1,10,-1
 1948 575 l 1,11,-1
 1948 898 l 1,12,-1
 2048 898 l 1,13,-1
 2048 575 l 1,10,-1
1782 611 m 2,14,15
 1782 370 1782 370 1571 370 c 0,16,17
 1485 370 1485 370 1433 415 c 1,18,-1
 1506 494 l 1,19,20
 1531 468 1531 468 1571 468 c 0,21,22
 1666 468 1666 468 1666 606 c 2,23,-1
 1666 1090 l 1,24,-1
 1782 1090 l 1,25,-1
 1782 611 l 2,14,15
898 1373 m 1,26,-1
 575 1373 l 1,27,-1
 575 1473 l 1,28,-1
 898 1473 l 1,29,-1
 898 1373 l 1,26,-1
2048 0 m 1,30,-1
 1725 0 l 1,31,-1
 1725 100 l 1,32,-1
 1948 100 l 1,33,-1
 1948 323 l 1,34,-1
 2048 323 l 1,35,-1
 2048 0 l 1,30,-1
1423 591 m 0,36,37
 1423 382 1423 382 1149 382 c 2,38,-1
 909 382 l 1,39,-1
 909 1090 l 1,40,-1
 1144 1090 l 2,41,42
 1393 1090 1393 1090 1393 904 c 0,43,44
 1393 813 1393 813 1304 759 c 1,45,46
 1423 713 1423 713 1423 591 c 0,36,37
323 1373 m 1,47,-1
 100 1373 l 1,48,-1
 100 1150 l 1,49,-1
 0 1150 l 1,50,-1
 0 1473 l 1,51,-1
 323 1473 l 1,52,-1
 323 1373 l 1,47,-1
1473 0 m 1,53,-1
 1150 0 l 1,54,-1
 1150 100 l 1,55,-1
 1473 100 l 1,56,-1
 1473 0 l 1,53,-1
854 735 m 0,57,58
 854 562 854 562 772 466 c 128,-1,59
 690 370 690 370 537 370 c 256,60,61
 384 370 384 370 303.5 466 c 128,-1,62
 223 562 223 562 223 735 c 0,63,64
 223 910 223 910 303.5 1006 c 128,-1,65
 384 1102 384 1102 537 1102 c 256,66,67
 690 1102 690 1102 772 1006 c 128,-1,68
 854 910 854 910 854 735 c 0,57,58
100 575 m 1,69,-1
 0 575 l 1,70,-1
 0 898 l 1,71,-1
 100 898 l 1,72,-1
 100 575 l 1,69,-1
898 0 m 1,73,-1
 575 0 l 1,74,-1
 575 100 l 1,75,-1
 898 100 l 1,76,-1
 898 0 l 1,73,-1
323 0 m 1,77,-1
 0 0 l 1,78,-1
 0 323 l 1,79,-1
 100 323 l 1,80,-1
 100 100 l 1,81,-1
 323 100 l 1,82,-1
 323 0 l 1,77,-1
1277 893 m 0,83,84
 1277 992 1277 992 1114 992 c 2,85,-1
 1025 992 l 1,86,-1
 1025 798 l 1,87,-1
 1126 798 l 2,88,89
 1277 798 1277 798 1277 893 c 0,83,84
1307 591 m 0,90,91
 1307 700 1307 700 1136 700 c 2,92,-1
 1025 700 l 1,93,-1
 1025 480 l 1,94,-1
 1149 480 l 2,95,96
 1307 480 1307 480 1307 591 c 0,90,91
738 735 m 0,97,98
 738 1004 738 1004 537 1004 c 0,99,100
 339 1004 339 1004 339 735 c 0,101,102
 339 468 339 468 537 468 c 0,103,104
 738 468 738 468 738 735 c 0,97,98
EndSplineSet
EndChar

StartChar: dotbelowcomb
Encoding: 65538 -1 160
Width: 0
Flags: W
LayerCount: 2
Fore
SplineSet
666 -382 m 1,0,-1
 452 -382 l 1,1,-1
 452 -187 l 1,2,-1
 666 -187 l 1,3,-1
 666 -382 l 1,0,-1
EndSplineSet
EndChar

StartChar: zerowidthnonjoiner
Encoding: 8204 8204 175
Width: 0
GlyphClass: 2
Flags: W
LayerCount: 2
Fore
SplineSet
36 1289 m 1,0,-1
 36 -275 l 1,1,-1
 -36 -275 l 1,2,-1
 -36 1289 l 1,3,-1
 36 1289 l 1,0,-1
EndSplineSet
EndChar

StartChar: zerowidthjoiner
Encoding: 8205 8205 176
Width: 0
GlyphClass: 2
Flags: W
LayerCount: 2
Fore
SplineSet
36 -275 m 1,0,-1
 -36 -275 l 1,1,-1
 -36 1114 l 1,2,-1
 -170 978 l 1,3,-1
 -219 1027 l 1,4,-1
 -48 1196 l 1,5,-1
 -219 1364 l 1,6,-1
 -170 1413 l 1,7,-1
 0 1242 l 1,8,-1
 170 1413 l 1,9,-1
 219 1364 l 1,10,-1
 48 1196 l 1,11,-1
 219 1027 l 1,12,-1
 170 978 l 1,13,-1
 36 1114 l 1,14,-1
 36 -275 l 1,0,-1
EndSplineSet
EndChar

StartChar: lefttorightmark
Encoding: 8206 8206 177
Width: 0
GlyphClass: 2
Flags: W
LayerCount: 2
Fore
SplineSet
430 1198 m 1,0,-1
 213 984 l 1,1,-1
 164 1033 l 1,2,-1
 301 1163 l 1,3,-1
 35 1163 l 1,4,-1
 35 -275 l 1,5,-1
 -36 -275 l 1,6,-1
 -36 1234 l 1,7,-1
 301 1234 l 1,8,-1
 164 1364 l 1,9,-1
 213 1413 l 1,10,-1
 430 1198 l 1,0,-1
EndSplineSet
EndChar

StartChar: righttoleftmark
Encoding: 8207 8207 178
Width: 0
GlyphClass: 2
Flags: W
LayerCount: 2
Fore
SplineSet
35 -275 m 1,0,-1
 -36 -275 l 1,1,-1
 -36 1163 l 1,2,-1
 -302 1163 l 1,3,-1
 -165 1033 l 1,4,-1
 -214 984 l 1,5,-1
 -431 1198 l 1,6,-1
 -214 1413 l 1,7,-1
 -165 1364 l 1,8,-1
 -302 1234 l 1,9,-1
 35 1234 l 1,10,-1
 35 -275 l 1,0,-1
EndSplineSet
EndChar

StartChar: afii57388.001
Encoding: 1644 1644 179
Width: 353
GlyphClass: 2
Flags: W
LayerCount: 2
Fore
SplineSet
210 654 m 0,0,1
 200 627 200 627 185 603 c 0,2,3
 180 597 180 597 173.5 593.5 c 128,-1,4
 167 590 167 590 162 590 c 128,-1,5
 157 590 157 590 154.5 593 c 128,-1,6
 152 596 152 596 155 603 c 0,7,8
 187 660 187 660 202.5 713.5 c 128,-1,9
 218 767 218 767 218 800 c 1,10,11
 194 806 194 806 179 816 c 128,-1,12
 164 826 164 826 155 837.5 c 128,-1,13
 146 849 146 849 143 859 c 128,-1,14
 140 869 140 869 140 874 c 0,15,16
 140 890 140 890 145.5 907 c 128,-1,17
 151 924 151 924 160.5 937.5 c 128,-1,18
 170 951 170 951 183.5 959.5 c 128,-1,19
 197 968 197 968 213 968 c 0,20,21
 272 968 272 968 272 874 c 0,22,23
 272 859 272 859 268 835 c 128,-1,24
 264 811 264 811 256 781.5 c 128,-1,25
 248 752 248 752 236.5 719.5 c 128,-1,26
 225 687 225 687 210 654 c 0,0,1
EndSplineSet
EndChar

StartChar: afii57409
Encoding: 1569 1569 180
Width: 723
GlyphClass: 2
Flags: W
AnchorPoint: "Anchor-3" 420 -360 basechar 0
AnchorPoint: "Anchor-2" 315 660 basechar 0
LayerCount: 2
Fore
SplineSet
622 174 m 1,0,-1
 593 66 l 1,1,2
 348 59 348 59 280 -29 c 0,3,4
 257 -57 257 -57 243 -57 c 0,5,6
 225 -57 225 -57 222 -43 c 0,7,8
 219 -30 219 -30 238 6 c 128,-1,9
 257 42 257 42 275 61 c 1,10,11
 158 118 158 118 150 156 c 0,12,13
 140 204 140 204 236 311 c 0,14,15
 316 401 316 401 395 401 c 0,16,17
 426 401 426 401 456.5 377 c 128,-1,18
 487 353 487 353 493 326 c 0,19,20
 496 312 496 312 461 271.5 c 128,-1,21
 426 231 426 231 412 231 c 0,22,23
 403 231 403 231 374.5 260 c 128,-1,24
 346 289 346 289 325 289 c 0,25,26
 273 289 273 289 250 246 c 1,27,28
 311 156 311 156 441 156 c 0,29,30
 465 156 465 156 540 165 c 128,-1,31
 615 174 615 174 622 174 c 1,0,-1
EndSplineSet
EndChar

StartChar: afii57440
Encoding: 1600 1600 181
Width: 496
GlyphClass: 2
Flags: W
LayerCount: 2
Fore
SplineSet
0 0 m 1,0,1
 -70 0 -70 0 -86 76 c 0,2,3
 -101 152 -101 152 -32 152 c 2,4,-1
 463 152 l 1,5,-1
 496 0 l 1,6,-1
 0 0 l 1,7,-1
 0 0 l 1,0,1
EndSplineSet
EndChar

StartChar: afii57453
Encoding: 1613 1613 182
Width: 0
GlyphClass: 4
Flags: W
AnchorPoint: "Anchor-3" 0 0 mark 0
AnchorPoint: "Anchor-1" 0 0 mark 0
LayerCount: 2
Fore
SplineSet
137 295 m 1,0,1
 146 252 146 252 129 218 c 0,2,3
 119 196 119 196 93 176.5 c 128,-1,4
 67 157 67 157 -74 84 c 1,5,-1
 -109 64 l 2,6,7
 -128 53 -128 53 -141 45 c 2,8,-1
 -166 28 l 1,9,-1
 -187 15 l 1,10,-1
 -199 6 l 2,11,12
 -204 3 -204 3 -208 1 c 2,13,-1
 -211 1 l 1,14,-1
 -213 1 l 2,15,16
 -215 3 -215 3 -216 5 c 0,17,18
 -216 8 -216 8 -215 13 c 0,19,20
 -214 16 -214 16 -211 29 c 0,21,22
 -201 68 -201 68 -193.5 87 c 128,-1,23
 -186 106 -186 106 -176 115 c 0,24,25
 -153 134 -153 134 18 221 c 0,26,27
 106 267 106 267 137 295 c 1,0,1
175 115 m 1,28,29
 184 72 184 72 167 38 c 0,30,31
 157 16 157 16 131 -3.5 c 128,-1,32
 105 -23 105 -23 -36 -96 c 1,33,-1
 -71 -116 l 2,34,35
 -90 -127 -90 -127 -103 -135 c 2,36,-1
 -128 -152 l 1,37,-1
 -148 -165 l 1,38,-1
 -161 -174 l 2,39,40
 -166 -177 -166 -177 -169 -179 c 2,41,-1
 -172 -179 l 1,42,-1
 -174 -179 l 2,43,44
 -177 -177 -177 -177 -177 -175 c 0,45,46
 -178 -172 -178 -172 -177 -167 c 0,47,48
 -176 -164 -176 -164 -172 -151 c 0,49,50
 -163 -112 -163 -112 -155.5 -93 c 128,-1,51
 -148 -74 -148 -74 -138 -65 c 0,52,53
 -115 -46 -115 -46 56 41 c 0,54,55
 144 87 144 87 175 115 c 1,28,29
EndSplineSet
EndChar

StartChar: afii57455.001
Encoding: 65539 -1 183
Width: 496
GlyphClass: 4
Flags: W
LayerCount: 2
Fore
SplineSet
51 1669 m 1,0,-1
 64 1576 l 1,1,-1
 -22 1627 l 1,2,3
 -106 1490 -106 1490 -179 1490 c 0,4,5
 -197 1490 -197 1490 -238 1501 c 1,6,7
 -153 1555 -153 1555 -68 1647 c 1,8,9
 -134 1691 -134 1691 -143 1733 c 0,10,11
 -155 1790 -155 1790 -126 1851 c 0,12,13
 -105 1891 -105 1891 -67 1891 c 0,14,15
 -2 1891 -2 1891 14 1808 c 0,16,17
 24 1763 24 1763 8 1698 c 1,18,19
 22 1689 22 1689 51 1669 c 1,0,-1
-32 1753 m 0,20,21
 -36 1773 -36 1773 -54.5 1791.5 c 128,-1,22
 -73 1810 -73 1810 -94 1810 c 0,23,24
 -111 1810 -111 1810 -107 1791 c 0,25,26
 -101 1763 -101 1763 -31 1721 c 1,27,28
 -29 1740 -29 1740 -32 1753 c 0,20,21
EndSplineSet
EndChar

StartChar: afii57458.001
Encoding: 65540 -1 184
Width: 377
GlyphClass: 4
Flags: W
LayerCount: 2
Fore
SplineSet
171 587 m 0,0,1
 178 554 178 554 173 523.5 c 128,-1,2
 168 493 168 493 153.5 469 c 128,-1,3
 139 445 139 445 114.5 431 c 128,-1,4
 90 417 90 417 58 417 c 0,5,6
 14 417 14 417 -20 445.5 c 128,-1,7
 -54 474 -54 474 -65 524 c 0,8,9
 -73 559 -73 559 -68.5 590.5 c 128,-1,10
 -64 622 -64 622 -45 653 c 0,11,12
 -8 716 -8 716 51 716 c 0,13,14
 96 716 96 716 127.5 679.5 c 128,-1,15
 159 643 159 643 171 587 c 0,0,1
124 565 m 0,16,17
 121 580 121 580 113.5 593.5 c 128,-1,18
 106 607 106 607 95.5 618 c 128,-1,19
 85 629 85 629 72 635.5 c 128,-1,20
 59 642 59 642 46 642 c 0,21,22
 31 642 31 642 17.5 634.5 c 128,-1,23
 4 627 4 627 -5 614.5 c 128,-1,24
 -14 602 -14 602 -18 586 c 128,-1,25
 -22 570 -22 570 -18 552 c 0,26,27
 -13 526 -13 526 8.5 510.5 c 128,-1,28
 30 495 30 495 53 495 c 0,29,30
 71 495 71 495 85 501.5 c 128,-1,31
 99 508 99 508 108.5 518 c 128,-1,32
 118 528 118 528 122.5 540.5 c 128,-1,33
 127 553 127 553 124 565 c 0,16,17
EndSplineSet
EndChar

StartChar: afii57381
Encoding: 1642 1642 185
Width: 1024
GlyphClass: 2
Flags: W
LayerCount: 2
Fore
SplineSet
248 -132 m 1,0,-1
 497 1335 l 1,1,-1
 590 1301 l 1,2,-1
 342 -166 l 1,3,-1
 248 -132 l 1,0,-1
927 52 m 0,4,5
 936 11 936 11 913 -18.5 c 128,-1,6
 890 -48 890 -48 849 -48 c 0,7,8
 807 -48 807 -48 771 -18.5 c 128,-1,9
 735 11 735 11 726 53 c 0,10,11
 718 94 718 94 741 123.5 c 128,-1,12
 764 153 764 153 805 153 c 0,13,14
 848 153 848 153 883.5 123.5 c 128,-1,15
 919 94 919 94 927 52 c 0,4,5
79 1135 m 0,16,17
 88 1095 88 1095 64.5 1065.5 c 128,-1,18
 41 1036 41 1036 0 1036 c 256,19,20
 -41 1036 -41 1036 -76.5 1065.5 c 128,-1,21
 -112 1095 -112 1095 -121 1137 c 0,22,23
 -130 1178 -130 1178 -106.5 1207.5 c 128,-1,24
 -83 1237 -83 1237 -42 1237 c 0,25,26
 0 1237 0 1237 35 1207.5 c 128,-1,27
 70 1178 70 1178 79 1135 c 0,16,17
EndSplineSet
EndChar

StartChar: afii57461
Encoding: 1643 1643 186
Width: 985
GlyphClass: 2
Flags: W
LayerCount: 2
Fore
SplineSet
228 -521 m 1,0,-1
 664 502 l 1,1,-1
 778 502 l 1,2,-1
 342 -521 l 1,3,-1
 228 -521 l 1,0,-1
EndSplineSet
EndChar

StartChar: afii63167
Encoding: 1645 1645 187
Width: 1118
GlyphClass: 2
Flags: W
LayerCount: 2
Fore
SplineSet
694 729 m 1,0,-1
 1057 733 l 1,1,-1
 1057 610 l 1,2,-1
 702 612 l 1,3,-1
 971 352 l 1,4,-1
 883 264 l 1,5,-1
 616 539 l 1,6,-1
 623 168 l 1,7,-1
 498 168 l 1,8,-1
 502 539 l 1,9,-1
 236 264 l 1,10,-1
 147 352 l 1,11,-1
 422 614 l 1,12,-1
 63 610 l 1,13,-1
 63 733 l 1,14,-1
 420 729 l 1,15,-1
 170 975 l 1,16,-1
 258 1065 l 1,17,-1
 502 817 l 1,18,-1
 498 1176 l 1,19,-1
 623 1176 l 1,20,-1
 616 813 l 1,21,-1
 860 1065 l 1,22,-1
 948 975 l 1,23,-1
 694 729 l 1,0,-1
EndSplineSet
EndChar

StartChar: afii57459
Encoding: 65541 -1 188
Width: 486
GlyphClass: 2
Flags: W
LayerCount: 2
Fore
SplineSet
385 283 m 0,0,1
 403 198 403 198 398 145 c 128,-1,2
 393 92 393 92 361 72 c 0,3,4
 248 0 248 0 51 0 c 2,5,-1
 0 0 l 2,6,7
 -70 0 -70 0 -86 76 c 0,8,9
 -101 152 -101 152 -32 152 c 2,10,-1
 41 152 l 2,11,12
 301 152 301 152 351 223 c 1,13,14
 349 235 349 235 340.5 254 c 128,-1,15
 332 273 332 273 320.5 294 c 128,-1,16
 309 315 309 315 295.5 334 c 128,-1,17
 282 353 282 353 270 365 c 1,18,19
 258 236 258 236 174 236 c 0,20,21
 147 236 147 236 119.5 247.5 c 128,-1,22
 92 259 92 259 69 279 c 128,-1,23
 46 299 46 299 29.5 326 c 128,-1,24
 13 353 13 353 6 385 c 0,25,26
 -4 433 -4 433 -1.5 478.5 c 128,-1,27
 1 524 1 524 18 567 c 0,28,29
 51 647 51 647 95 647 c 0,30,31
 153 647 153 647 252 539 c 0,32,33
 357 419 357 419 385 283 c 0,0,1
206 436 m 1,34,35
 155 508 155 508 99 508 c 0,36,37
 30 508 30 508 45 440 c 0,38,39
 47 429 47 429 57.5 416 c 128,-1,40
 68 403 68 403 82 392 c 128,-1,41
 96 381 96 381 112.5 374 c 128,-1,42
 129 367 129 367 144 367 c 0,43,44
 212 367 212 367 206 436 c 1,34,35
EndSplineSet
EndChar

StartChar: afii57543
Encoding: 65542 -1 189
Width: 440
Flags: W
LayerCount: 2
Fore
SplineSet
395 0 m 2,0,1
 345 0 345 0 281 35 c 0,2,3
 207 73 207 73 179 131 c 1,4,5
 145 6 145 6 0 0 c 0,6,7
 -70 0 -70 0 -86 76 c 0,8,9
 -101 152 -101 152 -32 152 c 2,10,-1
 12 152 l 2,11,12
 138 152 138 152 168 285 c 0,13,14
 179 326 179 326 200 326 c 0,15,16
 217 326 217 326 220 311 c 0,17,18
 221 309 221 309 219.5 289.5 c 128,-1,19
 218 270 218 270 222 250 c 0,20,21
 243 152 243 152 411 152 c 1,22,-1
 444 0 l 1,23,-1
 395 0 l 2,0,1
EndSplineSet
EndChar

StartChar: afii57534
Encoding: 1749 1749 190
Width: 506
GlyphClass: 2
Flags: W
LayerCount: 2
Fore
SplineSet
413 225 m 0,0,1
 439 101 439 101 406 45 c 0,2,3
 368 -14 368 -14 248 -14 c 0,4,5
 97 -14 97 -14 68 119 c 0,6,7
 57 173 57 173 66 237.5 c 128,-1,8
 75 302 75 302 103 381 c 1,9,10
 79 390 79 390 76 401 c 0,11,12
 75 410 75 410 88 467 c 0,13,14
 105 526 105 526 113 526 c 0,15,16
 153 526 153 526 298 408 c 0,17,18
 389 331 389 331 413 225 c 0,0,1
352 201 m 0,19,20
 344 235 344 235 281 285 c 0,21,22
 221 331 221 331 154 358 c 1,23,24
 111 271 111 271 126 205 c 0,25,26
 144 123 144 123 233 123 c 0,27,28
 288 123 288 123 321 143 c 0,29,30
 360 165 360 165 352 201 c 0,19,20
EndSplineSet
EndChar

StartChar: afii64240
Encoding: 65543 -1 191
Width: 382
Flags: W
LayerCount: 2
Fore
SplineSet
196 4 m 1,0,-1
 70 108 l 1,1,-1
 151 212 l 1,2,-1
 278 108 l 1,3,-1
 196 4 l 1,0,-1
EndSplineSet
EndChar

StartChar: afii64241
Encoding: 65544 -1 192
Width: 467
Flags: W
LayerCount: 2
Fore
SplineSet
141 6 m 1,0,-1
 28 99 l 1,1,-1
 102 192 l 1,2,-1
 214 99 l 1,3,-1
 141 6 l 1,0,-1
337 14 m 1,4,-1
 224 107 l 1,5,-1
 297 200 l 1,6,-1
 410 107 l 1,7,-1
 337 14 l 1,4,-1
EndSplineSet
EndChar

StartChar: afii63954
Encoding: 65545 -1 193
Width: 480
Flags: W
LayerCount: 2
Fore
SplineSet
347 6 m 1,0,-1
 238 96 l 1,1,-1
 309 186 l 1,2,-1
 418 96 l 1,3,-1
 347 6 l 1,0,-1
140 0 m 1,4,-1
 30 90 l 1,5,-1
 101 180 l 1,6,-1
 210 90 l 1,7,-1
 140 0 l 1,4,-1
206 166 m 1,8,-1
 97 256 l 1,9,-1
 168 346 l 1,10,-1
 277 256 l 1,11,-1
 206 166 l 1,8,-1
EndSplineSet
EndChar

StartChar: afii57382
Encoding: 65546 -1 194
Width: 484
Flags: W
LayerCount: 2
Fore
SplineSet
137 0 m 1,0,-1
 246 -90 l 1,1,-1
 175 -180 l 1,2,-1
 66 -90 l 1,3,-1
 137 0 l 1,0,-1
344 6 m 1,4,-1
 453 -84 l 1,5,-1
 382 -174 l 1,6,-1
 273 -84 l 1,7,-1
 344 6 l 1,4,-1
278 -160 m 1,8,-1
 387 -250 l 1,9,-1
 316 -340 l 1,10,-1
 207 -250 l 1,11,-1
 278 -160 l 1,8,-1
EndSplineSet
EndChar

StartChar: afii64242
Encoding: 65547 -1 195
Width: 318
Flags: W
LayerCount: 2
Fore
SplineSet
220 260 m 0,0,1
 251 117 251 117 203 55 c 0,2,3
 188 36 188 36 115 16 c 0,4,5
 80 8 80 8 51.5 4 c 128,-1,6
 23 0 23 0 0 0 c 0,7,8
 -70 0 -70 0 -86 76 c 0,9,10
 -101 152 -101 152 -32 152 c 2,11,-1
 4 152 l 2,12,13
 133 152 133 152 171 184 c 1,14,15
 164 216 164 216 140 251.5 c 128,-1,16
 116 287 116 287 75 326 c 1,17,-1
 98 430 l 2,18,19
 101 440 101 440 107 440 c 256,20,21
 113 440 113 440 126 424 c 0,22,23
 205 335 205 335 220 260 c 0,0,1
EndSplineSet
EndChar

StartChar: afii62881
Encoding: 59416 59416 196
Width: 0
GlyphClass: 4
Flags: W
AnchorPoint: "Anchor-2" 0 0 mark 0
AnchorPoint: "Anchor-0" 0 0 mark 0
LayerCount: 2
Fore
SplineSet
135 171 m 0,0,1
 132 186 132 186 126.5 206 c 128,-1,2
 121 226 121 226 115 243.5 c 128,-1,3
 109 261 109 261 102.5 273 c 128,-1,4
 96 285 96 285 91 285 c 256,5,6
 86 285 86 285 80 278 c 128,-1,7
 74 271 74 271 69 262 c 128,-1,8
 64 253 64 253 61 244.5 c 128,-1,9
 58 236 58 236 59 234 c 0,10,11
 65 211 65 211 70.5 190.5 c 128,-1,12
 76 170 76 170 81 150 c 0,13,14
 83 138 83 138 69.5 133 c 128,-1,15
 56 128 56 128 48 128 c 0,16,17
 3 128 3 128 -8 175 c 0,18,19
 -12 195 -12 195 -9 214.5 c 128,-1,20
 -6 234 -6 234 -8 240 c 0,21,22
 -9 248 -9 248 -23 248 c 0,23,24
 -38 248 -38 248 -46.5 234 c 128,-1,25
 -55 220 -55 220 -58.5 199 c 128,-1,26
 -62 178 -62 178 -62.5 154.5 c 128,-1,27
 -63 131 -63 131 -63 113 c 1,28,29
 -70 96 -70 96 -83 88 c 128,-1,30
 -96 80 -96 80 -113 80 c 0,31,32
 -124 80 -124 80 -131.5 87.5 c 128,-1,33
 -139 95 -139 95 -141 107 c 0,34,35
 -143 117 -143 117 -142 129 c 128,-1,36
 -141 141 -141 141 -139 153 c 128,-1,37
 -137 165 -137 165 -135.5 175.5 c 128,-1,38
 -134 186 -134 186 -135 193 c 0,39,40
 -138 216 -138 216 -149 216 c 0,41,42
 -159 216 -159 216 -168 200 c 128,-1,43
 -177 184 -177 184 -183 161.5 c 128,-1,44
 -189 139 -189 139 -191 115 c 128,-1,45
 -193 91 -193 91 -189 74 c 0,46,47
 -181 37 -181 37 -157.5 18 c 128,-1,48
 -134 -1 -134 -1 -103 -1 c 0,49,50
 -79 -1 -79 -1 -53.5 14.5 c 128,-1,51
 -28 30 -28 30 -5 62 c 1,52,53
 25 50 25 50 57 50 c 0,54,55
 77 50 77 50 94.5 64 c 128,-1,56
 112 78 112 78 125 103 c 0,57,58
 133 115 133 115 136 133.5 c 128,-1,59
 139 152 139 152 135 171 c 0,0,1
65 743 m 1,60,61
 74 700 74 700 57 666 c 0,62,63
 47 644 47 644 21.5 624.5 c 128,-1,64
 -4 605 -4 605 -124 544 c 1,65,-1
 -159 524 l 2,66,67
 -178 513 -178 513 -191 505 c 2,68,-1
 -216 488 l 1,69,-1
 -236 475 l 1,70,-1
 -249 466 l 2,71,72
 -254 463 -254 463 -257 461 c 2,73,-1
 -260 461 l 1,74,-1
 -262 461 l 2,75,76
 -265 463 -265 463 -265 465 c 0,77,78
 -266 468 -266 468 -265 473 c 0,79,80
 -264 476 -264 476 -260 489 c 0,81,82
 -251 528 -251 528 -243.5 547 c 128,-1,83
 -236 566 -236 566 -226 575 c 0,84,85
 -203 594 -203 594 -54 669 c 0,86,87
 34 715 34 715 65 743 c 1,60,61
103 563 m 1,88,89
 112 520 112 520 95 486 c 0,90,91
 85 464 85 464 59 444.5 c 128,-1,92
 33 425 33 425 -86 364 c 1,93,-1
 -121 344 l 2,94,95
 -139 333 -139 333 -153 325 c 2,96,-1
 -178 308 l 1,97,-1
 -198 295 l 1,98,-1
 -210 286 l 2,99,100
 -216 283 -216 283 -219 281 c 2,101,-1
 -222 281 l 1,102,-1
 -224 281 l 2,103,104
 -227 283 -227 283 -227 285 c 0,105,106
 -228 288 -228 288 -227 293 c 0,107,108
 -225 296 -225 296 -222 309 c 0,109,110
 -212 348 -212 348 -205 367 c 128,-1,111
 -198 386 -198 386 -187 395 c 0,112,113
 -164 414 -164 414 -15 489 c 0,114,115
 72 535 72 535 103 563 c 1,88,89
EndSplineSet
Ligature2: "'ccmp' Glyph Composition/Decomposition in Arabic lookup 4 subtable" afii57457 afii57451
EndChar

StartChar: afii57373
Encoding: 65548 -1 200
Width: 434
Flags: W
LayerCount: 2
Fore
SplineSet
230 542 m 0,0,1
 231 537 231 537 231.5 529 c 128,-1,2
 232 521 232 521 230 513 c 128,-1,3
 228 505 228 505 223 499 c 128,-1,4
 218 493 218 493 209 491 c 0,5,6
 199 491 199 491 180.5 490 c 128,-1,7
 162 489 162 489 140 484.5 c 128,-1,8
 118 480 118 480 95 471.5 c 128,-1,9
 72 463 72 463 54 448 c 0,10,11
 48 444 48 444 38.5 434.5 c 128,-1,12
 29 425 29 425 19 425 c 0,13,14
 10 425 10 425 7 438 c 0,15,16
 5 446 5 446 11.5 462.5 c 128,-1,17
 18 479 18 479 38 505 c 1,18,19
 -19 534 -19 534 -26 570 c 0,20,21
 -29 584 -29 584 -24.5 599 c 128,-1,22
 -20 614 -20 614 -5 631 c 0,23,24
 56 695 56 695 102 695 c 0,25,26
 129 695 129 695 145.5 681 c 128,-1,27
 162 667 162 667 165 653 c 0,28,29
 167 644 167 644 164 636.5 c 128,-1,30
 161 629 161 629 155.5 623.5 c 128,-1,31
 150 618 150 618 143 615 c 128,-1,32
 136 612 136 612 131 612 c 256,33,34
 126 612 126 612 119.5 615.5 c 128,-1,35
 113 619 113 619 105.5 623 c 128,-1,36
 98 627 98 627 90 630.5 c 128,-1,37
 82 634 82 634 73 634 c 0,38,39
 54 634 54 634 43.5 625 c 128,-1,40
 33 616 33 616 36 602 c 0,41,42
 37 594 37 594 45 584 c 128,-1,43
 53 574 53 574 64.5 566 c 128,-1,44
 76 558 76 558 90 552.5 c 128,-1,45
 104 547 104 547 119 547 c 0,46,47
 126 547 126 547 140.5 548 c 128,-1,48
 155 549 155 549 170 550.5 c 128,-1,49
 185 552 185 552 198 553.5 c 128,-1,50
 211 555 211 555 214 555 c 0,51,52
 227 555 227 555 230 542 c 0,0,1
EndSplineSet
EndChar

StartChar: afii57374
Encoding: 65549 -1 201
Width: 606
GlyphClass: 2
Flags: W
LayerCount: 2
Fore
SplineSet
606 0 m 1,0,1
 370 0 370 0 255 76 c 1,2,3
 163 0 163 0 0 0 c 0,4,5
 -70 0 -70 0 -86 76 c 0,6,7
 -101 152 -101 152 -32 152 c 2,8,-1
 -14 152 l 2,9,10
 94 152 94 152 115 164 c 1,11,12
 105 184 105 184 99 205 c 128,-1,13
 93 226 93 226 88 248 c 0,14,15
 68 352 68 352 134 477 c 0,16,17
 193 596 193 596 250 596 c 0,18,19
 284 596 284 596 338 520 c 0,20,21
 390 445 390 445 405 373 c 0,22,23
 418 314 418 314 405 250 c 0,24,25
 400 221 400 221 392.5 200.5 c 128,-1,26
 385 180 385 180 374 166 c 1,27,28
 395 158 395 158 445 155 c 128,-1,29
 495 152 495 152 573 152 c 1,30,-1
 606 0 l 1,0,1
356 299 m 0,31,32
 353 313 353 313 343 332.5 c 128,-1,33
 333 352 333 352 317 375 c 0,34,35
 281 430 281 430 252 430 c 0,36,37
 212 430 212 430 173 381 c 0,38,39
 155 356 155 356 147 336 c 128,-1,40
 139 316 139 316 143 299 c 0,41,42
 150 267 150 267 251 203 c 1,43,44
 365 255 365 255 356 299 c 0,31,32
EndSplineSet
EndChar

StartChar: afii57375
Encoding: 1619 1619 202
Width: 655
GlyphClass: 2
Flags: W
LayerCount: 2
Fore
SplineSet
-64 1126 m 0,0,1
 -53 1126 -53 1126 -14 1116 c 0,2,3
 34 1104 34 1104 86 1104 c 0,4,5
 176 1104 176 1104 253 1135 c 128,-1,6
 330 1166 330 1166 355 1213 c 0,7,8
 360 1221 360 1221 364 1221 c 2,9,-1
 367 1220 l 2,10,11
 370 1218 370 1218 370 1214 c 0,12,13
 375 1194 375 1194 364 1160 c 128,-1,14
 353 1126 353 1126 335 1103 c 0,15,16
 298 1057 298 1057 216 1026.5 c 128,-1,17
 134 996 134 996 48 996 c 0,18,19
 15 996 15 996 -27 1003 c 2,20,-1
 -54 1007 l 2,21,22
 -64 1009 -64 1009 -70 1009 c 0,23,24
 -103 1009 -103 1009 -145 959 c 0,25,26
 -150 953 -150 953 -153 953 c 0,27,28
 -160 953 -160 953 -163 968 c 0,29,30
 -170 1000 -170 1000 -150 1052 c 0,31,32
 -135 1086 -135 1086 -112.5 1106 c 128,-1,33
 -90 1126 -90 1126 -64 1126 c 0,0,1
EndSplineSet
EndChar

StartChar: afii57471
Encoding: 65550 -1 203
Width: 1384
Flags: W
LayerCount: 2
Fore
SplineSet
1384 0 m 1,0,1
 1352 0 1352 0 1317 3.5 c 128,-1,2
 1282 7 1282 7 1249.5 20.5 c 128,-1,3
 1217 34 1217 34 1189.5 61.5 c 128,-1,4
 1162 89 1162 89 1145 137 c 1,5,6
 1116 108 1116 108 1064.5 73.5 c 128,-1,7
 1013 39 1013 39 940 9 c 128,-1,8
 867 -21 867 -21 773.5 -41 c 128,-1,9
 680 -61 680 -61 567 -61 c 0,10,11
 427 -61 427 -61 330 -34.5 c 128,-1,12
 233 -8 233 -8 170.5 32 c 128,-1,13
 108 72 108 72 77 119 c 128,-1,14
 46 166 46 166 37 207 c 0,15,16
 28 247 28 247 34.5 289 c 128,-1,17
 41 331 41 331 53.5 365.5 c 128,-1,18
 66 400 66 400 80.5 422 c 128,-1,19
 95 444 95 444 103 444 c 0,20,21
 120 444 120 444 123 430 c 0,22,23
 124 425 124 425 119.5 411 c 128,-1,24
 115 397 115 397 110.5 376.5 c 128,-1,25
 106 356 106 356 104 331 c 128,-1,26
 102 306 102 306 108 279 c 0,27,28
 114 250 114 250 142.5 216.5 c 128,-1,29
 171 183 171 183 226.5 155 c 128,-1,30
 282 127 282 127 366.5 108.5 c 128,-1,31
 451 90 451 90 571 90 c 0,32,33
 669 90 669 90 761.5 106 c 128,-1,34
 854 122 854 122 930 147 c 128,-1,35
 1006 172 1006 172 1059 203 c 128,-1,36
 1112 234 1112 234 1132 264 c 0,37,38
 1148 287 1148 287 1156.5 295 c 128,-1,39
 1165 303 1165 303 1172 303 c 0,40,41
 1178 303 1178 303 1185 298 c 128,-1,42
 1192 293 1192 293 1193 287 c 0,43,44
 1196 276 1196 276 1194.5 260 c 128,-1,45
 1193 244 1193 244 1195 231 c 0,46,47
 1197 222 1197 222 1207.5 208.5 c 128,-1,48
 1218 195 1218 195 1234.5 182.5 c 128,-1,49
 1251 170 1251 170 1272.5 161 c 128,-1,50
 1294 152 1294 152 1318 152 c 2,51,-1
 1351 152 l 1,52,-1
 1384 0 l 1,53,-1
 1384 0 l 1,0,1
EndSplineSet
EndChar

StartChar: afii52258
Encoding: 65551 -1 204
Width: 1364
GlyphClass: 2
Flags: W
LayerCount: 2
Fore
SplineSet
1364 0 m 1,0,1
 1161 0 1161 0 1042 78 c 1,2,3
 1006 48 1006 48 944.5 23 c 128,-1,4
 883 -2 883 -2 813 -20.5 c 128,-1,5
 743 -39 743 -39 673 -49 c 128,-1,6
 603 -59 603 -59 549 -59 c 0,7,8
 421 -59 421 -59 324 -36.5 c 128,-1,9
 227 -14 227 -14 155 31 c 0,10,11
 40 102 40 102 19 207 c 0,12,13
 3 278 3 278 34 367 c 0,14,15
 64 444 64 444 85 444 c 0,16,17
 102 444 102 444 105 430 c 1,18,19
 105 435 105 435 91 377 c 1,20,21
 82 319 82 319 90 279 c 0,22,23
 105 205 105 205 209 154 c 0,24,25
 334 90 334 90 553 90 c 0,26,27
 663 90 663 90 754.5 108.5 c 128,-1,28
 846 127 846 127 921 162 c 1,29,30
 907 183 907 183 898 206 c 128,-1,31
 889 229 889 229 884 252 c 0,32,33
 866 333 866 333 925 465 c 0,34,35
 985 596 985 596 1034 596 c 0,36,37
 1068 596 1068 596 1122 520 c 0,38,39
 1148 483 1148 483 1165 446.5 c 128,-1,40
 1182 410 1182 410 1190 373 c 0,41,42
 1204 313 1204 313 1189 250 c 1,43,44
 1180 194 1180 194 1158 166 c 1,45,46
 1183 158 1183 158 1221 155 c 128,-1,47
 1259 152 1259 152 1313 152 c 2,48,-1
 1331 152 l 1,49,-1
 1364 0 l 1,0,1
1138 307 m 0,50,51
 1133 331 1133 331 1097 379 c 0,52,53
 1059 430 1059 430 1038 430 c 0,54,55
 1024 430 1024 430 1008 419 c 128,-1,56
 992 408 992 408 975 385 c 0,57,58
 932 335 932 335 941 293 c 1,59,60
 950 279 950 279 973.5 259 c 128,-1,61
 997 239 997 239 1035 213 c 1,62,63
 1145 274 1145 274 1138 307 c 0,50,51
EndSplineSet
EndChar

StartChar: afii62889
Encoding: 65552 -1 210
Width: 1053
Flags: W
LayerCount: 2
Fore
SplineSet
989 0 m 1,0,1
 1015 -121 1015 -121 976 -209 c 0,2,3
 938 -298 938 -298 804 -356 c 0,4,5
 669 -418 669 -418 514 -418 c 0,6,7
 326 -418 326 -418 208 -307 c 0,8,9
 119 -224 119 -224 97 -119 c 0,10,11
 69 11 69 11 107 111 c 0,12,13
 143 203 143 203 163 203 c 0,14,15
 180 203 180 203 183 184 c 0,16,17
 185 177 185 177 163 98 c 0,18,19
 143 16 143 16 156 -43 c 0,20,21
 179 -149 179 -149 285 -213 c 0,22,23
 394 -281 394 -281 532 -281 c 0,24,25
 666 -281 666 -281 806 -217 c 0,26,27
 926 -161 926 -161 949 -119 c 1,28,29
 947 -94 947 -94 943 -74 c 0,30,31
 938 -52 938 -52 932 -35 c 128,-1,32
 926 -18 926 -18 918 -4 c 1,33,34
 893 -12 893 -12 867 -16 c 128,-1,35
 841 -20 841 -20 813 -20 c 0,36,37
 638 -20 638 -20 610 117 c 0,38,39
 589 211 589 211 628 291 c 0,40,41
 666 371 666 371 728 371 c 0,42,43
 834 371 834 371 938 145 c 1,44,45
 956 152 956 152 1034 152 c 1,46,-1
 1067 0 l 1,47,-1
 989 0 l 1,0,1
838 129 m 1,48,49
 775 254 775 254 716 254 c 0,50,51
 701 254 701 254 688.5 245.5 c 128,-1,52
 676 237 676 237 667 224.5 c 128,-1,53
 658 212 658 212 654 197 c 128,-1,54
 650 182 650 182 653 170 c 0,55,56
 664 120 664 120 761 117 c 0,57,58
 808 117 808 117 838 129 c 1,48,49
EndSplineSet
EndChar

StartChar: afii62887
Encoding: 65553 -1 211
Width: 1303
Flags: W
LayerCount: 2
Fore
SplineSet
556 90 m 0,0,1
 671 90 671 90 771 103 c 128,-1,2
 871 116 871 116 948.5 134 c 128,-1,3
 1026 152 1026 152 1078.5 172 c 128,-1,4
 1131 192 1131 192 1151 207 c 1,5,6
 1148 219 1148 219 1131 240.5 c 128,-1,7
 1114 262 1114 262 1093 284.5 c 128,-1,8
 1072 307 1072 307 1051 326.5 c 128,-1,9
 1030 346 1030 346 1020 354 c 0,10,11
 1019 359 1019 359 1021 375.5 c 128,-1,12
 1023 392 1023 392 1026.5 411.5 c 128,-1,13
 1030 431 1030 431 1033.5 450 c 128,-1,14
 1037 469 1037 469 1039 479 c 0,15,16
 1042 492 1042 492 1047 492 c 0,17,18
 1053 492 1053 492 1060 485.5 c 128,-1,19
 1067 479 1067 479 1075 471 c 0,20,21
 1133 414 1133 414 1167.5 365 c 128,-1,22
 1202 316 1202 316 1211 274 c 0,23,24
 1216 250 1216 250 1216.5 224 c 128,-1,25
 1217 198 1217 198 1213.5 174 c 128,-1,26
 1210 150 1210 150 1202 131.5 c 128,-1,27
 1194 113 1194 113 1182 104 c 0,28,29
 1144 72 1144 72 1079 42 c 128,-1,30
 1014 12 1014 12 928.5 -11 c 128,-1,31
 843 -34 843 -34 741.5 -47.5 c 128,-1,32
 640 -61 640 -61 531 -61 c 0,33,34
 394 -61 394 -61 303 -36.5 c 128,-1,35
 212 -12 212 -12 155.5 26 c 128,-1,36
 99 64 99 64 71.5 110 c 128,-1,37
 44 156 44 156 35 199 c 0,38,39
 27 235 27 235 33.5 276.5 c 128,-1,40
 40 318 40 318 53 353.5 c 128,-1,41
 66 389 66 389 81 412.5 c 128,-1,42
 96 436 96 436 106 436 c 0,43,44
 117 436 117 436 121 431 c 128,-1,45
 125 426 125 426 127 418 c 0,46,47
 128 413 128 413 123 397.5 c 128,-1,48
 118 382 118 382 113 360 c 128,-1,49
 108 338 108 338 105.5 312.5 c 128,-1,50
 103 287 103 287 108 264 c 0,51,52
 115 232 115 232 141 201 c 128,-1,53
 167 170 167 170 219.5 145.5 c 128,-1,54
 272 121 272 121 354 105.5 c 128,-1,55
 436 90 436 90 556 90 c 0,0,1
EndSplineSet
EndChar

StartChar: afii62888
Encoding: 1697 1697 212
Width: 1293
GlyphClass: 2
Flags: W
LayerCount: 2
Fore
SplineSet
1195 311 m 0,0,1
 1232 139 1232 139 1163 86 c 0,2,3
 1081 24 1081 24 894 -18 c 0,4,5
 715 -61 715 -61 545 -61 c 0,6,7
 102 -61 102 -61 47 199 c 0,8,9
 33 266 33 266 66 354 c 1,10,11
 92 436 92 436 118 436 c 0,12,13
 134 436 134 436 139 418 c 1,14,-1
 124 358 l 2,15,16
 119 329 119 329 117.5 305 c 128,-1,17
 116 281 116 281 120 264 c 0,18,19
 137 185 137 185 228 137 c 0,20,21
 346 76 346 76 567 76 c 0,22,23
 675 76 675 76 774 88.5 c 128,-1,24
 873 101 873 101 965 127 c 0,25,26
 1112 171 1112 171 1150 213 c 1,27,28
 1146 283 1146 283 1102 328 c 1,29,30
 1081 236 1081 236 1002 236 c 0,31,32
 971 236 971 236 942.5 246 c 128,-1,33
 914 256 914 256 891 273.5 c 128,-1,34
 868 291 868 291 851.5 316 c 128,-1,35
 835 341 835 341 829 371 c 0,36,37
 812 448 812 448 854 539 c 0,38,39
 899 633 899 633 965 633 c 0,40,41
 1029 633 1029 633 1099 532 c 0,42,43
 1135 481 1135 481 1158.5 426 c 128,-1,44
 1182 371 1182 371 1195 311 c 0,0,1
1055 420 m 1,45,46
 995 504 995 504 933 504 c 0,47,48
 921 504 921 504 910 497 c 128,-1,49
 899 490 899 490 892 479 c 128,-1,50
 885 468 885 468 882 454.5 c 128,-1,51
 879 441 879 441 882 428 c 0,52,53
 888 397 888 397 917.5 377.5 c 128,-1,54
 947 358 947 358 984 358 c 0,55,56
 1035 361 1035 361 1055 420 c 1,45,46
EndSplineSet
Substitution2: "'fina' Terminal Forms in Arabic lookup 3 subtable" afii52258
Substitution2: "'medi' Medial Forms in Arabic lookup 2 subtable" afii57374
Substitution2: "'init' Initial Forms in Arabic lookup 0 subtable" afii57459
EndChar

StartChar: afii57567
Encoding: 1705 1705 219
Width: 1495
GlyphClass: 2
Flags: W
AnchorPoint: "Anchor-3" 645 -525 basechar 0
AnchorPoint: "Anchor-2" 465 990 basechar 0
LayerCount: 2
Fore
SplineSet
1273 1057 m 1,0,1
 1144 989 1144 989 1057 940 c 128,-1,2
 970 891 970 891 911 856 c 0,3,4
 866 830 866 830 835.5 810 c 128,-1,5
 805 790 805 790 786 775 c 128,-1,6
 767 760 767 760 760 748.5 c 128,-1,7
 753 737 753 737 755 727 c 0,8,9
 759 709 759 709 772.5 700 c 128,-1,10
 786 691 786 691 811 680 c 128,-1,11
 836 669 836 669 872.5 651.5 c 128,-1,12
 909 634 909 634 959 600 c 0,13,14
 1031 552 1031 552 1082 508.5 c 128,-1,15
 1133 465 1133 465 1166 424.5 c 128,-1,16
 1199 384 1199 384 1217.5 346 c 128,-1,17
 1236 308 1236 308 1244 272 c 0,18,19
 1256 212 1256 212 1240 163.5 c 128,-1,20
 1224 115 1224 115 1182 86 c 0,21,22
 1134 54 1134 54 1076 27 c 128,-1,23
 1018 0 1018 0 943.5 -19.5 c 128,-1,24
 869 -39 869 -39 775 -50 c 128,-1,25
 681 -61 681 -61 560 -61 c 0,26,27
 421 -61 421 -61 327.5 -33.5 c 128,-1,28
 234 -6 234 -6 176.5 34 c 128,-1,29
 119 74 119 74 91 119.5 c 128,-1,30
 63 165 63 165 56 201 c 0,31,32
 47 241 47 241 53.5 283 c 128,-1,33
 60 325 60 325 72.5 359.5 c 128,-1,34
 85 394 85 394 99.5 416 c 128,-1,35
 114 438 114 438 122 438 c 0,36,37
 139 438 139 438 142 424 c 0,38,39
 143 419 143 419 139 405.5 c 128,-1,40
 135 392 135 392 130.5 371 c 128,-1,41
 126 350 126 350 124.5 323.5 c 128,-1,42
 123 297 123 297 129 268 c 0,43,44
 136 235 136 235 167 201 c 128,-1,45
 198 167 198 167 254 139 c 128,-1,46
 310 111 310 111 391 93.5 c 128,-1,47
 472 76 472 76 578 76 c 0,48,49
 731 76 731 76 849 96 c 128,-1,50
 967 116 967 116 1046.5 144.5 c 128,-1,51
 1126 173 1126 173 1165 204 c 128,-1,52
 1204 235 1204 235 1200 256 c 0,53,54
 1194 284 1194 284 1165.5 319.5 c 128,-1,55
 1137 355 1137 355 1091.5 393 c 128,-1,56
 1046 431 1046 431 986 469.5 c 128,-1,57
 926 508 926 508 856 543 c 0,58,59
 804 567 804 567 770.5 588.5 c 128,-1,60
 737 610 737 610 729 647 c 2,61,-1
 714 719 l 2,62,63
 708 744 708 744 710 768.5 c 128,-1,64
 712 793 712 793 725 818.5 c 128,-1,65
 738 844 738 844 764 872 c 128,-1,66
 790 900 790 900 832 932 c 1,67,68
 867 953 867 953 923.5 986 c 128,-1,69
 980 1019 980 1019 1042.5 1056 c 128,-1,70
 1105 1093 1105 1093 1165.5 1128 c 128,-1,71
 1226 1163 1226 1163 1270 1188 c 1,72,-1
 1273 1057 l 1,73,-1
 1273 1057 l 1,0,1
EndSplineSet
Substitution2: "'fina' Terminal Forms in Arabic lookup 3 subtable" afii62964
Substitution2: "'medi' Medial Forms in Arabic lookup 2 subtable" afii52306
Substitution2: "'init' Initial Forms in Arabic lookup 0 subtable" afii52305
EndChar

StartChar: afii62964
Encoding: 64399 64399 220
Width: 1730
GlyphClass: 2
Flags: W
AnchorPoint: "Anchor-3" 540 -540 basechar 0
AnchorPoint: "Anchor-2" 420 1005 basechar 0
LayerCount: 2
Fore
SplineSet
1358 1112 m 1,0,1
 1206 1034 1206 1034 1099 977.5 c 128,-1,2
 992 921 992 921 920.5 881 c 128,-1,3
 849 841 849 841 808.5 815.5 c 128,-1,4
 768 790 768 790 748 773 c 128,-1,5
 728 756 728 756 723.5 746 c 128,-1,6
 719 736 719 736 721 727 c 0,7,8
 725 710 725 710 744 698 c 128,-1,9
 763 686 763 686 810 666 c 0,10,11
 878 636 878 636 934 611 c 128,-1,12
 990 586 990 586 1037 563.5 c 128,-1,13
 1084 541 1084 541 1124 519 c 128,-1,14
 1164 497 1164 497 1201.5 473 c 128,-1,15
 1239 449 1239 449 1275.5 422 c 128,-1,16
 1312 395 1312 395 1352 362 c 0,17,18
 1423 303 1423 303 1475.5 263 c 128,-1,19
 1528 223 1528 223 1566 198 c 128,-1,20
 1604 173 1604 173 1629.5 162.5 c 128,-1,21
 1655 152 1655 152 1672 152 c 2,22,-1
 1697 152 l 1,23,-1
 1730 0 l 1,24,25
 1702 0 1702 0 1674.5 6 c 128,-1,26
 1647 12 1647 12 1614.5 29 c 128,-1,27
 1582 46 1582 46 1542 76.5 c 128,-1,28
 1502 107 1502 107 1448 156 c 0,29,30
 1423 179 1423 179 1395 203.5 c 128,-1,31
 1367 228 1367 228 1338 251.5 c 128,-1,32
 1309 275 1309 275 1280.5 296.5 c 128,-1,33
 1252 318 1252 318 1228 336 c 2,34,-1
 1171 373 l 1,35,36
 1180 362 1180 362 1189 338 c 0,37,38
 1195 324 1195 324 1199.5 307.5 c 128,-1,39
 1204 291 1204 291 1209 272 c 0,40,41
 1220 219 1220 219 1198.5 174 c 128,-1,42
 1177 129 1177 129 1131.5 92 c 128,-1,43
 1086 55 1086 55 1021 26.5 c 128,-1,44
 956 -2 956 -2 879.5 -21.5 c 128,-1,45
 803 -41 803 -41 720 -51 c 128,-1,46
 637 -61 637 -61 556 -61 c 0,47,48
 417 -61 417 -61 323.5 -33.5 c 128,-1,49
 230 -6 230 -6 172.5 34 c 128,-1,50
 115 74 115 74 87 119.5 c 128,-1,51
 59 165 59 165 52 201 c 0,52,53
 43 241 43 241 49.5 283 c 128,-1,54
 56 325 56 325 68.5 359.5 c 128,-1,55
 81 394 81 394 95.5 416 c 128,-1,56
 110 438 110 438 118 438 c 0,57,58
 135 438 135 438 138 424 c 0,59,60
 139 419 139 419 135 405.5 c 128,-1,61
 131 392 131 392 126.5 371 c 128,-1,62
 122 350 122 350 120.5 323.5 c 128,-1,63
 119 297 119 297 125 268 c 0,64,65
 132 235 132 235 163 201 c 128,-1,66
 194 167 194 167 250 139 c 128,-1,67
 306 111 306 111 387 93.5 c 128,-1,68
 468 76 468 76 574 76 c 0,69,70
 648 76 648 76 721.5 86 c 128,-1,71
 795 96 795 96 861.5 112 c 128,-1,72
 928 128 928 128 984.5 149 c 128,-1,73
 1041 170 1041 170 1081.5 192 c 128,-1,74
 1122 214 1122 214 1143.5 235.5 c 128,-1,75
 1165 257 1165 257 1161 274 c 0,76,77
 1155 301 1155 301 1137 328.5 c 128,-1,78
 1119 356 1119 356 1080 388 c 128,-1,79
 1041 420 1041 420 978 457.5 c 128,-1,80
 915 495 915 495 821 543 c 0,81,82
 770 567 770 567 736.5 588 c 128,-1,83
 703 609 703 609 695 647 c 2,84,-1
 680 719 l 2,85,86
 675 743 675 743 678 770 c 128,-1,87
 681 797 681 797 697 826.5 c 128,-1,88
 713 856 713 856 745 887 c 128,-1,89
 777 918 777 918 829 950 c 0,90,91
 921 1010 921 1010 1052 1079 c 128,-1,92
 1183 1148 1183 1148 1359 1239 c 1,93,-1
 1358 1112 l 1,94,-1
 1358 1112 l 1,0,1
EndSplineSet
EndChar

StartChar: afii52305
Encoding: 64400 64400 221
Width: 646
GlyphClass: 2
Flags: W
AnchorPoint: "Anchor-3" 330 -510 basechar 0
AnchorPoint: "Anchor-2" -45 1095 basechar 0
LayerCount: 2
Fore
SplineSet
418 1057 m 1,0,1
 308 1000 308 1000 218 949.5 c 128,-1,2
 128 899 128 899 56 856 c 0,3,4
 -106 760 -106 760 -99 727 c 0,5,6
 -94 702 -94 702 -42 680 c 0,7,8
 4 658 4 658 40.5 638.5 c 128,-1,9
 77 619 77 619 103 600 c 0,10,11
 353 438 353 438 388 272 c 0,12,13
 445 0 445 0 29 0 c 2,14,-1
 0 0 l 2,15,16
 -70 0 -70 0 -86 76 c 0,17,18
 -101 152 -101 152 -32 152 c 2,19,-1
 57 152 l 2,20,21
 196 152 196 152 276 182 c 0,22,23
 353 214 353 214 344 256 c 0,24,25
 338 284 338 284 310 319 c 128,-1,26
 282 354 282 354 236.5 391.5 c 128,-1,27
 191 429 191 429 131 468 c 128,-1,28
 71 507 71 507 1 543 c 0,29,30
 -33 560 -33 560 -53.5 572 c 128,-1,31
 -74 584 -74 584 -82 590 c 0,32,33
 -99 601 -99 601 -110 615.5 c 128,-1,34
 -121 630 -121 630 -125 647 c 2,35,-1
 -140 719 l 2,36,37
 -152 775 -152 775 -122 828 c 128,-1,38
 -92 881 -92 881 -22 932 c 0,39,40
 34 972 34 972 142.5 1036 c 128,-1,41
 251 1100 251 1100 415 1188 c 1,42,-1
 418 1057 l 1,0,1
EndSplineSet
EndChar

StartChar: afii52306
Encoding: 64401 64401 222
Width: 909
GlyphClass: 2
Flags: W
AnchorPoint: "Anchor-3" 360 -510 basechar 0
AnchorPoint: "Anchor-2" 60 1125 basechar 0
LayerCount: 2
Fore
SplineSet
909 0 m 1,0,1
 846 0 846 0 794 29 c 0,2,3
 763 46 763 46 721.5 77 c 128,-1,4
 680 108 680 108 628 156 c 0,5,6
 543 231 543 231 474 286 c 128,-1,7
 405 341 405 341 350 375 c 1,8,9
 361 356 361 356 371 330 c 128,-1,10
 381 304 381 304 388 272 c 0,11,12
 445 0 445 0 23 0 c 2,13,-1
 0 0 l 2,14,15
 -70 0 -70 0 -86 76 c 0,16,17
 -101 152 -101 152 -32 152 c 2,18,-1
 49 152 l 2,19,20
 366 152 366 152 340 274 c 0,21,22
 317 383 317 383 1 543 c 0,23,24
 -33 560 -33 560 -53.5 572 c 128,-1,25
 -74 584 -74 584 -82 590 c 0,26,27
 -99 601 -99 601 -110 615.5 c 128,-1,28
 -121 630 -121 630 -125 647 c 2,29,-1
 -140 719 l 2,30,31
 -153 779 -153 779 -116 836 c 128,-1,32
 -79 893 -79 893 9 950 c 0,33,34
 84 998 84 998 216 1070 c 128,-1,35
 348 1142 348 1142 539 1239 c 1,36,-1
 537 1112 l 1,37,38
 329 1007 329 1007 192.5 933.5 c 128,-1,39
 56 860 56 860 -11 815 c 0,40,41
 -106 756 -106 756 -99 727 c 0,42,43
 -94 702 -94 702 -10 666 c 0,44,45
 100 618 100 618 178 580 c 128,-1,46
 256 542 256 542 304 516 c 0,47,48
 360 485 360 485 416.5 447 c 128,-1,49
 473 409 473 409 531 362 c 0,50,51
 793 152 793 152 852 152 c 2,52,-1
 876 152 l 1,53,-1
 909 0 l 1,54,-1
 909 0 l 1,0,1
EndSplineSet
EndChar

StartChar: afii57509
Encoding: 1711 1711 223
Width: 1480
GlyphClass: 2
Flags: W
AnchorPoint: "Anchor-3" 600 -525 basechar 0
AnchorPoint: "Anchor-2" 420 1095 basechar 0
LayerCount: 2
Fore
SplineSet
1244 1298 m 1,0,-1
 715 999 l 1,1,-1
 716 1102 l 1,2,-1
 1245 1401 l 1,3,-1
 1244 1298 l 1,0,-1
1262 1057 m 1,4,5
 1133 989 1133 989 1046 940 c 128,-1,6
 959 891 959 891 900 856 c 0,7,8
 855 830 855 830 824.5 810 c 128,-1,9
 794 790 794 790 775 775 c 128,-1,10
 756 760 756 760 749 748.5 c 128,-1,11
 742 737 742 737 744 727 c 0,12,13
 748 709 748 709 761.5 700 c 128,-1,14
 775 691 775 691 800 680 c 128,-1,15
 825 669 825 669 861.5 651.5 c 128,-1,16
 898 634 898 634 948 600 c 0,17,18
 1020 552 1020 552 1071 508.5 c 128,-1,19
 1122 465 1122 465 1155 424.5 c 128,-1,20
 1188 384 1188 384 1206.5 346 c 128,-1,21
 1225 308 1225 308 1233 272 c 0,22,23
 1245 212 1245 212 1229 163.5 c 128,-1,24
 1213 115 1213 115 1171 86 c 0,25,26
 1123 54 1123 54 1065 27 c 128,-1,27
 1007 0 1007 0 932.5 -19.5 c 128,-1,28
 858 -39 858 -39 764 -50 c 128,-1,29
 670 -61 670 -61 549 -61 c 0,30,31
 410 -61 410 -61 316.5 -33.5 c 128,-1,32
 223 -6 223 -6 165.5 34 c 128,-1,33
 108 74 108 74 80 119.5 c 128,-1,34
 52 165 52 165 45 201 c 0,35,36
 36 241 36 241 42.5 283 c 128,-1,37
 49 325 49 325 61.5 359.5 c 128,-1,38
 74 394 74 394 88.5 416 c 128,-1,39
 103 438 103 438 111 438 c 0,40,41
 128 438 128 438 131 424 c 0,42,43
 132 419 132 419 128 405.5 c 128,-1,44
 124 392 124 392 119.5 371 c 128,-1,45
 115 350 115 350 113.5 323.5 c 128,-1,46
 112 297 112 297 118 268 c 0,47,48
 125 235 125 235 156 201 c 128,-1,49
 187 167 187 167 243 139 c 128,-1,50
 299 111 299 111 380 93.5 c 128,-1,51
 461 76 461 76 567 76 c 0,52,53
 720 76 720 76 838 96 c 128,-1,54
 956 116 956 116 1035.5 144.5 c 128,-1,55
 1115 173 1115 173 1154 204 c 128,-1,56
 1193 235 1193 235 1189 256 c 0,57,58
 1183 284 1183 284 1154.5 319.5 c 128,-1,59
 1126 355 1126 355 1080.5 393 c 128,-1,60
 1035 431 1035 431 975 469.5 c 128,-1,61
 915 508 915 508 845 543 c 0,62,63
 793 567 793 567 759.5 588.5 c 128,-1,64
 726 610 726 610 718 647 c 2,65,-1
 703 719 l 2,66,67
 697 744 697 744 699 768.5 c 128,-1,68
 701 793 701 793 714 818.5 c 128,-1,69
 727 844 727 844 753 872 c 128,-1,70
 779 900 779 900 821 932 c 1,71,72
 856 953 856 953 912.5 986 c 128,-1,73
 969 1019 969 1019 1031.5 1056 c 128,-1,74
 1094 1093 1094 1093 1154.5 1128 c 128,-1,75
 1215 1163 1215 1163 1259 1188 c 1,76,-1
 1262 1057 l 1,4,5
EndSplineSet
Substitution2: "'fina' Terminal Forms in Arabic lookup 3 subtable" afii62967
Substitution2: "'medi' Medial Forms in Arabic lookup 2 subtable" afii62966
Substitution2: "'init' Initial Forms in Arabic lookup 0 subtable" afii62965
EndChar

StartChar: afii62967
Encoding: 64403 64403 224
Width: 1720
GlyphClass: 2
Flags: W
AnchorPoint: "Anchor-3" 555 -540 basechar 0
AnchorPoint: "Anchor-2" 330 1110 basechar 0
LayerCount: 2
Fore
SplineSet
1348 1112 m 1,0,1
 1196 1034 1196 1034 1089 977.5 c 128,-1,2
 982 921 982 921 910.5 881 c 128,-1,3
 839 841 839 841 798.5 815.5 c 128,-1,4
 758 790 758 790 738 773 c 128,-1,5
 718 756 718 756 713.5 746 c 128,-1,6
 709 736 709 736 711 727 c 0,7,8
 715 710 715 710 734 698 c 128,-1,9
 753 686 753 686 800 666 c 0,10,11
 868 636 868 636 924 611 c 128,-1,12
 980 586 980 586 1027 563.5 c 128,-1,13
 1074 541 1074 541 1114 519 c 128,-1,14
 1154 497 1154 497 1191.5 473 c 128,-1,15
 1229 449 1229 449 1265.5 422 c 128,-1,16
 1302 395 1302 395 1342 362 c 0,17,18
 1413 303 1413 303 1465.5 263 c 128,-1,19
 1518 223 1518 223 1556 198 c 128,-1,20
 1594 173 1594 173 1619.5 162.5 c 128,-1,21
 1645 152 1645 152 1662 152 c 2,22,-1
 1687 152 l 1,23,-1
 1720 0 l 1,24,25
 1692 0 1692 0 1664.5 6 c 128,-1,26
 1637 12 1637 12 1604.5 29 c 128,-1,27
 1572 46 1572 46 1532 76.5 c 128,-1,28
 1492 107 1492 107 1438 156 c 0,29,30
 1413 179 1413 179 1385 203.5 c 128,-1,31
 1357 228 1357 228 1328 251.5 c 128,-1,32
 1299 275 1299 275 1270.5 296.5 c 128,-1,33
 1242 318 1242 318 1218 336 c 2,34,-1
 1161 373 l 1,35,36
 1170 362 1170 362 1179 338 c 0,37,38
 1185 324 1185 324 1189.5 307.5 c 128,-1,39
 1194 291 1194 291 1199 272 c 0,40,41
 1210 219 1210 219 1188.5 174 c 128,-1,42
 1167 129 1167 129 1121.5 92 c 128,-1,43
 1076 55 1076 55 1011 26.5 c 128,-1,44
 946 -2 946 -2 869.5 -21.5 c 128,-1,45
 793 -41 793 -41 710 -51 c 128,-1,46
 627 -61 627 -61 546 -61 c 0,47,48
 407 -61 407 -61 313.5 -33.5 c 128,-1,49
 220 -6 220 -6 162.5 34 c 128,-1,50
 105 74 105 74 77 119.5 c 128,-1,51
 49 165 49 165 42 201 c 0,52,53
 33 241 33 241 39.5 283 c 128,-1,54
 46 325 46 325 58.5 359.5 c 128,-1,55
 71 394 71 394 85.5 416 c 128,-1,56
 100 438 100 438 108 438 c 0,57,58
 125 438 125 438 128 424 c 0,59,60
 129 419 129 419 125 405.5 c 128,-1,61
 121 392 121 392 116.5 371 c 128,-1,62
 112 350 112 350 110.5 323.5 c 128,-1,63
 109 297 109 297 115 268 c 0,64,65
 122 235 122 235 153 201 c 128,-1,66
 184 167 184 167 240 139 c 128,-1,67
 296 111 296 111 377 93.5 c 128,-1,68
 458 76 458 76 564 76 c 0,69,70
 638 76 638 76 711.5 86 c 128,-1,71
 785 96 785 96 851.5 112 c 128,-1,72
 918 128 918 128 974.5 149 c 128,-1,73
 1031 170 1031 170 1071.5 192 c 128,-1,74
 1112 214 1112 214 1133.5 235.5 c 128,-1,75
 1155 257 1155 257 1151 274 c 0,76,77
 1145 301 1145 301 1127 328.5 c 128,-1,78
 1109 356 1109 356 1070 388 c 128,-1,79
 1031 420 1031 420 968 457.5 c 128,-1,80
 905 495 905 495 811 543 c 0,81,82
 760 567 760 567 726.5 588 c 128,-1,83
 693 609 693 609 685 647 c 2,84,-1
 670 719 l 2,85,86
 665 743 665 743 668 770 c 128,-1,87
 671 797 671 797 687 826.5 c 128,-1,88
 703 856 703 856 735 887 c 128,-1,89
 767 918 767 918 819 950 c 0,90,91
 911 1010 911 1010 1042 1079 c 128,-1,92
 1173 1148 1173 1148 1349 1239 c 1,93,-1
 1348 1112 l 1,0,1
1330 1358 m 1,94,-1
 673 999 l 1,95,-1
 674 1102 l 1,96,-1
 1331 1460 l 1,97,-1
 1330 1358 l 1,94,-1
EndSplineSet
EndChar

StartChar: afii62965
Encoding: 64404 64404 225
Width: 639
GlyphClass: 2
Flags: W
AnchorPoint: "Anchor-3" 285 -495 basechar 0
AnchorPoint: "Anchor-2" -15 1275 basechar 0
LayerCount: 2
Fore
SplineSet
0 0 m 2,0,1
 -70 0 -70 0 -86 76 c 0,2,3
 -101 152 -101 152 -32 152 c 2,4,-1
 57 152 l 2,5,6
 128 152 128 152 183.5 160 c 128,-1,7
 239 168 239 168 276 182.5 c 128,-1,8
 313 197 313 197 330.5 216 c 128,-1,9
 348 235 348 235 344 256 c 0,10,11
 338 284 338 284 310 319.5 c 128,-1,12
 282 355 282 355 236.5 393 c 128,-1,13
 191 431 191 431 131 469.5 c 128,-1,14
 71 508 71 508 1 543 c 0,15,16
 -50 567 -50 567 -83.5 588.5 c 128,-1,17
 -117 610 -117 610 -125 647 c 2,18,-1
 -140 719 l 2,19,20
 -146 744 -146 744 -144 768.5 c 128,-1,21
 -142 793 -142 793 -129 818.5 c 128,-1,22
 -116 844 -116 844 -90 872 c 128,-1,23
 -64 900 -64 900 -22 932 c 1,24,25
 13 953 13 953 69 986 c 128,-1,26
 125 1019 125 1019 187.5 1056 c 128,-1,27
 250 1093 250 1093 310.5 1128 c 128,-1,28
 371 1163 371 1163 415 1188 c 1,29,-1
 418 1057 l 1,30,31
 289 989 289 989 202 940 c 128,-1,32
 115 891 115 891 56 856 c 0,33,34
 11 830 11 830 -19.5 810 c 128,-1,35
 -50 790 -50 790 -68.5 775 c 128,-1,36
 -87 760 -87 760 -94 748.5 c 128,-1,37
 -101 737 -101 737 -99 727 c 0,38,39
 -95 710 -95 710 -81 700.5 c 128,-1,40
 -67 691 -67 691 -41.5 679.5 c 128,-1,41
 -16 668 -16 668 20 650.5 c 128,-1,42
 56 633 56 633 103 600 c 0,43,44
 176 553 176 553 227 509.5 c 128,-1,45
 278 466 278 466 311 425 c 128,-1,46
 344 384 344 384 362 346 c 128,-1,47
 380 308 380 308 388 272 c 0,48,49
 404 195 404 195 384 142.5 c 128,-1,50
 364 90 364 90 315 58.5 c 128,-1,51
 266 27 266 27 192.5 13.5 c 128,-1,52
 119 0 119 0 29 0 c 2,53,-1
 0 0 l 2,0,1
400 1298 m 1,54,-1
 -128 999 l 1,55,-1
 -128 1102 l 1,56,-1
 400 1401 l 1,57,-1
 400 1298 l 1,54,-1
EndSplineSet
EndChar

StartChar: afii62966
Encoding: 64405 64405 226
Width: 909
GlyphClass: 2
Flags: W
AnchorPoint: "Anchor-3" 390 -480 basechar 0
AnchorPoint: "Anchor-2" -45 1365 basechar 0
LayerCount: 2
Fore
SplineSet
0 0 m 2,0,1
 -70 0 -70 0 -86 76 c 0,2,3
 -101 152 -101 152 -32 152 c 2,4,-1
 49 152 l 2,5,6
 116 152 116 152 172.5 159 c 128,-1,7
 229 166 229 166 268.5 181 c 128,-1,8
 308 196 308 196 327.5 219 c 128,-1,9
 347 242 347 242 340 274 c 0,10,11
 334 301 334 301 315.5 329 c 128,-1,12
 297 357 297 357 258.5 389 c 128,-1,13
 220 421 220 421 157.5 458.5 c 128,-1,14
 95 496 95 496 1 543 c 0,15,16
 -50 567 -50 567 -83.5 588.5 c 128,-1,17
 -117 610 -117 610 -125 647 c 2,18,-1
 -140 719 l 2,19,20
 -146 744 -146 744 -142.5 771 c 128,-1,21
 -139 798 -139 798 -122.5 826.5 c 128,-1,22
 -106 855 -106 855 -74 886 c 128,-1,23
 -42 917 -42 917 9 950 c 0,24,25
 100 1010 100 1010 231 1079 c 128,-1,26
 362 1148 362 1148 539 1239 c 1,27,-1
 537 1112 l 1,28,29
 385 1034 385 1034 278.5 977.5 c 128,-1,30
 172 921 172 921 100.5 881 c 128,-1,31
 29 841 29 841 -11.5 815.5 c 128,-1,32
 -52 790 -52 790 -72 773 c 128,-1,33
 -92 756 -92 756 -96.5 746 c 128,-1,34
 -101 736 -101 736 -99 727 c 0,35,36
 -97 719 -97 719 -92 712 c 128,-1,37
 -87 705 -87 705 -76.5 698 c 128,-1,38
 -66 691 -66 691 -50 683.5 c 128,-1,39
 -34 676 -34 676 -10 666 c 0,40,41
 93 621 93 621 168 586.5 c 128,-1,42
 243 552 243 552 304 518 c 128,-1,43
 365 484 365 484 418.5 447.5 c 128,-1,44
 472 411 472 411 531 362 c 0,45,46
 604 304 604 304 656 264 c 128,-1,47
 708 224 708 224 745.5 199 c 128,-1,48
 783 174 783 174 808 163 c 128,-1,49
 833 152 833 152 852 152 c 2,50,-1
 876 152 l 1,51,-1
 909 0 l 1,52,53
 880 0 880 0 853 6 c 128,-1,54
 826 12 826 12 794 29 c 128,-1,55
 762 46 762 46 722.5 76.5 c 128,-1,56
 683 107 683 107 628 156 c 0,57,58
 603 179 603 179 574.5 203.5 c 128,-1,59
 546 228 546 228 517 251.5 c 128,-1,60
 488 275 488 275 460 296.5 c 128,-1,61
 432 318 432 318 407 336 c 2,62,-1
 350 373 l 1,63,-1
 368 338 l 2,64,65
 374 324 374 324 378.5 307.5 c 128,-1,66
 383 291 383 291 388 272 c 0,67,68
 406 189 406 189 383 136 c 128,-1,69
 360 83 360 83 309 53 c 128,-1,70
 258 23 258 23 183.5 11.5 c 128,-1,71
 109 0 109 0 23 0 c 2,72,-1
 0 0 l 2,0,1
520 1358 m 1,73,-1
 -136 999 l 1,74,-1
 -136 1102 l 1,75,-1
 520 1460 l 1,76,-1
 520 1358 l 1,73,-1
EndSplineSet
EndChar

StartChar: afii57555
Encoding: 1740 1740 227
Width: 1200
GlyphClass: 2
Flags: W
AnchorPoint: "Anchor-3" 480 -825 basechar 0
AnchorPoint: "Anchor-2" 315 765 basechar 0
LayerCount: 2
Fore
SplineSet
1035 549 m 0,0,1
 1037 541 1037 541 1034 524.5 c 128,-1,2
 1031 508 1031 508 1022 485 c 0,3,4
 1007 440 1007 440 997 440 c 0,5,6
 995 440 995 440 985.5 447.5 c 128,-1,7
 976 455 976 455 956 469 c 0,8,9
 938 483 938 483 921 490.5 c 128,-1,10
 904 498 904 498 889 498 c 0,11,12
 825 498 825 498 737 395 c 0,13,14
 652 301 652 301 658 270 c 0,15,16
 663 244 663 244 688 222 c 128,-1,17
 713 200 713 200 755 180 c 0,18,19
 793 163 793 163 829 154 c 128,-1,20
 865 145 865 145 900 145 c 0,21,22
 946 145 946 145 978 139.5 c 128,-1,23
 1010 134 1010 134 1031 122 c 128,-1,24
 1052 110 1052 110 1063.5 90.5 c 128,-1,25
 1075 71 1075 71 1081 43 c 0,26,27
 1099 -41 1099 -41 1044 -119 c 0,28,29
 1019 -154 1019 -154 973.5 -189 c 128,-1,30
 928 -224 928 -224 860 -256 c 0,31,32
 693 -342 693 -342 520 -342 c 0,33,34
 359 -342 359 -342 246 -256 c 0,35,36
 185 -211 185 -211 147 -148.5 c 128,-1,37
 109 -86 109 -86 91 -2 c 0,38,39
 66 114 66 114 98 229 c 0,40,41
 124 326 124 326 144 326 c 256,42,43
 164 326 164 326 167 307 c 0,44,45
 168 305 168 305 152 223 c 0,46,47
 137 140 137 140 150 78 c 0,48,49
 177 -47 177 -47 287 -123 c 0,50,51
 393 -197 393 -197 530 -197 c 0,52,53
 693 -197 693 -197 873 -104 c 0,54,55
 1033 -25 1033 -25 1027 8 c 0,56,57
 1024 23 1024 23 1004 23 c 0,58,59
 999 23 999 23 986.5 22 c 128,-1,60
 974 21 974 21 958 19.5 c 128,-1,61
 942 18 942 18 925.5 17 c 128,-1,62
 909 16 909 16 896 16 c 0,63,64
 778 16 778 16 703 59 c 0,65,66
 634 99 634 99 620 164 c 0,67,68
 587 318 587 318 706 485 c 0,69,70
 819 643 819 643 921 643 c 0,71,72
 935 643 935 643 951 634 c 128,-1,73
 967 625 967 625 989 606 c 0,74,75
 1031 569 1031 569 1035 549 c 0,0,1
EndSplineSet
Substitution2: "'fina' Terminal Forms in Arabic lookup 3 subtable" afii52364
Substitution2: "'medi' Medial Forms in Arabic lookup 2 subtable" afii62832
Substitution2: "'init' Initial Forms in Arabic lookup 0 subtable" uniFBFE
EndChar

StartChar: afii52364
Encoding: 64509 64509 228
Width: 1049
GlyphClass: 2
Flags: W
AnchorPoint: "Anchor-3" 480 -1005 basechar 0
AnchorPoint: "Anchor-2" 435 465 basechar 0
LayerCount: 2
Fore
SplineSet
1049 0 m 1,0,1
 983 0 983 0 927 -6.5 c 128,-1,2
 871 -13 871 -13 826 -27 c 0,3,4
 751 -48 751 -48 756 -72 c 0,5,6
 759 -86 759 -86 925 -115 c 0,7,8
 1034 -130 1034 -130 1049 -205 c 0,9,10
 1065 -282 1065 -282 1011 -336 c 0,11,12
 808 -530 808 -530 536 -530 c 0,13,14
 451 -530 451 -530 379.5 -510 c 128,-1,15
 308 -490 308 -490 253.5 -451.5 c 128,-1,16
 199 -413 199 -413 162.5 -356.5 c 128,-1,17
 126 -300 126 -300 111 -227 c 0,18,19
 74 -54 74 -54 192 96 c 0,20,21
 198 104 198 104 204.5 108.5 c 128,-1,22
 211 113 211 113 219 113 c 0,23,24
 233 113 233 113 238 92 c 1,25,26
 238 94 238 94 227.5 72.5 c 128,-1,27
 217 51 217 51 197 6 c 256,28,29
 177 -39 177 -39 171 -82 c 128,-1,30
 165 -125 165 -125 174 -168 c 0,31,32
 194 -257 194 -257 292 -328 c 0,33,34
 395 -401 395 -401 513 -401 c 0,35,36
 677 -401 677 -401 830 -340 c 0,37,38
 962 -285 962 -285 954 -254 c 0,39,40
 952 -246 952 -246 933 -240 c 128,-1,41
 914 -234 914 -234 873 -229 c 0,42,43
 765 -214 765 -214 727 -205 c 0,44,45
 646 -177 646 -177 634 -123 c 0,46,47
 612 -23 612 -23 734 63 c 1,48,49
 851 152 851 152 1016 152 c 1,50,-1
 1049 0 l 1,51,-1
 1049 0 l 1,0,1
EndSplineSet
EndChar

StartChar: afii62882
Encoding: 64606 64606 229
Width: 0
GlyphClass: 4
Flags: W
AnchorPoint: "Anchor-2" 0 0 mark 0
AnchorPoint: "Anchor-0" 0 0 mark 0
LayerCount: 2
Fore
SplineSet
135 171 m 0,0,1
 139 152 139 152 136 133.5 c 128,-1,2
 133 115 133 115 125 103 c 0,3,4
 112 78 112 78 94.5 64 c 128,-1,5
 77 50 77 50 57 50 c 0,6,7
 25 50 25 50 -5 62 c 1,8,9
 -28 30 -28 30 -53.5 14.5 c 128,-1,10
 -79 -1 -79 -1 -103 -1 c 0,11,12
 -134 -1 -134 -1 -157.5 18 c 128,-1,13
 -181 37 -181 37 -189 74 c 0,14,15
 -193 91 -193 91 -191 115 c 128,-1,16
 -189 139 -189 139 -183 161.5 c 128,-1,17
 -177 184 -177 184 -168 200 c 128,-1,18
 -159 216 -159 216 -149 216 c 0,19,20
 -138 216 -138 216 -135 193 c 0,21,22
 -134 186 -134 186 -135.5 175.5 c 128,-1,23
 -137 165 -137 165 -139 153 c 128,-1,24
 -141 141 -141 141 -142 129 c 128,-1,25
 -143 117 -143 117 -141 107 c 0,26,27
 -139 95 -139 95 -131.5 87.5 c 128,-1,28
 -124 80 -124 80 -113 80 c 0,29,30
 -96 80 -96 80 -83 88 c 128,-1,31
 -70 96 -70 96 -63 113 c 1,32,33
 -63 131 -63 131 -62.5 154.5 c 128,-1,34
 -62 178 -62 178 -58.5 199 c 128,-1,35
 -55 220 -55 220 -46.5 234 c 128,-1,36
 -38 248 -38 248 -23 248 c 0,37,38
 -9 248 -9 248 -8 240 c 0,39,40
 -6 234 -6 234 -9 214.5 c 128,-1,41
 -12 195 -12 195 -8 175 c 0,42,43
 3 128 3 128 48 128 c 0,44,45
 56 128 56 128 69.5 133 c 128,-1,46
 83 138 83 138 81 150 c 0,47,48
 76 170 76 170 70.5 190.5 c 128,-1,49
 65 211 65 211 59 234 c 0,50,51
 58 236 58 236 61 244.5 c 128,-1,52
 64 253 64 253 69 262 c 128,-1,53
 74 271 74 271 80 278 c 128,-1,54
 86 285 86 285 91 285 c 256,55,56
 96 285 96 285 102.5 273 c 128,-1,57
 109 261 109 261 115 243.5 c 128,-1,58
 121 226 121 226 126.5 206 c 128,-1,59
 132 186 132 186 135 171 c 0,0,1
87 591 m 0,60,61
 94 562 94 562 85.5 529 c 128,-1,62
 77 496 77 496 54 458 c 1,63,64
 74 445 74 445 86.5 437 c 128,-1,65
 99 429 99 429 101 421 c 0,66,67
 101 418 101 418 97 410 c 128,-1,68
 93 402 93 402 86.5 393.5 c 128,-1,69
 80 385 80 385 72 378.5 c 128,-1,70
 64 372 64 372 56 372 c 0,71,72
 50 372 50 372 34 382 c 128,-1,73
 18 392 18 392 4 398 c 1,74,75
 -19 380 -19 380 -47 364 c 128,-1,76
 -75 348 -75 348 -104.5 336.5 c 128,-1,77
 -134 325 -134 325 -161.5 318.5 c 128,-1,78
 -189 312 -189 312 -210 312 c 0,79,80
 -230 312 -230 312 -244 316.5 c 128,-1,81
 -258 321 -258 321 -260 329 c 256,82,83
 -262 337 -262 337 -259.5 349 c 128,-1,84
 -257 361 -257 361 -253.5 374.5 c 128,-1,85
 -250 388 -250 388 -247.5 402.5 c 128,-1,86
 -245 417 -245 417 -248 429 c 0,87,88
 -254 455 -254 455 -272 466.5 c 128,-1,89
 -290 478 -290 478 -310 478 c 0,90,91
 -336 478 -336 478 -354.5 468 c 128,-1,92
 -373 458 -373 458 -387 458 c 0,93,94
 -404 458 -404 458 -408 478 c 0,95,96
 -409 482 -409 482 -404 494 c 128,-1,97
 -399 506 -399 506 -387.5 519 c 128,-1,98
 -376 532 -376 532 -356.5 542 c 128,-1,99
 -337 552 -337 552 -309 552 c 0,100,101
 -291 552 -291 552 -273 546.5 c 128,-1,102
 -255 541 -255 541 -240 530.5 c 128,-1,103
 -225 520 -225 520 -214 504.5 c 128,-1,104
 -203 489 -203 489 -199 470 c 0,105,106
 -196 456 -196 456 -195.5 433.5 c 128,-1,107
 -195 411 -195 411 -197 382 c 1,108,109
 -153 390 -153 390 -114.5 401.5 c 128,-1,110
 -76 413 -76 413 -50 431 c 1,111,112
 -66 443 -66 443 -82.5 454.5 c 128,-1,113
 -99 466 -99 466 -113 479.5 c 128,-1,114
 -127 493 -127 493 -137 508.5 c 128,-1,115
 -147 524 -147 524 -151 542 c 0,116,117
 -157 571 -157 571 -143 595 c 128,-1,118
 -129 619 -129 619 -98 638 c 0,119,120
 -75 652 -75 652 -50 659.5 c 128,-1,121
 -25 667 -25 667 4 667 c 0,122,123
 34 667 34 667 56.5 646.5 c 128,-1,124
 79 626 79 626 87 591 c 0,60,61
27 558 m 0,125,126
 23 578 23 578 9 592.5 c 128,-1,127
 -5 607 -5 607 -30 607 c 0,128,129
 -61 607 -61 607 -72 593.5 c 128,-1,130
 -83 580 -83 580 -80 566 c 0,131,132
 -75 540 -75 540 -50 516 c 128,-1,133
 -25 492 -25 492 7 478 c 1,134,135
 34 519 34 519 27 558 c 0,125,126
EndSplineSet
Ligature2: "'ccmp' Glyph Composition/Decomposition in Arabic lookup 4 subtable" afii57457 afii57452
EndChar

StartChar: afii62883
Encoding: 64607 64607 230
Width: 0
GlyphClass: 4
Flags: W
AnchorPoint: "Anchor-2" 0 0 mark 0
AnchorPoint: "Anchor-0" 0 0 mark 0
LayerCount: 2
Fore
SplineSet
22 557 m 0,0,1
 26 538 26 538 23 519.5 c 128,-1,2
 20 501 20 501 12 489 c 0,3,4
 0 464 0 464 -17.5 450 c 128,-1,5
 -35 436 -35 436 -55 436 c 0,6,7
 -87 436 -87 436 -118 448 c 1,8,9
 -141 416 -141 416 -166.5 400.5 c 128,-1,10
 -192 385 -192 385 -216 385 c 0,11,12
 -247 385 -247 385 -270.5 404 c 128,-1,13
 -294 423 -294 423 -302 460 c 0,14,15
 -306 477 -306 477 -304 501 c 128,-1,16
 -302 525 -302 525 -296 547.5 c 128,-1,17
 -290 570 -290 570 -281 586 c 128,-1,18
 -272 602 -272 602 -262 602 c 0,19,20
 -256 602 -256 602 -253 596 c 128,-1,21
 -250 590 -250 590 -248 579 c 0,22,23
 -247 572 -247 572 -248.5 561.5 c 128,-1,24
 -250 551 -250 551 -252 539 c 128,-1,25
 -254 527 -254 527 -255 515 c 128,-1,26
 -256 503 -256 503 -254 493 c 0,27,28
 -252 481 -252 481 -244.5 473.5 c 128,-1,29
 -237 466 -237 466 -226 466 c 0,30,31
 -209 466 -209 466 -196 474 c 128,-1,32
 -183 482 -183 482 -176 499 c 1,33,34
 -176 517 -176 517 -175.5 540.5 c 128,-1,35
 -175 564 -175 564 -171.5 585 c 128,-1,36
 -168 606 -168 606 -159.5 620 c 128,-1,37
 -151 634 -151 634 -136 634 c 0,38,39
 -122 634 -122 634 -121 626 c 0,40,41
 -119 620 -119 620 -122 600.5 c 128,-1,42
 -125 581 -125 581 -121 561 c 0,43,44
 -110 514 -110 514 -64 514 c 0,45,46
 -56 514 -56 514 -42.5 519 c 128,-1,47
 -29 524 -29 524 -31 536 c 0,48,49
 -36 556 -36 556 -41.5 576.5 c 128,-1,50
 -47 597 -47 597 -53 620 c 0,51,52
 -54 622 -54 622 -51 630.5 c 128,-1,53
 -48 639 -48 639 -43 648 c 128,-1,54
 -38 657 -38 657 -32 664 c 128,-1,55
 -26 671 -26 671 -21 671 c 256,56,57
 -16 671 -16 671 -10 659 c 128,-1,58
 -4 647 -4 647 2 629.5 c 128,-1,59
 8 612 8 612 13.5 592 c 128,-1,60
 19 572 19 572 22 557 c 0,0,1
85 413 m 1,61,62
 94 370 94 370 77 336 c 0,63,64
 67 314 67 314 41 294.5 c 128,-1,65
 15 275 15 275 -110 210 c 1,66,-1
 -145 190 l 2,67,68
 -164 179 -164 179 -177 171 c 2,69,-1
 -202 154 l 1,70,-1
 -222 141 l 1,71,-1
 -235 132 l 2,72,73
 -240 129 -240 129 -243 127 c 2,74,-1
 -246 127 l 1,75,-1
 -248 127 l 2,76,77
 -251 129 -251 129 -251 131 c 0,78,79
 -252 134 -252 134 -251 139 c 0,80,81
 -250 142 -250 142 -246 155 c 0,82,83
 -237 194 -237 194 -229.5 213 c 128,-1,84
 -222 232 -222 232 -212 241 c 0,85,86
 -189 260 -189 260 -34 339 c 0,87,88
 54 385 54 385 85 413 c 1,61,62
123 233 m 1,89,90
 132 190 132 190 115 156 c 0,91,92
 105 134 105 134 79 114.5 c 128,-1,93
 53 95 53 95 -72 30 c 1,94,-1
 -107 10 l 2,95,96
 -125 -1 -125 -1 -139 -9 c 2,97,-1
 -164 -26 l 1,98,-1
 -184 -39 l 1,99,-1
 -196 -48 l 2,100,101
 -202 -51 -202 -51 -205 -53 c 2,102,-1
 -208 -53 l 1,103,-1
 -210 -53 l 2,104,105
 -213 -51 -213 -51 -213 -49 c 0,106,107
 -214 -46 -214 -46 -213 -41 c 0,108,109
 -211 -38 -211 -38 -208 -25 c 0,110,111
 -198 14 -198 14 -191 33 c 128,-1,112
 -184 52 -184 52 -173 61 c 0,113,114
 -151 80 -151 80 4 159 c 0,115,116
 92 205 92 205 123 233 c 1,89,90
EndSplineSet
Ligature2: "'ccmp' Glyph Composition/Decomposition in Arabic lookup 4 subtable" afii57457 afii57453
EndChar

StartChar: afii62884
Encoding: 64608 64608 231
Width: 0
GlyphClass: 4
Flags: W
AnchorPoint: "Anchor-2" 0 0 mark 0
AnchorPoint: "Anchor-0" 0 0 mark 0
LayerCount: 2
Fore
SplineSet
135 171 m 0,0,1
 132 186 132 186 126.5 206 c 128,-1,2
 121 226 121 226 115 243.5 c 128,-1,3
 109 261 109 261 102.5 273 c 128,-1,4
 96 285 96 285 91 285 c 256,5,6
 86 285 86 285 80 278 c 128,-1,7
 74 271 74 271 69 262 c 128,-1,8
 64 253 64 253 61 244.5 c 128,-1,9
 58 236 58 236 59 234 c 0,10,11
 65 211 65 211 70.5 190.5 c 128,-1,12
 76 170 76 170 81 150 c 0,13,14
 83 138 83 138 69.5 133 c 128,-1,15
 56 128 56 128 48 128 c 0,16,17
 3 128 3 128 -8 175 c 0,18,19
 -12 195 -12 195 -9 214.5 c 128,-1,20
 -6 234 -6 234 -8 240 c 0,21,22
 -9 248 -9 248 -23 248 c 0,23,24
 -38 248 -38 248 -46.5 234 c 128,-1,25
 -55 220 -55 220 -58.5 199 c 128,-1,26
 -62 178 -62 178 -62.5 154.5 c 128,-1,27
 -63 131 -63 131 -63 113 c 1,28,29
 -70 96 -70 96 -83 88 c 128,-1,30
 -96 80 -96 80 -113 80 c 0,31,32
 -124 80 -124 80 -131.5 87.5 c 128,-1,33
 -139 95 -139 95 -141 107 c 0,34,35
 -143 117 -143 117 -142 129 c 128,-1,36
 -141 141 -141 141 -139 153 c 128,-1,37
 -137 165 -137 165 -135.5 175.5 c 128,-1,38
 -134 186 -134 186 -135 193 c 0,39,40
 -138 216 -138 216 -149 216 c 0,41,42
 -159 216 -159 216 -168 200 c 128,-1,43
 -177 184 -177 184 -183 161.5 c 128,-1,44
 -189 139 -189 139 -191 115 c 128,-1,45
 -193 91 -193 91 -189 74 c 0,46,47
 -181 37 -181 37 -157.5 18 c 128,-1,48
 -134 -1 -134 -1 -103 -1 c 0,49,50
 -79 -1 -79 -1 -53.5 14.5 c 128,-1,51
 -28 30 -28 30 -5 62 c 1,52,53
 25 50 25 50 57 50 c 0,54,55
 77 50 77 50 94.5 64 c 128,-1,56
 112 78 112 78 125 103 c 0,57,58
 133 115 133 115 136 133.5 c 128,-1,59
 139 152 139 152 135 171 c 0,0,1
110 571 m 1,60,61
 120 528 120 528 103 494 c 0,62,63
 93 472 93 472 67 452.5 c 128,-1,64
 41 433 41 433 -101 360 c 1,65,-1
 -135 340 l 2,66,67
 -154 329 -154 329 -167 321 c 2,68,-1
 -193 304 l 1,69,-1
 -213 291 l 1,70,-1
 -225 282 l 2,71,72
 -230 279 -230 279 -234 277 c 2,73,-1
 -237 277 l 1,74,-1
 -239 277 l 2,75,76
 -241 279 -241 279 -242 281 c 0,77,78
 -243 284 -243 284 -242 289 c 0,79,80
 -240 292 -240 292 -237 305 c 0,81,82
 -227 344 -227 344 -219.5 363 c 128,-1,83
 -212 382 -212 382 -202 391 c 0,84,85
 -179 410 -179 410 -8 497 c 0,86,87
 79 543 79 543 110 571 c 1,60,61
EndSplineSet
Ligature2: "'ccmp' Glyph Composition/Decomposition in Arabic lookup 4 subtable" afii57457 afii57454
EndChar

StartChar: afii62885
Encoding: 64609 64609 232
Width: 0
GlyphClass: 4
Flags: W
AnchorPoint: "Anchor-2" 0 0 mark 0
AnchorPoint: "Anchor-0" 0 0 mark 0
LayerCount: 2
Fore
SplineSet
135 171 m 0,0,1
 139 152 139 152 136 133.5 c 128,-1,2
 133 115 133 115 125 103 c 0,3,4
 112 78 112 78 94.5 64 c 128,-1,5
 77 50 77 50 57 50 c 0,6,7
 25 50 25 50 -5 62 c 1,8,9
 -28 30 -28 30 -53.5 14.5 c 128,-1,10
 -79 -1 -79 -1 -103 -1 c 0,11,12
 -134 -1 -134 -1 -157.5 18 c 128,-1,13
 -181 37 -181 37 -189 74 c 0,14,15
 -193 91 -193 91 -191 115 c 128,-1,16
 -189 139 -189 139 -183 161.5 c 128,-1,17
 -177 184 -177 184 -168 200 c 128,-1,18
 -159 216 -159 216 -149 216 c 0,19,20
 -138 216 -138 216 -135 193 c 0,21,22
 -134 186 -134 186 -135.5 175.5 c 128,-1,23
 -137 165 -137 165 -139 153 c 128,-1,24
 -141 141 -141 141 -142 129 c 128,-1,25
 -143 117 -143 117 -141 107 c 0,26,27
 -139 95 -139 95 -131.5 87.5 c 128,-1,28
 -124 80 -124 80 -113 80 c 0,29,30
 -96 80 -96 80 -83 88 c 128,-1,31
 -70 96 -70 96 -63 113 c 1,32,33
 -63 131 -63 131 -62.5 154.5 c 128,-1,34
 -62 178 -62 178 -58.5 199 c 128,-1,35
 -55 220 -55 220 -46.5 234 c 128,-1,36
 -38 248 -38 248 -23 248 c 0,37,38
 -9 248 -9 248 -8 240 c 0,39,40
 -6 234 -6 234 -9 214.5 c 128,-1,41
 -12 195 -12 195 -8 175 c 0,42,43
 3 128 3 128 48 128 c 0,44,45
 56 128 56 128 69.5 133 c 128,-1,46
 83 138 83 138 81 150 c 0,47,48
 76 170 76 170 70.5 190.5 c 128,-1,49
 65 211 65 211 59 234 c 0,50,51
 58 236 58 236 61 244.5 c 128,-1,52
 64 253 64 253 69 262 c 128,-1,53
 74 271 74 271 80 278 c 128,-1,54
 86 285 86 285 91 285 c 256,55,56
 96 285 96 285 102.5 273 c 128,-1,57
 109 261 109 261 115 243.5 c 128,-1,58
 121 226 121 226 126.5 206 c 128,-1,59
 132 186 132 186 135 171 c 0,0,1
24 600 m 0,60,61
 35 578 35 578 39.5 547.5 c 128,-1,62
 44 517 44 517 40 481 c 1,63,64
 55 476 55 476 68 470.5 c 128,-1,65
 81 465 81 465 85 460 c 0,66,67
 86 458 86 458 84.5 449.5 c 128,-1,68
 83 441 83 441 80.5 431 c 128,-1,69
 78 421 78 421 75 413 c 128,-1,70
 72 405 72 405 69 404 c 0,71,72
 60 401 60 401 45 408 c 128,-1,73
 30 415 30 415 19 417 c 1,74,75
 5 382 5 382 -22 354 c 128,-1,76
 -49 326 -49 326 -90 312 c 0,77,78
 -133 297 -133 297 -158.5 297.5 c 128,-1,79
 -184 298 -184 298 -190 309 c 0,80,81
 -196 316 -196 316 -185 320 c 0,82,83
 -167 326 -167 326 -145 337 c 128,-1,84
 -123 348 -123 348 -101 362.5 c 128,-1,85
 -79 377 -79 377 -59.5 394.5 c 128,-1,86
 -40 412 -40 412 -27 431 c 1,87,88
 -64 440 -64 440 -95.5 453 c 128,-1,89
 -127 466 -127 466 -142 495 c 0,90,91
 -153 514 -153 514 -151.5 540.5 c 128,-1,92
 -150 567 -150 567 -127 597 c 0,93,94
 -100 633 -100 633 -65 645 c 0,95,96
 -38 655 -38 655 -14.5 641.5 c 128,-1,97
 9 628 9 628 24 600 c 0,60,61
-11 557 m 0,98,99
 -22 577 -22 577 -36 585 c 128,-1,100
 -50 593 -50 593 -67 586 c 0,101,102
 -86 580 -86 580 -94 565 c 128,-1,103
 -102 550 -102 550 -96 539 c 0,104,105
 -86 520 -86 520 -62 507.5 c 128,-1,106
 -38 495 -38 495 0 487 c 1,107,108
 2 504 2 504 0 521.5 c 128,-1,109
 -2 539 -2 539 -11 557 c 0,98,99
EndSplineSet
Ligature2: "'ccmp' Glyph Composition/Decomposition in Arabic lookup 4 subtable" afii57457 afii57455
EndChar

StartChar: afii62886
Encoding: 64610 64610 233
Width: 0
GlyphClass: 4
Flags: W
AnchorPoint: "Anchor-2" 0 0 mark 0
AnchorPoint: "Anchor-0" 0 0 mark 0
LayerCount: 2
Fore
SplineSet
72 427 m 0,0,1
 76 408 76 408 73 389.5 c 128,-1,2
 70 371 70 371 61 359 c 0,3,4
 48 334 48 334 30.5 320 c 128,-1,5
 13 306 13 306 -6 306 c 0,6,7
 -23 306 -23 306 -37.5 309 c 128,-1,8
 -52 312 -52 312 -68 318 c 1,9,10
 -91 286 -91 286 -117 270.5 c 128,-1,11
 -143 255 -143 255 -167 255 c 0,12,13
 -198 255 -198 255 -221.5 274 c 128,-1,14
 -245 293 -245 293 -253 330 c 0,15,16
 -256 347 -256 347 -254 371 c 128,-1,17
 -252 395 -252 395 -246.5 417.5 c 128,-1,18
 -241 440 -241 440 -232 456 c 128,-1,19
 -223 472 -223 472 -213 472 c 256,20,21
 -203 472 -203 472 -198 449 c 0,22,23
 -197 442 -197 442 -198.5 431.5 c 128,-1,24
 -200 421 -200 421 -202 409 c 128,-1,25
 -204 397 -204 397 -205.5 385 c 128,-1,26
 -207 373 -207 373 -205 363 c 0,27,28
 -202 351 -202 351 -194.5 343.5 c 128,-1,29
 -187 336 -187 336 -176 336 c 0,30,31
 -159 336 -159 336 -146 344 c 128,-1,32
 -133 352 -133 352 -126 369 c 1,33,34
 -126 387 -126 387 -125.5 410.5 c 128,-1,35
 -125 434 -125 434 -121.5 455 c 128,-1,36
 -118 476 -118 476 -110 490 c 128,-1,37
 -102 504 -102 504 -87 504 c 256,38,39
 -72 504 -72 504 -71 496 c 0,40,41
 -70 493 -70 493 -71 486 c 128,-1,42
 -72 479 -72 479 -72.5 470 c 128,-1,43
 -73 461 -73 461 -73 451 c 128,-1,44
 -73 441 -73 441 -71 431 c 0,45,46
 -62 384 -62 384 -14 384 c 0,47,48
 -10 384 -10 384 -4.5 385 c 128,-1,49
 1 386 1 386 6.5 389 c 128,-1,50
 12 392 12 392 15 396 c 128,-1,51
 18 400 18 400 17 406 c 0,52,53
 12 426 12 426 7 446.5 c 128,-1,54
 2 467 2 467 -4 490 c 0,55,56
 -4 492 -4 492 -1 500.5 c 128,-1,57
 2 509 2 509 7 518 c 128,-1,58
 12 527 12 527 17.5 534 c 128,-1,59
 23 541 23 541 28 541 c 256,60,61
 33 541 33 541 39.5 529 c 128,-1,62
 46 517 46 517 52 499.5 c 128,-1,63
 58 482 58 482 63.5 462 c 128,-1,64
 69 442 69 442 72 427 c 0,0,1
144 273 m 1,65,66
 154 230 154 230 137 196 c 0,67,68
 127 174 127 174 101 154.5 c 128,-1,69
 75 135 75 135 -67 62 c 1,70,-1
 -101 42 l 2,71,72
 -120 31 -120 31 -133 23 c 2,73,-1
 -159 6 l 1,74,-1
 -179 -7 l 1,75,-1
 -191 -16 l 2,76,77
 -196 -19 -196 -19 -200 -21 c 2,78,-1
 -203 -21 l 1,79,-1
 -205 -21 l 2,80,81
 -207 -19 -207 -19 -208 -17 c 0,82,83
 -209 -14 -209 -14 -208 -9 c 0,84,85
 -206 -6 -206 -6 -203 7 c 0,86,87
 -193 46 -193 46 -185.5 65 c 128,-1,88
 -178 84 -178 84 -168 93 c 0,89,90
 -145 112 -145 112 25 199 c 0,91,92
 113 245 113 245 144 273 c 1,65,66
EndSplineSet
Ligature2: "'ccmp' Glyph Composition/Decomposition in Arabic lookup 4 subtable" afii57457 afii57456
EndChar

StartChar: afii62945
Encoding: 65554 -1 234
Width: 1407
GlyphClass: 3
Flags: W
AnchorPoint: "Anchor-1" 1275 -330 baselig 0
AnchorPoint: "Anchor-0" 900 930 baselig 0
AnchorPoint: "Anchor-1" 885 -435 baselig 1
AnchorPoint: "Anchor-0" 555 780 baselig 1
AnchorPoint: "Anchor-1" 285 -450 baselig 2
AnchorPoint: "Anchor-0" 150 600 baselig 2
LayerCount: 2
Fore
SplineSet
1221 236 m 0,0,1
 1235 172 1235 172 1213 92 c 0,2,3
 1203 43 1203 43 1177.5 19.5 c 128,-1,4
 1152 -4 1152 -4 1126 -4 c 0,5,6
 1055 -4 1055 -4 979.5 32 c 128,-1,7
 904 68 904 68 837 143 c 1,8,9
 819 49 819 49 770.5 3 c 128,-1,10
 722 -43 722 -43 648 -43 c 0,11,12
 471 -43 471 -43 410 248 c 1,13,-1
 338 174 l 2,14,15
 303 141 303 141 244 141 c 0,16,17
 201 141 201 141 127 154 c 0,18,19
 44 169 44 169 42 178 c 0,20,21
 40 184 40 184 42.5 200.5 c 128,-1,22
 45 217 45 217 57 242 c 0,23,24
 65 266 65 266 74.5 287.5 c 128,-1,25
 84 309 84 309 98 328 c 0,26,27
 130 371 130 371 192.5 423.5 c 128,-1,28
 255 476 255 476 348 539 c 1,29,30
 342 696 342 696 366 696 c 0,31,32
 401 696 401 696 479 328 c 0,33,34
 504 211 504 211 545 163 c 128,-1,35
 586 115 586 115 645 115 c 0,36,37
 699 115 699 115 740 141 c 128,-1,38
 781 167 781 167 805 221 c 1,39,-1
 654 680 l 1,40,41
 663 752 663 752 668 787.5 c 128,-1,42
 673 823 673 823 679 823 c 0,43,44
 694 823 694 823 706 778 c 2,45,-1
 836 403 l 2,46,47
 858 338 858 338 888.5 291 c 128,-1,48
 919 244 919 244 955 213 c 128,-1,49
 991 182 991 182 1031 167 c 128,-1,50
 1071 152 1071 152 1112 152 c 0,51,52
 1132 152 1132 152 1145.5 157 c 128,-1,53
 1159 162 1159 162 1157 170 c 0,54,55
 1157 172 1157 172 1148 192.5 c 128,-1,56
 1139 213 1139 213 1123.5 248 c 128,-1,57
 1108 283 1108 283 1085.5 331 c 128,-1,58
 1063 379 1063 379 1035 436 c 0,59,60
 981 554 981 554 952 621 c 128,-1,61
 923 688 923 688 919 705 c 0,62,63
 914 728 914 728 930 778 c 0,64,65
 938 804 938 804 945.5 820 c 128,-1,66
 953 836 953 836 962 842 c 1,67,68
 964 831 964 831 993.5 763.5 c 128,-1,69
 1023 696 1023 696 1082 571 c 0,70,71
 1110 510 1110 510 1134 455 c 128,-1,72
 1158 400 1158 400 1176.5 356 c 128,-1,73
 1195 312 1195 312 1206.5 280.5 c 128,-1,74
 1218 249 1218 249 1221 236 c 0,0,1
393 328 m 1,75,76
 391 340 391 340 391 354 c 128,-1,77
 391 368 391 368 387 385 c 0,78,79
 382 404 382 404 377.5 418 c 128,-1,80
 373 432 373 432 368 446 c 1,81,82
 351 438 351 438 327.5 424 c 128,-1,83
 304 410 304 410 272 385 c 0,84,85
 240 359 240 359 219.5 341.5 c 128,-1,86
 199 324 199 324 189 311 c 1,87,88
 215 299 215 299 243 294 c 128,-1,89
 271 289 271 289 300 289 c 256,90,91
 329 289 329 289 353 298.5 c 128,-1,92
 377 308 377 308 393 328 c 1,75,76
EndSplineSet
EndChar

StartChar: afii64184
Encoding: 65010 65010 235
Width: 1370
GlyphClass: 3
Flags: W
AnchorPoint: "Anchor-1" 1095 -375 baselig 0
AnchorPoint: "Anchor-0" 870 1065 baselig 0
AnchorPoint: "Anchor-1" 825 -390 baselig 1
AnchorPoint: "Anchor-0" 600 945 baselig 1
AnchorPoint: "Anchor-1" 450 -435 baselig 2
AnchorPoint: "Anchor-0" 90 690 baselig 2
LayerCount: 2
Fore
SplineSet
1221 236 m 0,0,1
 1235 172 1235 172 1213 92 c 0,2,3
 1203 43 1203 43 1177.5 19.5 c 128,-1,4
 1152 -4 1152 -4 1126 -4 c 0,5,6
 1055 -4 1055 -4 979.5 32 c 128,-1,7
 904 68 904 68 837 143 c 1,8,9
 819 49 819 49 770.5 3 c 128,-1,10
 722 -43 722 -43 648 -43 c 0,11,12
 471 -43 471 -43 410 248 c 1,13,-1
 338 174 l 2,14,15
 303 141 303 141 244 141 c 0,16,17
 201 141 201 141 127 154 c 0,18,19
 44 169 44 169 42 178 c 0,20,21
 40 184 40 184 42.5 200.5 c 128,-1,22
 45 217 45 217 57 242 c 0,23,24
 65 266 65 266 74.5 287.5 c 128,-1,25
 84 309 84 309 98 328 c 0,26,27
 130 371 130 371 192.5 423.5 c 128,-1,28
 255 476 255 476 348 539 c 1,29,30
 342 696 342 696 366 696 c 0,31,32
 401 696 401 696 479 328 c 0,33,34
 504 211 504 211 545 163 c 128,-1,35
 586 115 586 115 645 115 c 0,36,37
 699 115 699 115 740 141 c 128,-1,38
 781 167 781 167 805 221 c 1,39,-1
 654 680 l 1,40,41
 663 752 663 752 668 787.5 c 128,-1,42
 673 823 673 823 679 823 c 0,43,44
 694 823 694 823 706 778 c 2,45,-1
 836 403 l 2,46,47
 858 338 858 338 888.5 291 c 128,-1,48
 919 244 919 244 955 213 c 128,-1,49
 991 182 991 182 1031 167 c 128,-1,50
 1071 152 1071 152 1112 152 c 0,51,52
 1132 152 1132 152 1145.5 157 c 128,-1,53
 1159 162 1159 162 1157 170 c 0,54,55
 1157 172 1157 172 1148 192.5 c 128,-1,56
 1139 213 1139 213 1123.5 248 c 128,-1,57
 1108 283 1108 283 1085.5 331 c 128,-1,58
 1063 379 1063 379 1035 436 c 0,59,60
 981 554 981 554 952 621 c 128,-1,61
 923 688 923 688 919 705 c 0,62,63
 914 728 914 728 930 778 c 0,64,65
 938 804 938 804 945.5 820 c 128,-1,66
 953 836 953 836 962 842 c 1,67,68
 964 831 964 831 993.5 763.5 c 128,-1,69
 1023 696 1023 696 1082 571 c 0,70,71
 1110 510 1110 510 1134 455 c 128,-1,72
 1158 400 1158 400 1176.5 356 c 128,-1,73
 1195 312 1195 312 1206.5 280.5 c 128,-1,74
 1218 249 1218 249 1221 236 c 0,0,1
393 328 m 1,75,76
 391 340 391 340 391 354 c 128,-1,77
 391 368 391 368 387 385 c 0,78,79
 382 404 382 404 377.5 418 c 128,-1,80
 373 432 373 432 368 446 c 1,81,82
 351 438 351 438 327.5 424 c 128,-1,83
 304 410 304 410 272 385 c 0,84,85
 240 359 240 359 219.5 341.5 c 128,-1,86
 199 324 199 324 189 311 c 1,87,88
 215 299 215 299 243 294 c 128,-1,89
 271 289 271 289 300 289 c 256,90,91
 329 289 329 289 353 298.5 c 128,-1,92
 377 308 377 308 393 328 c 1,75,76
776 1100 m 0,93,94
 780 1080 780 1080 777 1058.5 c 128,-1,95
 774 1037 774 1037 764 1020 c 0,96,97
 750 994 750 994 730 977.5 c 128,-1,98
 710 961 710 961 684 961 c 0,99,100
 667 961 667 961 649 964 c 128,-1,101
 631 967 631 967 615 975 c 1,102,103
 561 901 561 901 500 901 c 0,104,105
 465 901 465 901 438.5 923 c 128,-1,106
 412 945 412 945 404 987 c 0,107,108
 399 1008 399 1008 401.5 1036.5 c 128,-1,109
 404 1065 404 1065 410 1091 c 128,-1,110
 416 1117 416 1117 425.5 1135 c 128,-1,111
 435 1153 435 1153 446 1153 c 0,112,113
 454 1153 454 1153 458.5 1145 c 128,-1,114
 463 1137 463 1137 465 1126 c 0,115,116
 467 1117 467 1117 465 1105 c 128,-1,117
 463 1093 463 1093 460.5 1080 c 128,-1,118
 458 1067 458 1067 456 1053 c 128,-1,119
 454 1039 454 1039 457 1026 c 0,120,121
 460 1012 460 1012 469 1003.5 c 128,-1,122
 478 995 478 995 490 995 c 0,123,124
 530 995 530 995 550 1034 c 1,125,126
 550 1056 550 1056 550 1083 c 128,-1,127
 550 1110 550 1110 554 1134 c 128,-1,128
 558 1158 558 1158 567 1174 c 128,-1,129
 576 1190 576 1190 593 1190 c 0,130,131
 608 1190 608 1190 611 1180 c 0,132,133
 612 1172 612 1172 609 1150.5 c 128,-1,134
 606 1129 606 1129 611 1104 c 0,135,136
 623 1049 623 1049 676 1049 c 0,137,138
 680 1049 680 1049 687 1051 c 128,-1,139
 694 1053 694 1053 700 1056 c 128,-1,140
 706 1059 706 1059 710 1064 c 128,-1,141
 714 1069 714 1069 713 1075 c 0,142,143
 708 1100 708 1100 702 1123.5 c 128,-1,144
 696 1147 696 1147 688 1176 c 0,145,146
 688 1177 688 1177 691 1186 c 128,-1,147
 694 1195 694 1195 699.5 1205.5 c 128,-1,148
 705 1216 705 1216 711.5 1224.5 c 128,-1,149
 718 1233 718 1233 724 1233 c 256,150,151
 730 1233 730 1233 737.5 1218.5 c 128,-1,152
 745 1204 745 1204 752.5 1183.5 c 128,-1,153
 760 1163 760 1163 766 1140 c 128,-1,154
 772 1117 772 1117 776 1100 c 0,93,94
557 1423 m 0,155,156
 564 1392 564 1392 564.5 1361 c 128,-1,157
 565 1330 565 1330 560 1298 c 0,158,159
 553 1274 553 1274 549 1260.5 c 128,-1,160
 545 1247 545 1247 533 1247 c 0,161,162
 525 1247 525 1247 521.5 1252 c 128,-1,163
 518 1257 518 1257 516 1270 c 0,164,165
 514 1278 514 1278 512.5 1302 c 128,-1,166
 511 1326 511 1326 504 1358 c 0,167,168
 496 1396 496 1396 478 1434.5 c 128,-1,169
 460 1473 460 1473 425 1518 c 1,170,171
 433 1567 433 1567 439.5 1589.5 c 128,-1,172
 446 1612 446 1612 454 1612 c 0,173,174
 465 1612 465 1612 476.5 1596.5 c 128,-1,175
 488 1581 488 1581 506 1550 c 0,176,177
 542 1492 542 1492 557 1423 c 0,155,156
EndSplineSet
Ligature2: "'rlig' Required Ligatures in Arabic lookup 5 subtable" afii62817 afii62818 uniFC63 afii62828
Ligature2: "'rlig' Required Ligatures in Arabic lookup 5 subtable" afii62817 afii62818 afii57457 uni0670 afii62828
EndChar

StartChar: afii57415.001
Encoding: 1575 1575 249
Width: 340
GlyphClass: 2
Flags: W
AnchorPoint: "Anchor-3" 255 -405 basechar 0
AnchorPoint: "Anchor-2" -105 1275 basechar 0
LayerCount: 2
Fore
SplineSet
202 240 m 0,0,1
 213 189 213 189 216.5 144 c 128,-1,2
 220 99 220 99 218 57 c 0,3,4
 215 -25 215 -25 189 -25 c 0,5,6
 179 -25 179 -25 158 72 c 0,7,8
 138 166 138 166 104 297.5 c 128,-1,9
 70 429 70 429 19 600 c 0,10,11
 -30 771 -30 771 -58.5 875.5 c 128,-1,12
 -87 980 -87 980 -95 1018 c 1,13,14
 -68 1169 -68 1169 -51 1169 c 0,15,16
 -37 1169 -37 1169 -7 1026 c 0,17,18
 1 986 1 986 27 885.5 c 128,-1,19
 53 785 53 785 98 623 c 0,20,21
 190 299 190 299 202 240 c 0,0,1
EndSplineSet
Substitution2: "'fina' Terminal Forms in Arabic lookup 3 subtable" afii62760
EndChar

StartChar: afii62760.001
Encoding: 65555 -1 250
Width: 489
GlyphClass: 2
Flags: W
LayerCount: 2
Fore
SplineSet
429 0 m 2,0,1
 324 0 324 0 244 78 c 0,2,3
 170 152 170 152 125 322 c 0,4,5
 54 580 54 580 -1 758 c 128,-1,6
 -56 936 -56 936 -98 1036 c 1,7,8
 -80 1188 -80 1188 -64 1188 c 0,9,10
 -47 1188 -47 1188 -5 1061 c 0,11,12
 13 1004 13 1004 52 871 c 128,-1,13
 91 738 91 738 151 526 c 0,14,15
 223 281 223 281 272 211 c 0,16,17
 314 152 314 152 398 152 c 2,18,-1
 456 152 l 1,19,-1
 489 0 l 1,20,-1
 429 0 l 2,0,1
EndSplineSet
EndChar

StartChar: afii57421
Encoding: 1581 1581 269
Width: 1033
GlyphClass: 2
Flags: W
AnchorPoint: "Anchor-3" 345 -1110 basechar 0
AnchorPoint: "Anchor-2" 345 795 basechar 0
LayerCount: 2
Fore
SplineSet
1272 -563 m 0,0,1
 1276 -581 1276 -581 1218 -596 c 0,2,3
 1207 -598 1207 -598 1162 -617.5 c 128,-1,4
 1117 -637 1117 -637 1035 -672 c 0,5,6
 977 -697 977 -697 913 -709 c 128,-1,7
 849 -721 849 -721 780 -721 c 0,8,9
 212 -721 212 -721 116 -270 c 0,10,11
 84 -125 84 -125 144 43 c 0,12,13
 173 124 173 124 215.5 190.5 c 128,-1,14
 258 257 258 257 316 311 c 1,15,16
 301 319 301 319 274.5 322.5 c 128,-1,17
 248 326 248 326 211 326 c 0,18,19
 153 326 153 326 122 299 c 0,20,21
 103 283 103 283 89 252 c 0,22,23
 80 225 80 225 67 225 c 0,24,25
 52 225 52 225 46 250 c 0,26,27
 33 316 33 316 82 391 c 0,28,29
 136 471 136 471 259 471 c 0,30,31
 316 471 316 471 400 459 c 0,32,33
 497 444 497 444 583 444 c 0,34,35
 729 444 729 444 831 471 c 1,36,-1
 787 315 l 1,37,38
 420 315 420 315 279 137 c 0,39,40
 251 102 251 102 231 59 c 128,-1,41
 211 16 211 16 200 -37 c 0,42,43
 189 -91 189 -91 188 -138.5 c 128,-1,44
 187 -186 187 -186 198 -229 c 0,45,46
 213 -292 213 -292 246 -348.5 c 128,-1,47
 279 -405 279 -405 332 -453 c 0,48,49
 457 -569 457 -569 886 -569 c 0,50,51
 924 -569 924 -569 972 -566.5 c 128,-1,52
 1020 -564 1020 -564 1079 -559 c 256,53,54
 1138 -554 1138 -554 1173 -552.5 c 128,-1,55
 1208 -551 1208 -551 1219 -551 c 0,56,57
 1269 -551 1269 -551 1272 -563 c 0,0,1
EndSplineSet
Substitution2: "'fina' Terminal Forms in Arabic lookup 3 subtable" afii62776
Substitution2: "'medi' Medial Forms in Arabic lookup 2 subtable" afii62775
Substitution2: "'init' Initial Forms in Arabic lookup 0 subtable" afii62774
EndChar

StartChar: afii62776
Encoding: 65186 65186 270
Width: 1063
GlyphClass: 2
Flags: W
AnchorPoint: "Anchor-3" 345 -1185 basechar 0
AnchorPoint: "Anchor-2" 345 795 basechar 0
LayerCount: 2
Fore
SplineSet
1294 -666 m 0,0,1
 1298 -683 1298 -683 1240 -698 c 0,2,3
 1214 -704 1214 -704 1041 -766 c 0,4,5
 990 -783 990 -783 932 -792 c 128,-1,6
 874 -801 874 -801 805 -801 c 0,7,8
 674 -801 674 -801 570 -780 c 128,-1,9
 466 -759 466 -759 388 -717 c 0,10,11
 288 -663 288 -663 224 -571.5 c 128,-1,12
 160 -480 160 -480 133 -350 c 0,13,14
 91 -152 91 -152 153 2 c 0,15,16
 179 68 179 68 226.5 133 c 128,-1,17
 274 198 274 198 344 264 c 1,18,19
 302 279 302 279 225 279 c 0,20,21
 190 279 190 279 164 270 c 128,-1,22
 138 261 138 261 118 244 c 0,23,24
 107 235 107 235 92 201 c 0,25,26
 83 174 83 174 69 174 c 256,27,28
 55 174 55 174 49 199 c 0,29,30
 36 265 36 265 85 340 c 0,31,32
 139 420 139 420 262 420 c 0,33,34
 294 420 294 420 411 408 c 0,35,36
 468 403 468 403 512 400 c 128,-1,37
 556 397 556 397 585 397 c 0,38,39
 665 397 665 397 729.5 402 c 128,-1,40
 794 407 794 407 843 418 c 1,41,-1
 818 285 l 1,42,-1
 714 272 l 1,43,44
 707 256 707 256 718 203 c 0,45,46
 725 172 725 172 751.5 162 c 128,-1,47
 778 152 778 152 829 152 c 2,48,-1
 1030 152 l 1,49,-1
 1063 0 l 1,50,-1
 860 0 l 2,51,52
 783 0 783 0 736.5 39 c 128,-1,53
 690 78 690 78 672 160 c 0,54,55
 667 186 667 186 666 212.5 c 128,-1,56
 665 239 665 239 670 268 c 1,57,58
 410 235 410 235 282 78 c 0,59,60
 165 -68 165 -68 207 -272 c 0,61,62
 255 -496 255 -496 446 -586 c 0,63,64
 619 -669 619 -669 951 -659 c 2,65,-1
 1240 -653 l 2,66,67
 1291 -650 1291 -650 1294 -666 c 0,0,1
EndSplineSet
EndChar

StartChar: afii62774
Encoding: 65187 65187 271
Width: 996
GlyphClass: 2
Flags: W
AnchorPoint: "Anchor-3" 345 -540 basechar 0
AnchorPoint: "Anchor-2" 330 885 basechar 0
LayerCount: 2
Fore
SplineSet
847 141 m 2,0,1
 844 141 844 141 832.5 141.5 c 128,-1,2
 821 142 821 142 806 143 c 128,-1,3
 791 144 791 144 775 144.5 c 128,-1,4
 759 145 759 145 747 145 c 0,5,6
 543 145 543 145 351 74 c 0,7,8
 251 37 251 37 164.5 18.5 c 128,-1,9
 78 0 78 0 0 0 c 0,10,11
 -70 0 -70 0 -86 76 c 0,12,13
 -101 152 -101 152 -32 152 c 0,14,15
 108 152 108 152 225.5 169 c 128,-1,16
 343 186 343 186 442 221 c 1,17,18
 239 326 239 326 174 326 c 0,19,20
 118 326 118 326 87 295 c 0,21,22
 55 266 55 266 47 266 c 0,23,24
 36 266 36 266 30 287 c 0,25,26
 23 321 23 321 52 381 c 0,27,28
 73 419 73 419 106 439 c 128,-1,29
 139 459 139 459 187 459 c 0,30,31
 244 459 244 459 447 371 c 0,32,33
 549 326 549 326 637.5 304.5 c 128,-1,34
 726 283 726 283 801 283 c 2,35,-1
 891 283 l 1,36,-1
 847 141 l 2,0,1
EndSplineSet
EndChar

